<svg width="1056" height="986" viewBox="0 0 1056 986" fill="none" xmlns="http://www.w3.org/2000/svg">
<path d="M528 985.948C819.606 985.948 1056 849.464 1056 681.103C1056 512.741 819.606 376.257 528 376.257C236.394 376.257 0 512.741 0 681.103C0 849.464 236.394 985.948 528 985.948Z" fill="#F0F0F0"/>
<path d="M418.742 912.101C519.299 912.101 600.816 865.041 600.816 806.99C600.816 748.938 519.299 701.878 418.742 701.878C318.186 701.878 236.669 748.938 236.669 806.99C236.669 865.041 318.186 912.101 418.742 912.101Z" fill="#E0E0E0"/>
<path d="M642.659 609.004L634.165 604.095C632.749 603.177 631.571 601.936 630.726 600.476C629.881 599.015 629.393 597.376 629.301 595.691V242.66C629.394 240.978 629.88 239.341 630.721 237.881C631.562 236.422 632.734 235.18 634.142 234.256L870.251 97.947C871.755 97.1849 873.417 96.7878 875.103 96.7878C876.789 96.7878 878.451 97.1849 879.955 97.947L888.449 102.855C889.864 103.774 891.042 105.014 891.888 106.475C892.733 107.935 893.221 109.575 893.312 111.26V464.291C893.22 465.973 892.734 467.609 891.893 469.069C891.052 470.529 889.88 471.771 888.471 472.695L652.363 609.026C650.859 609.79 649.195 610.186 647.508 610.182C645.821 610.178 644.159 609.774 642.659 609.004Z" fill="#455A64"/>
<path d="M893.312 110.475C892.976 107.965 890.937 107.046 888.494 108.458L652.363 244.789C650.935 245.685 649.756 246.926 648.934 248.397L630.713 237.886C631.528 236.404 632.708 235.154 634.142 234.256L870.251 97.947C871.755 97.1849 873.417 96.7878 875.103 96.7878C876.789 96.7878 878.451 97.1849 879.955 97.947L888.449 102.855C889.761 103.7 890.875 104.818 891.714 106.133C892.554 107.448 893.099 108.93 893.312 110.475Z" fill="#455A64"/>
<path d="M651.534 609.407C650.099 609.988 648.557 610.255 647.01 610.189C645.464 610.123 643.949 609.727 642.569 609.026L634.053 604.095C632.644 603.171 631.472 601.93 630.631 600.47C629.79 599.01 629.304 597.373 629.212 595.691V242.66C629.269 240.975 629.755 239.332 630.624 237.886L648.844 248.398C647.959 249.845 647.465 251.498 647.41 253.194V606.225C647.5 609.004 649.248 610.281 651.534 609.407Z" fill="#263238"/>
<path d="M647.5 253.238V606.225C647.5 609.317 649.741 610.572 652.363 609.026L888.472 472.695C889.88 471.771 891.052 470.529 891.893 469.069C892.734 467.609 893.22 465.973 893.313 464.29V111.26C893.313 108.167 891.071 106.912 888.472 108.458L652.363 244.789C650.942 245.712 649.76 246.96 648.915 248.429C648.069 249.897 647.584 251.546 647.5 253.238Z" fill="#37474F"/>
<path d="M592.367 387.709C589.319 385.894 575.177 377.848 574.437 377.422C573.861 377.078 573.369 376.61 572.998 376.05C572.627 375.491 572.387 374.856 572.294 374.191C572.202 373.526 572.26 372.849 572.464 372.21C572.668 371.57 573.013 370.985 573.473 370.497L629.301 310.613L647.5 321.057L591.694 380.986C591.256 381.452 590.923 382.008 590.717 382.614C590.511 383.22 590.438 383.863 590.501 384.5C590.565 385.137 590.765 385.753 591.086 386.307C591.408 386.861 591.845 387.339 592.367 387.709Z" fill="#455A64"/>
<path d="M647.5 321.124L591.694 380.986C591.074 381.647 590.67 382.482 590.534 383.378C590.398 384.274 590.537 385.191 590.933 386.006C591.328 386.822 591.962 387.499 592.75 387.947C593.539 388.395 594.444 388.593 595.347 388.516L647.5 384.213V321.124Z" fill="#37474F"/>
<path d="M770.406 213.345C797.928 197.455 820.228 210.342 820.228 242.122C820.228 273.902 797.928 312.518 770.406 328.408C742.885 344.298 720.585 331.411 720.585 299.653C720.585 267.896 742.885 229.235 770.406 213.345Z" fill="#FE6D37"/>
<path d="M770.048 238.357C779.012 233.202 786.206 237.371 786.206 247.68C785.901 253.284 784.279 258.738 781.471 263.597C778.664 268.457 774.75 272.586 770.048 275.65C761.083 280.805 753.866 276.636 753.866 266.327C754.174 260.721 755.8 255.266 758.611 250.406C761.423 245.547 765.341 241.418 770.048 238.357Z" fill="white"/>
<path d="M801.917 293.311C801.917 276.39 790.017 269.509 775.359 277.981L766.193 283.27C751.535 291.742 739.635 312.406 739.635 329.282V333.921C742.402 334.805 745.291 335.252 748.196 335.243C756.059 334.976 763.715 332.658 770.406 328.52C783.146 320.672 793.925 310.017 801.917 297.367V293.311Z" fill="white"/>
<path d="M738.85 485.716L801.962 449.275C804.651 447.728 806.825 448.983 806.825 452.076V472.404C806.734 474.089 806.246 475.728 805.4 477.188C804.555 478.649 803.377 479.889 801.962 480.808L738.85 517.25C736.161 518.796 733.987 517.541 733.987 514.448V494.121C734.078 492.436 734.566 490.796 735.412 489.336C736.257 487.875 737.435 486.635 738.85 485.716Z" fill="#FE6D37"/>
<path d="M707.944 440.31L832.801 368.189C836.006 366.329 838.628 367.83 838.628 371.55V379.103C838.518 381.124 837.933 383.091 836.921 384.843C835.908 386.596 834.497 388.084 832.801 389.189L707.877 461.31C704.672 463.17 702.073 461.668 702.073 457.948V450.463C702.175 448.426 702.761 446.442 703.782 444.677C704.803 442.911 706.23 441.414 707.944 440.31Z" fill="#FAFAFA"/>
<path d="M722.557 388.113C724.26 387.127 725.582 386.97 726.524 387.665C727.465 388.359 727.936 389.906 727.936 392.281C727.983 394.45 727.498 396.597 726.524 398.534C725.643 400.286 724.262 401.736 722.557 402.703L719.195 404.653V411.892C719.189 412.141 719.127 412.386 719.016 412.609C718.937 412.812 718.795 412.984 718.612 413.102L716.909 414.088C716.851 414.132 716.78 414.155 716.707 414.155C716.635 414.155 716.564 414.132 716.506 414.088C716.385 413.936 716.329 413.743 716.349 413.55V392.595C716.347 392.347 716.4 392.102 716.506 391.878C716.591 391.679 716.731 391.508 716.909 391.385L722.557 388.113ZM719.195 400.596L722.445 398.714C723.23 398.271 723.892 397.639 724.372 396.876C724.882 395.976 725.13 394.951 725.089 393.917C725.089 392.707 724.843 392.012 724.372 391.811C724.04 391.73 723.693 391.726 723.359 391.8C723.025 391.874 722.712 392.023 722.445 392.237L719.195 394.119V400.596Z" fill="#FAFAFA"/>
<path d="M737.326 379.574C737.55 379.439 737.73 379.439 737.842 379.574C737.985 379.775 738.085 380.004 738.133 380.246L743.31 397.772C743.31 397.772 743.31 397.907 743.31 397.974C743.307 398.224 743.245 398.469 743.131 398.691C743.052 398.894 742.911 399.067 742.728 399.184L741.204 400.058C740.935 400.215 740.733 400.238 740.621 400.058C740.512 399.946 740.435 399.807 740.397 399.655L739.478 396.584L732.754 400.439L731.858 404.563C731.794 404.786 731.712 405.004 731.611 405.213C731.5 405.486 731.293 405.709 731.029 405.841L729.505 406.715C729.448 406.762 729.377 406.788 729.303 406.788C729.229 406.788 729.158 406.762 729.101 406.715C728.984 406.57 728.928 406.385 728.944 406.199C728.932 406.117 728.932 406.034 728.944 405.953L734.099 382.465C734.161 382.12 734.259 381.782 734.39 381.456C734.5 381.221 734.68 381.025 734.906 380.896L737.326 379.574ZM738.492 393.155L736.251 385.244L734.009 395.822L738.492 393.155Z" fill="#FAFAFA"/>
<path d="M751.154 371.259C751.904 370.786 752.758 370.501 753.642 370.43C754.267 370.374 754.894 370.515 755.435 370.833C755.927 371.152 756.31 371.614 756.533 372.156C756.778 372.707 756.915 373.301 756.937 373.904C756.952 374.153 756.898 374.401 756.78 374.621C756.701 374.824 756.559 374.996 756.376 375.114L754.897 375.966C754.651 376.1 754.471 376.122 754.359 375.966C754.221 375.874 754.105 375.751 754.023 375.607C753.933 375.405 753.804 375.224 753.642 375.074C753.48 374.923 753.29 374.808 753.082 374.733C752.399 374.635 751.706 374.813 751.154 375.226C750.791 375.46 750.446 375.723 750.123 376.01C749.791 376.317 749.497 376.663 749.249 377.041C749.011 377.406 748.815 377.797 748.667 378.207C748.534 378.597 748.466 379.005 748.465 379.417C748.438 379.794 748.508 380.172 748.667 380.515C748.736 380.635 748.833 380.737 748.95 380.811C749.067 380.886 749.201 380.93 749.339 380.941C749.754 381.013 750.179 381.013 750.594 380.941L752.544 380.515C753.27 380.3 754.028 380.209 754.785 380.246C755.326 380.245 755.852 380.417 756.287 380.739C756.697 381.084 756.994 381.545 757.138 382.062C757.358 382.788 757.456 383.545 757.43 384.303C757.428 385.304 757.285 386.3 757.004 387.261C756.73 388.249 756.331 389.198 755.816 390.085C755.273 390.994 754.626 391.836 753.889 392.595C753.135 393.377 752.275 394.048 751.334 394.59C750.644 395.01 749.885 395.306 749.092 395.464C748.448 395.588 747.781 395.534 747.165 395.307C746.605 395.047 746.142 394.615 745.843 394.074C745.477 393.383 745.277 392.615 745.26 391.833C745.258 391.578 745.311 391.326 745.417 391.093C745.516 390.903 745.663 390.741 745.843 390.623L747.322 389.771C747.546 389.637 747.725 389.592 747.86 389.659C747.994 389.726 748.084 389.838 748.174 390.04C748.266 390.271 748.386 390.489 748.532 390.69C748.672 390.885 748.867 391.034 749.092 391.116C749.387 391.184 749.694 391.184 749.989 391.116C750.465 391.004 750.919 390.814 751.334 390.556C751.768 390.308 752.181 390.023 752.566 389.704C753.32 389.108 753.919 388.339 754.314 387.463C754.494 387.014 754.585 386.534 754.583 386.051C754.604 385.875 754.589 385.697 754.539 385.528C754.489 385.358 754.405 385.201 754.292 385.065C754.171 384.958 754.028 384.879 753.873 384.832C753.719 384.786 753.556 384.773 753.396 384.796C752.887 384.817 752.383 384.9 751.894 385.042C751.311 385.177 750.639 385.334 749.854 385.468C749.254 385.618 748.633 385.664 748.017 385.603C747.532 385.571 747.073 385.373 746.717 385.042C746.329 384.663 746.057 384.181 745.932 383.653C745.752 382.874 745.669 382.076 745.686 381.277C745.685 380.29 745.828 379.309 746.112 378.364C746.379 377.391 746.771 376.457 747.277 375.585C747.762 374.718 748.349 373.913 749.025 373.186C749.64 372.446 750.357 371.797 751.154 371.259Z" fill="#FAFAFA"/>
<path d="M765.879 362.787C766.624 362.3 767.479 362.007 768.367 361.936C768.991 361.883 769.618 362.023 770.159 362.339C770.638 362.667 771.012 363.126 771.235 363.662C771.48 364.213 771.617 364.807 771.639 365.41C771.665 365.659 771.61 365.911 771.482 366.127C771.403 366.33 771.262 366.502 771.078 366.62L769.599 367.472C769.375 367.606 769.196 367.651 769.061 367.472C768.918 367.382 768.808 367.248 768.748 367.091C768.543 366.697 768.199 366.394 767.784 366.239C767.449 366.19 767.109 366.208 766.781 366.293C766.454 366.377 766.147 366.527 765.879 366.732C765.504 366.961 765.152 367.223 764.826 367.516C764.5 367.823 764.214 368.169 763.974 368.547C763.727 368.907 763.531 369.299 763.391 369.713C763.252 370.101 763.176 370.51 763.167 370.923C763.141 371.3 763.21 371.678 763.369 372.021C763.438 372.141 763.535 372.243 763.652 372.317C763.769 372.392 763.903 372.436 764.041 372.447C764.456 372.519 764.881 372.519 765.296 372.447L767.246 372.021C767.975 371.818 768.731 371.727 769.487 371.752C770.028 371.747 770.556 371.921 770.989 372.245C771.399 372.595 771.701 373.053 771.863 373.568C772.061 374.298 772.151 375.053 772.132 375.809C772.13 376.81 771.987 377.806 771.706 378.767C771.432 379.755 771.033 380.704 770.518 381.591C769.978 382.508 769.331 383.359 768.591 384.123C767.834 384.886 766.983 385.549 766.058 386.096C765.367 386.514 764.609 386.81 763.817 386.97C763.18 387.092 762.521 387.038 761.912 386.813C761.341 386.561 760.868 386.128 760.567 385.58C760.199 384.891 760.006 384.121 760.007 383.339C759.981 383.089 760.036 382.838 760.164 382.622C760.243 382.419 760.384 382.246 760.567 382.129L762.046 381.277C762.271 381.143 762.472 381.098 762.584 381.165C762.662 381.2 762.731 381.253 762.785 381.319C762.84 381.385 762.878 381.463 762.898 381.546C762.999 381.772 763.119 381.99 763.257 382.196C763.404 382.393 763.607 382.541 763.839 382.622C764.134 382.69 764.441 382.69 764.736 382.622C765.212 382.51 765.666 382.32 766.081 382.062C766.505 381.808 766.909 381.523 767.291 381.21C767.684 380.903 768.032 380.54 768.322 380.134C768.612 379.747 768.853 379.326 769.039 378.879C769.218 378.43 769.31 377.951 769.308 377.467C769.329 377.292 769.314 377.114 769.264 376.944C769.214 376.775 769.13 376.617 769.017 376.481C768.895 376.374 768.752 376.295 768.598 376.249C768.443 376.202 768.28 376.19 768.12 376.212C767.62 376.243 767.124 376.325 766.641 376.459C766.058 376.593 765.363 376.75 764.601 376.884C763.993 377.035 763.364 377.08 762.741 377.019C762.255 376.993 761.794 376.795 761.441 376.459C761.061 376.077 760.797 375.595 760.679 375.069C760.48 374.301 760.39 373.509 760.41 372.716C760.418 371.722 760.562 370.735 760.836 369.78C761.113 368.811 761.505 367.878 762.002 367.001C762.486 366.129 763.082 365.323 763.772 364.603C764.376 363.892 765.086 363.279 765.879 362.787Z" fill="#FAFAFA"/>
<path d="M782.217 365.589L780.402 376.324C780.348 376.647 780.258 376.963 780.133 377.265C780.046 377.507 779.88 377.712 779.662 377.848L777.959 378.834C777.735 378.969 777.578 378.969 777.466 378.834C777.315 378.65 777.229 378.422 777.219 378.184L774.53 359.246C774.53 359.246 774.53 359.067 774.53 359C774.536 358.75 774.598 358.506 774.709 358.283C774.794 358.083 774.934 357.912 775.113 357.789L776.659 356.893C776.788 356.841 776.933 356.841 777.062 356.893C777.197 356.893 777.286 357.072 777.331 357.431L779.102 370.183L780.648 360.613C780.688 360.375 780.756 360.142 780.85 359.919C780.939 359.635 781.131 359.395 781.388 359.246L783.113 358.238C783.36 358.103 783.539 358.126 783.651 358.238C783.748 358.38 783.817 358.54 783.853 358.708L785.422 366.485L787.192 351.693C787.214 351.402 787.298 351.12 787.439 350.864C787.544 350.697 787.681 350.552 787.842 350.438L789.389 349.542C789.447 349.498 789.518 349.475 789.591 349.475C789.663 349.475 789.734 349.498 789.792 349.542C789.856 349.615 789.905 349.701 789.935 349.793C789.966 349.885 789.979 349.983 789.972 350.08C789.98 350.169 789.98 350.259 789.972 350.349L787.282 372.38C787.237 372.702 787.154 373.018 787.036 373.321C786.933 373.56 786.761 373.763 786.542 373.904L784.817 374.89C784.615 375.002 784.458 375.002 784.346 374.89C784.233 374.684 784.142 374.466 784.077 374.24L782.217 365.589Z" fill="#FAFAFA"/>
<path d="M792.706 356.086C792.756 354.844 792.905 353.607 793.154 352.388C793.41 351.197 793.801 350.039 794.319 348.937C794.813 347.865 795.446 346.863 796.202 345.956C796.968 345.057 797.886 344.298 798.914 343.715C799.703 343.179 800.628 342.876 801.581 342.841C802.293 342.849 802.975 343.129 803.486 343.625C804.029 344.235 804.42 344.965 804.629 345.754C804.918 346.784 805.076 347.845 805.1 348.914C805.1 349.318 805.1 349.766 805.1 350.259C805.1 350.752 805.1 351.268 805.1 351.806C805.1 352.343 805.1 352.859 805.1 353.352C805.1 353.845 805.1 354.316 805.1 354.741C805.051 355.977 804.901 357.206 804.651 358.417C804.392 359.604 804.009 360.761 803.508 361.868C802.999 362.937 802.359 363.938 801.603 364.849C800.837 365.74 799.928 366.498 798.914 367.09C798.106 367.622 797.169 367.924 796.202 367.964C795.853 367.972 795.506 367.908 795.182 367.777C794.859 367.646 794.565 367.45 794.319 367.202C793.735 366.575 793.332 365.8 793.154 364.961C792.887 363.928 792.737 362.868 792.706 361.801C792.706 361.398 792.706 360.95 792.706 360.457C792.706 359.963 792.706 359.448 792.706 358.91C792.706 358.372 792.706 357.879 792.706 357.364C792.706 356.848 792.683 356.49 792.706 356.086ZM802.253 350.73C802.303 350.181 802.241 349.629 802.072 349.105C801.902 348.581 801.629 348.097 801.267 347.682C800.684 347.166 799.878 347.189 798.914 347.682C797.868 348.297 797.038 349.221 796.538 350.326C795.903 351.633 795.566 353.065 795.552 354.517C795.552 355.347 795.552 356.266 795.552 357.274C795.552 358.283 795.552 359.179 795.552 359.986C795.502 360.534 795.564 361.087 795.733 361.611C795.903 362.135 796.177 362.619 796.538 363.034C797.121 363.527 797.928 363.482 798.914 362.922C799.943 362.303 800.762 361.389 801.267 360.3C801.903 359.001 802.24 357.577 802.253 356.131C802.253 355.279 802.253 354.361 802.253 353.352C802.253 352.343 802.276 351.537 802.253 350.73Z" fill="#FAFAFA"/>
<path d="M814.871 334.773C816.642 333.764 817.964 333.607 818.883 334.347C819.427 334.947 819.832 335.66 820.069 336.435C820.305 337.21 820.367 338.027 820.25 338.829C820.268 340.351 820.034 341.866 819.555 343.312C819.1 344.658 818.393 345.905 817.471 346.987L820.384 353.33C820.394 353.434 820.394 353.539 820.384 353.643C820.386 353.845 820.339 354.045 820.25 354.226C820.188 354.389 820.079 354.529 819.936 354.63L818.143 355.66C817.852 355.817 817.65 355.84 817.516 355.66C817.397 355.543 817.299 355.407 817.224 355.257L814.468 349.273L811.666 350.887V358.462C811.668 358.71 811.615 358.955 811.509 359.179C811.417 359.374 811.279 359.543 811.106 359.672L809.403 360.658C809.346 360.706 809.275 360.732 809.201 360.732C809.127 360.732 809.056 360.706 808.999 360.658C808.935 360.59 808.886 360.508 808.855 360.42C808.824 360.331 808.812 360.236 808.82 360.143V339.188C808.826 338.938 808.888 338.694 808.999 338.471C809.078 338.268 809.22 338.095 809.403 337.978L814.871 334.773ZM811.711 346.83L814.871 345.127C815.643 344.696 816.304 344.089 816.799 343.356C817.318 342.493 817.567 341.494 817.516 340.488C817.516 339.277 817.269 338.605 816.799 338.471C816.116 338.378 815.425 338.555 814.871 338.964L811.823 340.712L811.711 346.83Z" fill="#FAFAFA"/>
<path d="M829.887 326.144C830.7 325.613 831.632 325.29 832.599 325.203C833.3 325.177 833.984 325.426 834.504 325.898C835.097 326.522 835.508 327.297 835.692 328.139C835.993 329.25 836.159 330.394 836.185 331.545C836.185 333.114 836.185 334.728 836.185 336.364C836.139 337.698 835.974 339.026 835.692 340.331C835.436 341.543 835.045 342.724 834.526 343.849C834.026 344.883 833.393 345.848 832.644 346.718C831.895 347.609 831.001 348.367 829.999 348.959L824.687 351.85C824.631 351.898 824.56 351.924 824.486 351.924C824.412 351.924 824.341 351.898 824.284 351.85C824.219 351.783 824.169 351.701 824.138 351.612C824.107 351.523 824.095 351.429 824.105 351.335V330.38C824.111 330.131 824.173 329.886 824.284 329.663C824.363 329.46 824.504 329.287 824.687 329.17L829.887 326.144ZM833.338 333.114C833.328 332.507 833.238 331.904 833.069 331.321C832.965 330.88 832.74 330.476 832.419 330.156C832.279 330.015 832.111 329.905 831.926 329.831C831.741 329.758 831.543 329.724 831.344 329.73C830.782 329.767 830.241 329.953 829.775 330.268L826.951 331.881V346.494L829.887 344.813C830.455 344.482 830.962 344.058 831.389 343.558C831.806 343.066 832.16 342.524 832.442 341.944C832.721 341.327 832.932 340.681 833.069 340.017C833.226 339.325 833.316 338.619 833.338 337.91C833.406 336.274 833.406 334.683 833.338 333.114Z" fill="#FAFAFA"/>
<path d="M522.128 0.859008C525.997 1.7198 529.724 3.12322 533.2 5.02761C536.528 6.8167 539.51 9.18454 542.007 12.0201C544.397 14.7477 546.17 17.9583 547.207 21.4331C548.265 25.1526 548.342 29.0825 547.431 32.8407C546.83 35.8203 545.65 38.653 543.957 41.1779C542.412 43.337 540.571 45.2683 538.489 46.9153C536.444 48.5032 534.261 49.9058 531.967 51.1063L525.512 54.5353C523.568 55.5494 521.722 56.7424 519.999 58.0988C518.44 59.2947 517.245 60.9011 516.548 62.738C516.206 63.5772 515.64 64.3062 514.912 64.8447C514.567 65.1125 514.166 65.2982 513.738 65.3875C513.311 65.4768 512.869 65.4675 512.446 65.3602L502.944 63.2535C502.486 63.1576 502.052 62.9714 501.667 62.7059C501.283 62.4404 500.955 62.1008 500.702 61.7071C500.434 61.3411 500.256 60.917 500.182 60.4693C500.108 60.0215 500.14 59.5626 500.277 59.1297C501.042 56.1868 502.391 53.4278 504.243 51.0167C505.934 48.8839 507.892 46.9781 510.071 45.3465C512.193 43.7931 514.442 42.4211 516.794 41.2451C519.035 40.1021 521.276 39.0039 523.226 37.9057C525.04 36.9308 526.745 35.7664 528.314 34.4319C529.69 33.2799 530.644 31.7031 531.026 29.9495C531.382 28.4269 531.364 26.8405 530.974 25.3261C530.584 23.8117 529.833 22.4144 528.784 21.2538C526.164 18.3925 522.661 16.491 518.834 15.8525C511.751 14.2837 505.775 16.6668 500.904 23.0019C500.434 23.6934 499.841 24.2934 499.156 24.7724C498.382 25.1559 497.489 25.2203 496.668 24.9517L486.561 22.7105C485.84 22.5712 485.203 22.1522 484.79 21.5451C484.569 21.2207 484.421 20.8527 484.356 20.466C484.29 20.0793 484.308 19.683 484.409 19.3039C485.268 16.1897 486.867 13.3294 489.071 10.9667C491.556 8.2268 494.507 5.95022 497.789 4.2432C501.377 2.36598 505.244 1.07947 509.241 0.433187C513.524 -0.263395 517.901 -0.118761 522.128 0.859008ZM511.393 72.9802C512.282 73.189 513.054 73.7373 513.544 74.5079C514.034 75.2786 514.203 76.2104 514.015 77.104L511.595 88.0858C511.513 88.5456 511.335 88.9829 511.072 89.3691C510.809 89.7554 510.468 90.0818 510.071 90.327C509.695 90.5856 509.27 90.7631 508.823 90.848C508.375 90.9329 507.915 90.9234 507.471 90.82L496.623 88.3323C496.162 88.2546 495.723 88.0781 495.336 87.8151C494.95 87.5521 494.624 87.2087 494.382 86.8083C494.131 86.4298 493.96 86.004 493.879 85.557C493.798 85.1099 493.809 84.6511 493.912 84.2086L496.355 73.2268C496.564 72.3365 497.111 71.5626 497.881 71.0689C498.65 70.5753 499.582 70.4007 500.478 70.5822L511.393 72.9802Z" fill="#FE6D37"/>
<path d="M534.096 105.993C536.795 105.56 539.541 105.507 542.254 105.836C544.846 106.144 547.364 106.902 549.695 108.077C551.914 109.229 553.869 110.832 555.432 112.784C556.838 114.694 557.827 116.877 558.337 119.194C558.846 121.51 558.865 123.907 558.39 126.231C557.963 128.017 557.276 129.731 556.351 131.318C555.459 132.862 554.424 134.317 553.258 135.666C552.115 137.011 551.017 138.288 550.008 139.521C549.021 140.669 548.143 141.907 547.386 143.219C546.676 144.368 546.318 145.701 546.355 147.051C546.336 147.683 546.158 148.299 545.84 148.844C545.678 149.095 545.464 149.309 545.213 149.472C544.962 149.634 544.679 149.741 544.383 149.785L537.659 150.861C537.345 150.918 537.023 150.912 536.711 150.843C536.399 150.773 536.105 150.643 535.844 150.458C535.579 150.291 535.358 150.064 535.198 149.795C535.038 149.527 534.945 149.224 534.925 148.911C534.644 146.826 534.796 144.705 535.373 142.681C535.9 140.889 536.654 139.172 537.615 137.571C538.557 136.034 539.637 134.587 540.842 133.246C542.03 131.901 543.083 130.646 544.114 129.436C545.034 128.355 545.831 127.175 546.49 125.917C547.073 124.834 547.286 123.591 547.095 122.376C546.926 121.307 546.502 120.294 545.858 119.424C545.214 118.554 544.37 117.852 543.397 117.378C540.988 116.214 538.26 115.883 535.642 116.437C533.272 116.783 531.067 117.855 529.33 119.504C527.592 121.153 526.408 123.299 525.938 125.648C525.807 126.213 525.579 126.751 525.266 127.239C524.866 127.665 524.323 127.928 523.742 127.979L516.66 129.122C516.162 129.217 515.646 129.112 515.225 128.83C515.009 128.682 514.828 128.489 514.693 128.265C514.557 128.041 514.471 127.791 514.441 127.531C514.23 125.307 514.577 123.065 515.449 121.009C516.336 118.616 517.641 116.4 519.304 114.464C521.127 112.345 523.276 110.53 525.669 109.086C528.252 107.519 531.114 106.469 534.096 105.993ZM545.661 154.963C545.969 154.914 546.284 154.926 546.588 154.999C546.892 155.072 547.178 155.204 547.431 155.388C547.695 155.562 547.92 155.79 548.09 156.056C548.259 156.323 548.371 156.622 548.417 156.935L549.672 164.622C549.769 165.246 549.617 165.882 549.248 166.394C548.878 166.906 548.322 167.252 547.7 167.356L540.192 168.589C539.569 168.685 538.933 168.532 538.421 168.163C538.162 167.987 537.941 167.759 537.775 167.492C537.609 167.226 537.501 166.928 537.458 166.617L536.203 158.93C536.146 158.621 536.154 158.304 536.228 157.999C536.301 157.694 536.438 157.408 536.629 157.159C536.804 156.899 537.033 156.679 537.299 156.513C537.566 156.347 537.864 156.239 538.175 156.195L545.661 154.963Z" fill="#FE6D37"/>
<g opacity="0.2">
<path opacity="0.2" d="M534.096 105.993C536.795 105.56 539.541 105.507 542.254 105.836C544.846 106.144 547.364 106.902 549.695 108.077C551.914 109.229 553.869 110.832 555.432 112.784C556.838 114.694 557.827 116.877 558.337 119.194C558.846 121.51 558.865 123.907 558.39 126.231C557.963 128.017 557.276 129.731 556.351 131.318C555.459 132.862 554.424 134.317 553.258 135.666C552.115 137.011 551.017 138.288 550.008 139.521C549.021 140.669 548.143 141.907 547.386 143.219C546.676 144.368 546.318 145.701 546.355 147.051C546.336 147.683 546.158 148.299 545.84 148.844C545.678 149.095 545.464 149.309 545.213 149.472C544.962 149.634 544.679 149.741 544.383 149.785L537.659 150.861C537.345 150.918 537.023 150.912 536.711 150.843C536.399 150.773 536.105 150.643 535.844 150.458C535.579 150.291 535.358 150.064 535.198 149.795C535.038 149.527 534.945 149.224 534.925 148.911C534.644 146.826 534.796 144.705 535.373 142.681C535.9 140.889 536.654 139.172 537.615 137.571C538.557 136.034 539.637 134.587 540.842 133.246C542.03 131.901 543.083 130.646 544.114 129.436C545.034 128.355 545.831 127.175 546.49 125.917C547.073 124.834 547.286 123.591 547.095 122.376C546.926 121.307 546.502 120.294 545.858 119.424C545.214 118.554 544.37 117.852 543.397 117.378C540.988 116.214 538.26 115.883 535.642 116.437C533.272 116.783 531.067 117.855 529.33 119.504C527.592 121.153 526.408 123.299 525.938 125.648C525.807 126.213 525.579 126.751 525.266 127.239C524.866 127.665 524.323 127.928 523.742 127.979L516.66 129.122C516.162 129.217 515.646 129.112 515.225 128.83C515.009 128.682 514.828 128.489 514.693 128.265C514.557 128.041 514.471 127.791 514.441 127.531C514.23 125.307 514.577 123.065 515.449 121.009C516.336 118.616 517.641 116.4 519.304 114.464C521.127 112.345 523.276 110.53 525.669 109.086C528.252 107.519 531.114 106.469 534.096 105.993ZM545.661 154.963C545.969 154.914 546.284 154.926 546.588 154.999C546.892 155.072 547.178 155.204 547.431 155.388C547.695 155.562 547.92 155.79 548.09 156.056C548.259 156.323 548.371 156.622 548.417 156.935L549.672 164.622C549.769 165.246 549.617 165.882 549.248 166.394C548.878 166.906 548.322 167.252 547.7 167.356L540.192 168.589C539.569 168.685 538.933 168.532 538.421 168.163C538.162 167.987 537.941 167.759 537.775 167.492C537.609 167.226 537.501 166.928 537.458 166.617L536.203 158.93C536.146 158.621 536.154 158.304 536.228 157.999C536.301 157.694 536.438 157.408 536.629 157.159C536.804 156.899 537.033 156.679 537.299 156.513C537.566 156.347 537.864 156.239 538.175 156.195L545.661 154.963Z" fill="black"/>
</g>
<path d="M597.477 118.073C597.782 118.285 598.041 118.558 598.238 118.874C598.434 119.19 598.564 119.543 598.62 119.911C598.691 120.275 598.686 120.651 598.605 121.013C598.524 121.376 598.369 121.718 598.149 122.017L592.815 129.525C592.603 129.831 592.33 130.09 592.014 130.286C591.698 130.483 591.345 130.613 590.977 130.668C590.613 130.74 590.237 130.735 589.875 130.654C589.512 130.573 589.17 130.417 588.871 130.198L581.519 124.976C581.213 124.766 580.955 124.494 580.762 124.177C580.569 123.86 580.445 123.506 580.399 123.138C580.328 122.773 580.333 122.398 580.414 122.035C580.495 121.673 580.65 121.331 580.87 121.031L586.271 113.523C586.708 112.915 587.367 112.503 588.105 112.377C588.843 112.251 589.602 112.421 590.215 112.851L597.477 118.073ZM628.495 67.2203C631.175 69.0988 633.562 71.3647 635.577 73.9439C637.542 76.3431 639.06 79.0759 640.059 82.0121C640.989 84.8259 641.303 87.807 640.978 90.7528C640.598 93.894 639.409 96.8828 637.527 99.4261C636.128 101.483 634.329 103.236 632.237 104.581C630.396 105.735 628.395 106.611 626.298 107.181C624.256 107.715 622.171 108.074 620.068 108.256L614.106 108.794C612.319 108.937 610.548 109.245 608.817 109.713C607.22 110.076 605.759 110.884 604.604 112.044C604.082 112.574 603.422 112.947 602.699 113.12C602.355 113.218 601.992 113.233 601.641 113.163C601.29 113.093 600.961 112.94 600.682 112.716L594.182 108.099C593.561 107.656 593.135 106.989 592.994 106.239C592.911 105.876 592.914 105.498 593.003 105.136C593.093 104.774 593.266 104.438 593.51 104.155C595.028 102.185 596.926 100.539 599.09 99.3141C601.039 98.2497 603.119 97.4436 605.276 96.916C607.358 96.4109 609.48 96.0884 611.619 95.9523C613.725 95.8178 615.698 95.6609 617.535 95.4816C619.217 95.3331 620.878 95.0025 622.488 94.4955C623.897 94.0264 625.11 93.1045 625.94 91.8733C626.689 90.8338 627.176 89.6287 627.359 88.3605C627.543 87.0924 627.417 85.7987 626.993 84.5895C625.933 81.6024 623.906 79.0547 621.233 77.3505C616.392 73.8991 611.111 73.787 605.388 77.0143C604.812 77.3809 604.174 77.6391 603.505 77.7763C603.157 77.8006 602.808 77.7556 602.477 77.6441C602.146 77.5325 601.84 77.3566 601.578 77.1264L594.675 72.2182C594.425 72.0522 594.211 71.8378 594.046 71.5875C593.88 71.3373 593.766 71.0564 593.712 70.7614C593.658 70.4564 593.668 70.1436 593.741 69.8427C593.815 69.5419 593.949 69.2595 594.137 69.0133C595.766 66.9265 597.883 65.2719 600.301 64.1948C603.048 62.9502 605.99 62.1919 608.996 61.9536C612.304 61.6771 615.635 61.9421 618.858 62.738C622.336 63.5762 625.612 65.1 628.495 67.2203Z" fill="#FE6D37"/>
<g opacity="0.6">
<path opacity="0.6" d="M597.477 118.073C597.782 118.285 598.041 118.558 598.238 118.874C598.434 119.19 598.564 119.543 598.62 119.911C598.691 120.275 598.686 120.651 598.605 121.013C598.524 121.376 598.369 121.718 598.149 122.017L592.815 129.525C592.603 129.831 592.33 130.09 592.014 130.286C591.698 130.483 591.345 130.613 590.977 130.668C590.613 130.74 590.237 130.735 589.875 130.654C589.512 130.573 589.17 130.417 588.871 130.198L581.519 124.976C581.213 124.766 580.955 124.494 580.762 124.177C580.569 123.86 580.445 123.506 580.399 123.138C580.328 122.773 580.333 122.398 580.414 122.035C580.495 121.673 580.65 121.331 580.87 121.031L586.271 113.523C586.708 112.915 587.367 112.503 588.105 112.377C588.843 112.251 589.602 112.421 590.215 112.851L597.477 118.073ZM628.495 67.2203C631.175 69.0988 633.562 71.3647 635.577 73.9439C637.542 76.3431 639.06 79.0759 640.059 82.0121C640.989 84.8259 641.303 87.807 640.978 90.7528C640.598 93.894 639.409 96.8828 637.527 99.4261C636.128 101.483 634.329 103.236 632.237 104.581C630.396 105.735 628.395 106.611 626.298 107.181C624.256 107.715 622.171 108.074 620.068 108.256L614.106 108.794C612.319 108.937 610.548 109.245 608.817 109.713C607.22 110.076 605.759 110.884 604.604 112.044C604.082 112.574 603.422 112.947 602.699 113.12C602.355 113.218 601.992 113.233 601.641 113.163C601.29 113.093 600.961 112.94 600.682 112.716L594.182 108.099C593.561 107.656 593.135 106.989 592.994 106.239C592.911 105.876 592.914 105.498 593.003 105.136C593.093 104.774 593.266 104.438 593.51 104.155C595.028 102.185 596.926 100.539 599.09 99.3141C601.039 98.2497 603.119 97.4436 605.276 96.916C607.358 96.4109 609.48 96.0884 611.619 95.9523C613.725 95.8178 615.698 95.6609 617.535 95.4816C619.217 95.3331 620.878 95.0025 622.488 94.4955C623.897 94.0264 625.11 93.1045 625.94 91.8733C626.689 90.8338 627.176 89.6287 627.359 88.3605C627.543 87.0924 627.417 85.7987 626.993 84.5895C625.933 81.6024 623.906 79.0547 621.233 77.3505C616.392 73.8991 611.111 73.787 605.388 77.0143C604.812 77.3809 604.174 77.6391 603.505 77.7763C603.157 77.8006 602.808 77.7556 602.477 77.6441C602.146 77.5325 601.84 77.3566 601.578 77.1264L594.675 72.2182C594.425 72.0522 594.211 71.8378 594.046 71.5875C593.88 71.3373 593.766 71.0564 593.712 70.7614C593.658 70.4564 593.668 70.1436 593.741 69.8427C593.815 69.5419 593.949 69.2595 594.137 69.0133C595.766 66.9265 597.883 65.2719 600.301 64.1948C603.048 62.9502 605.99 62.1919 608.996 61.9536C612.304 61.6771 615.635 61.9421 618.858 62.738C622.336 63.5762 625.612 65.1 628.495 67.2203Z" fill="white"/>
</g>
<path d="M430.576 316.462H350.947V123.541C350.947 106.785 357.603 90.7154 369.451 78.8671C381.3 67.0188 397.369 60.3624 414.125 60.3624H421.477C438.233 60.3624 454.302 67.0188 466.151 78.8671C477.999 90.7154 484.655 106.785 484.655 123.541V262.495C484.626 276.818 478.915 290.545 468.776 300.662C458.638 310.78 444.899 316.462 430.576 316.462Z" fill="#263238"/>
<path d="M343.192 780.902C341.784 788.896 341.034 796.991 340.951 805.107C340.659 819.809 337.97 825.031 337.611 837.089C337.186 850.872 339.584 856.027 345.164 863.781C350.745 871.536 365.335 878.551 371.655 865.462C377.975 852.374 377.056 843.79 375.062 830.276C373.022 816.291 372.82 808.559 371.565 797.913C370.534 788.522 369.324 781.373 369.324 781.373L343.192 780.902Z" fill="#263238"/>
<path d="M384.923 683.254L336.513 682.38C337.231 714.698 342.363 750.579 343.237 780.992C343.416 786.707 343.103 825.345 345.254 837.021C348.504 854.682 369.436 852.284 370.557 841.728C371.678 831.172 369.212 786.057 369.279 781.395C369.078 761.942 378.244 729.108 382.973 694.191C383.175 692.51 384.699 684.935 384.923 683.254Z" fill="#FFA8A7"/>
<path d="M447.116 755.756C447.116 755.756 445.211 754.725 444.874 756.765C444.404 759.185 443.687 764.183 442.633 768.172C441.244 773.708 440.078 782.83 440.908 787.357C441.737 791.884 452.27 797.666 459.106 799.773C467.53 802.373 475.214 806.944 481.518 813.108C488.241 819.473 502.876 825.479 512.894 825.412C524.66 825.412 532.863 821.49 536.74 815.192C540.618 808.895 533.199 808.133 519.752 799.504L509.331 792.781C488.017 778.863 480.195 771.422 474.212 757.504L447.116 755.756Z" fill="#263238"/>
<path d="M474.391 747.128C474.032 737.132 480.935 652.169 480.935 652.169L434.969 673.124C444.807 731.888 446.914 745.761 447.071 755.375C446.869 756.181 446.786 757.011 446.824 757.841C446.824 769.248 459.756 775.411 469.796 783.031C478.332 789.718 487.427 795.656 496.982 800.782C504.288 804.435 519.125 804.771 520.963 800.087C508.726 790.741 490.931 776.756 481.204 766.088C476.453 761.068 474.749 757.146 474.391 747.128Z" fill="#FFA8A7"/>
<path d="M356.348 367.897C338.687 406.647 338.687 436.634 341.623 486.097C344.223 531.481 348.548 571.486 348.548 571.486C347.876 579.532 336.693 595.243 335.236 630.833C333.891 664.092 337.477 706.383 337.477 706.383C337.477 706.383 362.601 720.301 381.18 706.249C381.18 706.249 399.109 620.658 404.354 579.017C408.836 542.687 416.904 496.272 416.904 496.272L433.87 578.77C430.208 590.475 427.554 602.472 425.936 614.629C423.561 639.125 437.277 687.221 437.277 687.221C437.277 687.221 463.23 694.953 479.075 680.901C479.075 680.901 484.992 602.706 487.21 573.212C490.169 533.7 483.938 426.751 479.075 370.116L356.348 367.897Z" fill="#455A64"/>
<path d="M416.949 496.205L423.92 434.035C423.92 434.035 455.162 429.866 469.326 416.553C465.272 422.896 459.871 428.268 453.507 432.289C447.143 436.31 439.972 438.88 432.503 439.817L422.418 497.662L433.87 578.77L416.949 496.205Z" fill="#263238"/>
<path d="M543.464 352.612C544.755 341.267 545.324 329.852 545.167 318.434C544.473 308.573 542.702 306.96 528.919 289.501C510.317 265.901 494.427 244.677 477.618 223.588C465.605 208.527 452.965 206.218 440.683 206.891C432.077 207.361 448.886 248.756 457.335 273.252L505.588 325.203C507.083 327.253 507.769 329.783 507.515 332.307L504.602 376.503L519.058 395.867C519.058 395.867 540.954 376.996 543.464 352.612Z" fill="#FFA8A7"/>
<path d="M394.157 208.236C384.811 208.885 367.823 210.477 367.823 210.477C358.029 215.945 355.541 220.45 353.726 233.449C352.941 239.007 357.468 253.776 361.346 274.776L368.697 313.706L367.89 333.025C364.08 344.813 355.451 359.448 347.831 381.031C385.259 401.918 416.636 402.703 445.099 398.96C466.793 396.159 478.29 390.914 482.123 385.715C481.316 364.401 479.882 351.223 479.434 328.946C479.277 319.6 479.837 310.142 480.218 299.384C494.763 287.416 494.942 267.515 486.941 254.561C468.497 224.686 450.545 205.882 438.666 206.846L394.157 208.236Z" fill="#FE6D37"/>
<path opacity="0.6" d="M394.157 208.236C384.811 208.885 367.823 210.477 367.823 210.477C358.029 215.945 355.541 220.45 353.726 233.449C352.941 239.007 357.468 253.776 361.346 274.776L368.697 313.706L367.89 333.025C364.08 344.813 355.451 359.448 347.831 381.031C385.259 401.918 416.636 402.703 445.099 398.96C466.793 396.159 478.29 390.914 482.123 385.715C481.316 364.401 479.882 351.223 479.434 328.946C479.277 319.6 479.837 310.142 480.218 299.384C494.763 287.416 494.942 267.515 486.941 254.561C468.497 224.686 450.545 205.882 438.666 206.846L394.157 208.236Z" fill="white"/>
<path opacity="0.1" d="M451.239 299.676C451.239 299.676 434.162 312.944 414.641 306.018C409.159 304.291 404.216 301.178 400.29 296.981C396.364 292.784 393.587 287.645 392.229 282.06C392.229 282.06 390.167 304.36 414.753 311.957C438.577 319.286 451.239 299.676 451.239 299.676Z" fill="black"/>
<path d="M474.413 147.029C473.674 179.392 463.207 187.37 457.918 189.611C452.629 191.852 442.499 190.508 432.638 188.872V208.415C432.638 208.415 444.023 220.338 443.171 229.235C442.32 238.133 425.242 239.141 412.512 230.423C405.488 225.598 399.135 219.863 393.619 213.368C392.56 212.115 391.98 210.526 391.983 208.885V163.165C391.983 163.165 386.581 168.88 377.034 162.336C374.974 161.021 373.21 159.292 371.854 157.259C370.499 155.226 369.581 152.933 369.159 150.526C368.738 148.118 368.821 145.65 369.405 143.277C369.99 140.904 371.061 138.678 372.552 136.742C376.72 131.834 387.299 131.497 392.364 138.983C395.232 144.564 395.613 150.189 398.818 147.948C407.335 141.807 402.763 127.777 413.05 121.054C416.425 119.292 419.932 117.793 423.538 116.571C441.894 110.229 457.806 104.895 461.639 92.344C468.855 96.4678 475.31 108.862 474.413 147.029Z" fill="#FFA8A7"/>
<path d="M438.218 175.94C440.57 175.94 442.476 174.034 442.476 171.682C442.476 169.33 440.57 167.424 438.218 167.424C435.866 167.424 433.96 169.33 433.96 171.682C433.96 174.034 435.866 175.94 438.218 175.94Z" fill="#B16668"/>
<path d="M435.394 142.121C435.393 142.997 435.135 143.855 434.652 144.586C434.168 145.318 433.481 145.891 432.675 146.236C431.869 146.581 430.979 146.682 430.117 146.526C429.254 146.371 428.455 145.966 427.821 145.361C427.186 144.756 426.742 143.979 426.545 143.124C426.347 142.27 426.405 141.377 426.71 140.555C427.015 139.733 427.554 139.019 428.261 138.5C428.968 137.982 429.812 137.682 430.688 137.638C431.295 137.608 431.902 137.701 432.472 137.913C433.042 138.125 433.563 138.45 434.003 138.869C434.443 139.289 434.794 139.793 435.033 140.352C435.272 140.911 435.395 141.513 435.394 142.121Z" fill="#263238"/>
<path d="M469.348 142.569C469.394 143.117 469.33 143.669 469.161 144.193C468.991 144.716 468.719 145.201 468.36 145.618C468.001 146.035 467.563 146.377 467.071 146.623C466.579 146.869 466.042 147.015 465.493 147.051C464.939 147.102 464.381 147.035 463.855 146.854C463.329 146.673 462.848 146.382 462.443 146C462.038 145.619 461.719 145.155 461.507 144.641C461.295 144.127 461.194 143.573 461.213 143.017C461.155 142.465 461.21 141.906 461.376 141.376C461.542 140.846 461.814 140.355 462.176 139.934C462.538 139.513 462.982 139.17 463.481 138.926C463.98 138.683 464.524 138.544 465.079 138.518C465.633 138.492 466.188 138.58 466.707 138.775C467.227 138.971 467.701 139.271 468.101 139.657C468.501 140.042 468.818 140.505 469.032 141.018C469.247 141.53 469.354 142.081 469.348 142.636V142.569Z" fill="#263238"/>
<path d="M429.635 153.64C425.769 153.64 422.061 152.106 419.326 149.375C416.59 146.644 415.05 142.938 415.044 139.073C415.044 129.167 425.264 129.167 429.635 129.167C434.005 129.167 444.202 129.167 444.202 139.073C444.196 142.934 442.66 146.636 439.929 149.367C437.198 152.098 433.496 153.634 429.635 153.64ZM429.635 131.453C420.67 131.453 417.353 133.694 417.353 139.073C417.353 142.342 418.652 145.477 420.963 147.789C423.275 150.1 426.41 151.399 429.679 151.399C432.949 151.399 436.084 150.1 438.395 147.789C440.707 145.477 442.006 142.342 442.006 139.073C441.916 133.582 438.465 131.453 429.635 131.453Z" fill="#455A64"/>
<path d="M466.636 153.64C462.771 153.64 459.063 152.106 456.328 149.375C453.592 146.644 452.052 142.938 452.046 139.073C452.046 129.167 462.266 129.167 466.636 129.167C471.007 129.167 481.204 129.167 481.204 139.073C481.198 142.934 479.662 146.636 476.931 149.367C474.2 152.098 470.498 153.634 466.636 153.64ZM466.636 131.453C457.806 131.453 454.355 133.694 454.355 139.073C454.355 142.342 455.653 145.477 457.965 147.789C460.277 150.1 463.412 151.399 466.681 151.399C469.95 151.399 473.086 150.1 475.397 147.789C477.709 145.477 479.008 142.342 479.008 139.073C478.918 133.582 475.467 131.453 466.636 131.453Z" fill="#455A64"/>
<path d="M446.466 134.366L447.183 161.597L461.504 157.159L446.466 134.366Z" fill="#F28F8F"/>
<path d="M432.615 188.939C422.216 187.572 400.813 181.431 397.473 172.959C398.817 177.241 401.437 181.01 404.981 183.762C411.369 189.253 432.615 195.416 432.615 195.416V188.939Z" fill="#F28F8F"/>
<path d="M433.131 121.143L423.628 126.948C422.879 125.643 422.662 124.101 423.021 122.64C423.379 121.179 424.287 119.913 425.556 119.104C426.182 118.723 426.88 118.474 427.606 118.371C428.332 118.268 429.071 118.313 429.779 118.503C430.487 118.694 431.15 119.026 431.726 119.48C432.302 119.934 432.78 120.5 433.131 121.143Z" fill="#263238"/>
<path d="M471.791 127.598L461.213 123.9C461.417 123.199 461.763 122.547 462.229 121.985C462.695 121.422 463.271 120.961 463.922 120.629C464.573 120.298 465.284 120.103 466.013 120.056C466.742 120.01 467.473 120.113 468.16 120.359C469.579 120.869 470.747 121.905 471.423 123.252C472.099 124.6 472.231 126.156 471.791 127.598Z" fill="#263238"/>
<path d="M443.059 140.238C442.907 140.238 442.757 140.208 442.617 140.149C442.476 140.09 442.349 140.004 442.243 139.895C442.137 139.787 442.053 139.658 441.997 139.517C441.941 139.376 441.913 139.225 441.916 139.073C441.916 137.212 445.592 136.002 448.909 136.002C452.226 136.002 454.355 137.212 454.355 139.073C454.285 139.316 454.138 139.53 453.936 139.683C453.734 139.835 453.487 139.918 453.234 139.918C452.981 139.918 452.735 139.835 452.532 139.683C452.33 139.53 452.183 139.316 452.114 139.073C452.114 138.848 450.971 138.288 448.976 138.288C447.37 138.254 445.772 138.528 444.269 139.095C444.27 139.251 444.238 139.405 444.177 139.549C444.115 139.692 444.025 139.821 443.911 139.928C443.798 140.035 443.664 140.118 443.517 140.171C443.371 140.224 443.215 140.247 443.059 140.238Z" fill="#455A64"/>
<path d="M416.232 139.252H416.098L390.481 137.011C389.284 135.824 387.858 134.894 386.29 134.276L416.367 137.056C416.668 137.095 416.942 137.25 417.131 137.489C417.319 137.728 417.407 138.031 417.375 138.333C417.323 138.596 417.179 138.832 416.971 139C416.762 139.168 416.5 139.257 416.232 139.252Z" fill="#455A64"/>
<path d="M311.054 165.967C319.436 154.761 325.151 146.312 332.793 136.831C337.141 131.385 339.92 127.486 343.999 121.905C346.868 118.05 348.481 114.801 351.753 113.613C355.289 112.164 358.475 109.979 361.099 107.203C362.712 105.418 364.21 103.532 365.581 101.555C370.385 95.0896 376.091 89.346 382.525 84.4999C389.248 79.4348 396.756 75.5352 403.682 70.7166C407.805 67.8255 412.221 63.0294 407.2 58.547C405.66 57.2503 403.818 56.3637 401.844 55.9697C389.629 53.3251 379.006 57.5161 367.061 60.5641C361.872 61.8592 356.797 63.5756 351.888 65.6964C349.473 66.6514 347.209 67.9497 345.164 69.5512C342.306 72.4328 339.964 75.7834 338.239 79.4572C333.017 88.7806 321.811 97.1177 313.967 104.491C304.801 113.12 296.598 121.031 286.132 130.534C276.719 139.118 267.507 147.006 258.879 156.375C251.729 164.107 254.396 170.158 255.338 172.265C261.165 184.232 267.687 188.536 275.508 195.954C288.955 208.796 335.46 245.753 350.857 257.967C354.165 260.566 356.763 263.958 358.41 267.829L361.368 274.664C378.939 277.891 390.66 251.513 376.115 219.755C373.706 214.62 370.027 210.184 365.425 206.868C347.047 193.489 311.054 165.967 311.054 165.967Z" fill="#FFA8A7"/>
<path d="M311.054 165.967C305.461 172.847 298.008 177.974 289.583 180.736C289.583 180.736 300.789 183.605 316.141 169.822L311.054 165.967Z" fill="#F28F8F"/>
<path d="M538.892 329.237L536.023 326.772C535.595 326.489 535.106 326.312 534.596 326.253C534.085 326.195 533.569 326.257 533.087 326.435L501.957 334.907C500.389 335.43 498.953 336.285 497.746 337.415C496.539 338.544 495.59 339.921 494.965 341.451L472.553 406.065C472.283 406.591 472.177 407.186 472.249 407.774C472.321 408.361 472.568 408.913 472.957 409.359L475.915 411.914C476.345 412.211 476.842 412.399 477.361 412.461C477.88 412.524 478.407 412.459 478.896 412.273L510.07 403.801C511.639 403.278 513.075 402.423 514.282 401.293C515.489 400.164 516.438 398.787 517.063 397.257C521.545 384.549 534.992 345.351 539.475 332.643C540.013 331.052 539.744 329.842 538.892 329.237Z" fill="#455A64"/>
<path d="M475.489 408.552L497.901 343.939C498.524 342.41 499.472 341.035 500.679 339.908C501.887 338.782 503.325 337.932 504.893 337.417L536.001 328.946C538.892 328.161 540.483 329.82 539.452 332.643C534.97 345.351 521.523 384.549 517.041 397.257C516.415 398.787 515.467 400.164 514.26 401.293C513.053 402.423 511.616 403.278 510.048 403.801L478.941 412.362C476.072 413.035 474.525 411.376 475.489 408.552Z" fill="#FE6D37"/>
<path d="M501.509 339.21C499.891 340.436 498.636 342.078 497.878 343.961L475.467 408.552C475.21 409.065 475.103 409.64 475.159 410.211C475.214 410.782 475.43 411.326 475.78 411.78L473.001 409.404C472.603 408.964 472.349 408.412 472.273 407.823C472.197 407.235 472.302 406.637 472.575 406.109L494.987 341.496C495.696 339.74 496.846 338.196 498.327 337.014L501.509 339.21Z" fill="#37474F"/>
<path d="M530.353 358.686C528.112 365.253 520.335 369.646 507.471 372.694C494.606 375.742 487.502 389.39 489.541 393.537C491.581 397.683 512.379 401.56 520.694 400.372C529.009 399.184 537.346 387.172 539.878 383.451C542.411 379.731 545.324 353.778 542.657 350.214C539.99 346.651 534.365 347.211 534.365 347.211L530.353 358.686Z" fill="#F28F8F"/>
</svg>