<svg width="349" height="340" viewBox="0 0 349 340" fill="none" xmlns="http://www.w3.org/2000/svg">
<path opacity="0.24" d="M335.071 102.088C319.669 60.9919 290.927 25.2731 248.793 10.5912C211.8 -2.30093 169.316 -3.73423 131.823 8.00521C113.122 13.8673 95.4215 23.3014 81.3235 36.7775C63.8812 53.3932 55.3041 75.2264 47.8722 97.5374C40.7208 118.885 37.5509 141.143 29.4895 162.264C20.7759 185.014 -7.53372 230.577 1.9003 272.582C11.3343 314.588 27.3054 326.692 50.5416 332.387C73.7778 338.082 123.875 319.571 152.92 323.848C181.966 328.125 221.893 348.767 273.447 334.525C344.278 314.96 354.728 205.93 346.507 147.021C344.352 131.669 340.517 116.601 335.071 102.088Z" fill="black"/>
<path d="M273.06 96.2709C277.659 96.2709 281.387 92.5429 281.387 87.9441C281.387 83.3453 277.659 79.6173 273.06 79.6173C268.461 79.6173 264.733 83.3453 264.733 87.9441C264.733 92.5429 268.461 96.2709 273.06 96.2709Z" fill="#FC9B5C"/>
<path d="M191.812 168.159C192.722 164.32 190.348 160.47 186.509 159.559C182.67 158.649 178.82 161.023 177.91 164.862C176.999 168.701 179.373 172.551 183.212 173.461C187.051 174.372 190.901 171.998 191.812 168.159Z" fill="#FC9B5C"/>
<path d="M296.569 153.997C299.543 153.997 301.953 151.587 301.953 148.613C301.953 145.639 299.543 143.229 296.569 143.229C293.595 143.229 291.185 145.639 291.185 148.613C291.185 151.587 293.595 153.997 296.569 153.997Z" fill="#FC9B5C"/>
<path d="M115.138 81.263C118.112 81.263 120.523 78.8523 120.523 75.8786C120.523 72.9049 118.112 70.4942 115.138 70.4942C112.165 70.4942 109.754 72.9049 109.754 75.8786C109.754 78.8523 112.165 81.263 115.138 81.263Z" fill="#FC9B5C"/>
<path d="M321.863 97.9191C322.338 94.9836 320.344 92.2185 317.408 91.7431C314.473 91.2677 311.708 93.2619 311.232 96.1973C310.757 99.1328 312.751 101.898 315.687 102.373C318.622 102.849 321.387 100.855 321.863 97.9191Z" fill="#DBDBDB"/>
<path d="M328.242 190.491C328.927 187.597 327.136 184.696 324.243 184.011C321.349 183.326 318.448 185.116 317.762 188.01C317.077 190.904 318.868 193.805 321.761 194.49C324.655 195.175 327.556 193.385 328.242 190.491Z" fill="#FC9B5C"/>
<path d="M169.582 41.1335C170.075 38.201 168.098 35.4238 165.165 34.9304C162.233 34.437 159.456 36.4143 158.962 39.3468C158.469 42.2793 160.446 45.0565 163.379 45.5499C166.311 46.0433 169.088 44.0659 169.582 41.1335Z" fill="#FC9B5C"/>
<path d="M213.005 27.351C214.995 27.351 216.607 25.7383 216.607 23.7488C216.607 21.7594 214.995 20.1466 213.005 20.1466C211.016 20.1466 209.403 21.7594 209.403 23.7488C209.403 25.7383 211.016 27.351 213.005 27.351Z" fill="#DBDBDB"/>
<path d="M224.297 131.929C221.302 132.27 221.029 132.543 220.695 135.531C220.354 132.543 220.081 132.27 217.093 131.929C220.081 131.595 220.354 131.322 220.695 128.327C221.029 131.285 221.302 131.558 224.297 131.929Z" fill="#FC9B5C"/>
<path d="M249.611 188.677C251.6 188.677 253.213 187.065 253.213 185.075C253.213 183.086 251.6 181.473 249.611 181.473C247.622 181.473 246.009 183.086 246.009 185.075C246.009 187.065 247.622 188.677 249.611 188.677Z" fill="#FC9B5C"/>
<path d="M219.171 235.643C221.16 235.643 222.773 234.03 222.773 232.04C222.773 230.051 221.16 228.438 219.171 228.438C217.181 228.438 215.568 230.051 215.568 232.04C215.568 234.03 217.181 235.643 219.171 235.643Z" fill="#FC9B5C"/>
<path d="M299.147 245.994C301.137 245.994 302.749 244.382 302.749 242.392C302.749 240.403 301.137 238.79 299.147 238.79C297.158 238.79 295.545 240.403 295.545 242.392C295.545 244.382 297.158 245.994 299.147 245.994Z" fill="#FC9B5C"/>
<path d="M328.42 230.327C330.41 230.327 332.022 228.714 332.022 226.724C332.022 224.735 330.41 223.122 328.42 223.122C326.431 223.122 324.818 224.735 324.818 226.724C324.818 228.714 326.431 230.327 328.42 230.327Z" fill="#DBDBDB"/>
<path d="M207.272 203.026C209.261 203.026 210.874 201.413 210.874 199.423C210.874 197.434 209.261 195.821 207.272 195.821C205.282 195.821 203.669 197.434 203.669 199.423C203.669 201.413 205.282 203.026 207.272 203.026Z" fill="#DBDBDB"/>
<path d="M135.614 185.507C132.618 185.841 132.345 186.122 132.012 189.11C131.67 186.122 131.397 185.841 128.402 185.507C131.397 185.166 131.67 184.893 132.012 181.905C132.345 184.893 132.618 185.166 135.614 185.507Z" fill="#FC9B5C"/>
<path d="M318.668 137.351C319.995 137.351 321.072 136.275 321.072 134.947C321.072 133.62 319.995 132.543 318.668 132.543C317.34 132.543 316.264 133.62 316.264 134.947C316.264 136.275 317.34 137.351 318.668 137.351Z" fill="#FC9B5C"/>
<path d="M273.485 186.288C274.812 186.288 275.889 185.212 275.889 183.884C275.889 182.557 274.812 181.48 273.485 181.48C272.157 181.48 271.081 182.557 271.081 183.884C271.081 185.212 272.157 186.288 273.485 186.288Z" fill="#DBDBDB"/>
<path d="M232.692 78.0475C234.02 78.0475 235.096 76.9712 235.096 75.6435C235.096 74.3158 234.02 73.2395 232.692 73.2395C231.364 73.2395 230.288 74.3158 230.288 75.6435C230.288 76.9712 231.364 78.0475 232.692 78.0475Z" fill="#DBDBDB"/>
<path d="M245.607 32.0908C246.935 32.0908 248.011 31.0145 248.011 29.6868C248.011 28.3591 246.935 27.2828 245.607 27.2828C244.279 27.2828 243.203 28.3591 243.203 29.6868C243.203 31.0145 244.279 32.0908 245.607 32.0908Z" fill="#FC9B5C"/>
<path d="M160.291 78.7073C160.953 78.7073 161.49 78.1708 161.49 77.5091C161.49 76.8473 160.953 76.3109 160.291 76.3109C159.63 76.3109 159.093 76.8473 159.093 77.5091C159.093 78.1708 159.63 78.7073 160.291 78.7073Z" fill="#DBDBDB"/>
<path d="M124.967 44.1032C125.629 44.1032 126.165 43.5668 126.165 42.905C126.165 42.2433 125.629 41.7068 124.967 41.7068C124.305 41.7068 123.769 42.2433 123.769 42.905C123.769 43.5668 124.305 44.1032 124.967 44.1032Z" fill="#DBDBDB"/>
<path d="M173.51 16.9463C174.171 16.9463 174.708 16.4098 174.708 15.7481C174.708 15.0863 174.171 14.5499 173.51 14.5499C172.848 14.5499 172.312 15.0863 172.312 15.7481C172.312 16.4098 172.848 16.9463 173.51 16.9463Z" fill="#DBDBDB"/>
<path d="M265.036 244.607C265.698 244.607 266.234 244.07 266.234 243.408C266.234 242.747 265.698 242.21 265.036 242.21C264.374 242.21 263.838 242.747 263.838 243.408C263.838 244.07 264.374 244.607 265.036 244.607Z" fill="#FC9B5C"/>
<path d="M179.023 130.094C179.685 130.094 180.221 129.557 180.221 128.896C180.221 128.234 179.685 127.697 179.023 127.697C178.361 127.697 177.825 128.234 177.825 128.896C177.825 129.557 178.361 130.094 179.023 130.094Z" fill="#DBDBDB"/>
<path d="M266.553 144.503C267.214 144.503 267.751 143.966 267.751 143.305C267.751 142.643 267.214 142.106 266.553 142.106C265.891 142.106 265.354 142.643 265.354 143.305C265.354 143.966 265.891 144.503 266.553 144.503Z" fill="#DBDBDB"/>
<path d="M93.6465 48.1908C94.3082 48.1908 94.8447 47.6544 94.8447 46.9926C94.8447 46.3308 94.3082 45.7944 93.6465 45.7944C92.9847 45.7944 92.4482 46.3308 92.4482 46.9926C92.4482 47.6544 92.9847 48.1908 93.6465 48.1908Z" fill="#FC9B5C"/>
<path d="M143.698 208.963C144.36 208.963 144.896 208.427 144.896 207.765C144.896 207.104 144.36 206.567 143.698 206.567C143.036 206.567 142.5 207.104 142.5 207.765C142.5 208.427 143.036 208.963 143.698 208.963Z" fill="#DBDBDB"/>
<path d="M317.363 256.74C318.025 256.74 318.561 256.204 318.561 255.542C318.561 254.88 318.025 254.344 317.363 254.344C316.702 254.344 316.165 254.88 316.165 255.542C316.165 256.204 316.702 256.74 317.363 256.74Z" fill="#FC9B5C"/>
<path d="M276.093 269.193C276.755 269.193 277.291 268.656 277.291 267.994C277.291 267.333 276.755 266.796 276.093 266.796C275.431 266.796 274.895 267.333 274.895 267.994C274.895 268.656 275.431 269.193 276.093 269.193Z" fill="#FC9B5C"/>
<path d="M300.611 55.873C297.616 56.2143 297.343 56.4873 297.009 59.4752C296.668 56.4873 296.395 56.2143 293.407 55.873C296.395 55.5393 296.668 55.2663 297.009 52.2708C297.327 55.2663 297.616 55.5393 300.611 55.873Z" fill="#DBDBDB"/>
<path d="M258.947 39.6213C257.498 39.4241 256.02 39.2649 254.563 39.1511L254.617 38.3928C256.095 38.5065 257.582 38.6734 259.053 38.8705L258.947 39.6213Z" fill="#DBDBDB"/>
<path d="M296.137 55.5697C296.008 55.4559 283.108 44.0805 262.534 40.2128L262.678 39.4545C283.472 43.3676 296.508 54.8796 296.637 54.9933L296.137 55.5697Z" fill="#DBDBDB"/>
<path d="M327.192 287.484C320.367 282.934 311.676 277.535 309.461 277.535C305.67 277.535 273.818 292.702 269.268 291.943C264.718 291.185 196.466 239.616 179.782 237.341C164.008 235.188 21.5267 282.502 5.97266 287.689C15.6797 317.667 30.3767 327.442 50.5416 332.387C73.7778 338.082 123.875 319.571 152.92 323.848C181.966 328.125 221.893 348.767 273.447 334.525C298.086 327.715 315.415 310.076 327.192 287.484Z" fill="#263238"/>
<path d="M42.1013 287.735C43.0944 289.836 44.4267 291.761 46.0448 293.43V331.166C47.516 331.606 49.01 332.015 50.5419 332.387C63.798 335.64 85.8057 331.007 107.654 327.23C107.169 317.159 106.426 299.99 106.729 294.09C107.169 285.543 109.762 270.869 109.762 270.869C109.762 270.869 67.9235 273.902 56.313 272.62C44.7025 271.339 38.1123 269.989 38.1123 269.989L39.2043 273.493C39.2043 273.493 40.7893 284.671 42.1013 287.735Z" fill="#525252" stroke="#263238" stroke-linecap="round" stroke-linejoin="round"/>
<path d="M30.4904 264.074C30.4904 264.074 29.6107 272.181 30.7103 273.492C31.8099 274.804 40.3491 280.507 50.6476 281.16C60.9462 281.812 78.4643 283.571 83.7274 282.911C88.9904 282.252 101.033 279.408 104.757 278.536C108.48 277.663 112.204 275.684 114.615 274.372C117.027 273.06 117.239 272.855 118.119 271.301C118.999 269.746 118.559 261.662 118.559 261.662C109.332 265.313 99.6921 267.817 89.8549 269.117C73.4288 271.301 50.86 267.797 42.973 264.953C35.086 262.109 30.2704 261.662 30.2704 261.662L30.4904 264.074Z" fill="white" stroke="#263238" stroke-linecap="round" stroke-linejoin="round"/>
<path d="M161.012 97.7422C161.012 97.7422 169.688 88.8238 172.585 85.2064C175.482 81.5891 184.878 73.8765 187.289 71.9503C189.701 70.0241 196.208 68.0902 196.686 69.296C197.163 70.5018 196.208 73.1561 194.517 73.6339C192.825 74.1116 186.804 78.9424 186.804 78.9424L185.598 80.1482C187.268 80.9499 188.803 82.0065 190.148 83.2802C192.082 85.2065 192.082 92.1985 190.148 95.3306C188.159 98.5951 185.106 101.075 181.503 102.353C179.142 103.116 176.723 103.682 174.268 104.044L165.835 110.066L161.012 97.7422Z" fill="white" stroke="#263238" stroke-linecap="round" stroke-linejoin="round"/>
<path d="M194.092 89.9841C194.484 90.398 194.775 90.8964 194.944 91.4408C195.112 91.9852 195.153 92.561 195.063 93.1237C194.82 95.1865 192.03 98.0834 191.188 98.6901C190.346 99.2968 187.199 99.2968 187.199 98.4475C187.199 97.5981 189.375 95.1865 190.103 94.5798C190.831 93.9731 194.092 89.9841 194.092 89.9841Z" fill="white" stroke="#263238" stroke-linecap="round" stroke-linejoin="round"/>
<path d="M192.886 85.5098C192.886 85.5098 194.699 86.4729 194.942 88.1717C195.184 89.8704 192.158 93.4802 191.188 94.5798C190.516 95.2564 189.699 95.7713 188.799 96.0853C187.899 96.3993 186.94 96.5043 185.993 96.3923C184.059 96.0283 185.235 93.2451 185.75 92.7673C186.266 92.2896 190.103 88.0503 190.589 87.565C191.074 87.0796 192.886 85.5098 192.886 85.5098Z" fill="white" stroke="#263238" stroke-linecap="round" stroke-linejoin="round"/>
<path d="M187.684 85.6691C187.684 85.6691 183.452 92.3199 183.816 93.1617C184.18 94.0035 185.993 94.1324 187.077 93.7683C188.162 93.4043 191.688 87.838 192.833 86.1847C193.978 84.5315 193.728 83.7125 192.158 83.1058C190.822 82.7316 189.429 82.6082 188.048 82.7418L187.684 85.6691Z" fill="white" stroke="#263238" stroke-linecap="round" stroke-linejoin="round"/>
<path d="M174.753 84.9638L183.672 79.9055C183.672 79.9055 192.833 83.2802 193.531 83.758C194.228 84.2357 194.979 85.2065 192.772 86.1696C190.565 87.1327 184.574 86.1696 184.574 86.1696C184.574 86.1696 181.442 94.8528 178.545 96.0283C177.06 96.6704 175.541 97.2324 173.995 97.7118" fill="white"/>
<path d="M174.753 84.9638L183.672 79.9055C183.672 79.9055 192.833 83.2802 193.531 83.758C194.228 84.2357 194.979 85.2065 192.772 86.1696C190.565 87.1327 184.574 86.1696 184.574 86.1696C184.574 86.1696 181.442 94.8528 178.545 96.0283C177.06 96.6704 175.541 97.2324 173.995 97.7118" stroke="#263238" stroke-linecap="round" stroke-linejoin="round"/>
<path d="M106.509 131.755C106.509 131.755 118.779 126.712 121.843 125.18C124.906 123.648 131.042 119.045 134.985 116.838C138.928 114.631 162.157 96.0283 162.157 96.0283C162.157 96.0283 166.313 102.383 166.753 106.107C167.193 109.83 169.604 117.278 169.604 117.278L161.057 124.512C161.057 124.512 153.171 131.3 148.567 137.215C143.964 143.13 127.758 153.209 122.722 156.492C117.687 159.776 111.529 165.926 110.452 168.998C109.673 171.43 109.088 173.92 108.7 176.445C108.7 176.445 117.679 236.689 117.679 239.761C117.679 242.832 119.871 260.35 119.871 261.882C119.871 263.414 112.864 268.707 105.849 271.741C98.8339 274.774 74.9607 273.257 62.2581 273.257C49.5556 273.257 30.7103 266.03 28.9584 265.158C27.2066 264.286 28.2987 257.923 28.2987 257.923L32.2422 225.723C32.2422 225.723 36.1856 194.175 37.0653 188.48C37.945 182.785 42.3208 162.408 43.4128 158.684C44.5049 154.961 47.8265 151.032 54.3711 147.968C60.9158 144.905 93.806 137.01 98.4016 134.599C100.932 133.218 103.67 132.257 106.509 131.755Z" fill="#FC9B5C" stroke="#263238" stroke-linecap="round" stroke-linejoin="round"/>
<path d="M110.209 157.827C110.596 156.31 110.892 155.196 110.892 155.196" stroke="#263238" stroke-linecap="round" stroke-linejoin="round"/>
<path d="M108.7 176.445C108.7 176.445 108.261 168.998 108.481 166.146C108.751 164.084 109.146 162.041 109.664 160.026" stroke="#263238" stroke-linecap="round" stroke-linejoin="round"/>
<path d="M115.89 149.933C116.216 148.992 116.519 148.173 116.807 147.529" stroke="#263238" stroke-linecap="round" stroke-linejoin="round"/>
<path d="M110.771 167.807C110.771 167.807 113.167 158.335 115.26 151.882" stroke="#263238" stroke-linecap="round" stroke-linejoin="round"/>
<path d="M146.414 128.425C145.693 130.117 144.988 131.74 144.313 133.241" stroke="#263238" stroke-linecap="round" stroke-linejoin="round"/>
<path d="M156.477 103.43C156.477 103.43 152.435 113.994 148.256 124.057" stroke="#263238" stroke-linecap="round" stroke-linejoin="round"/>
<path d="M149.03 127.751C149.03 127.751 147.46 135.205 144.321 139.52" stroke="#263238" stroke-linecap="round" stroke-linejoin="round"/>
<path d="M152.48 103.93C152.48 103.93 155.772 111.597 157.084 115.761C157.996 118.783 158.738 121.854 159.306 124.96" stroke="#263238" stroke-linecap="round" stroke-linejoin="round"/>
<path d="M65.5572 150.069C65.5572 150.069 73.6338 157.296 77.8882 160.686C82.1426 164.076 82.5673 166.639 86.6093 169.187C90.6514 171.736 98.9403 183.012 98.9403 183.012C98.9403 183.012 100.214 169.4 101.276 164.053C102.338 158.707 98.0909 146.406 95.9675 142.819C93.8441 139.232 73.0043 131.929 69.8192 135.152C66.6341 138.375 63.4414 147.286 64.0784 148.158C64.7154 149.03 65.5572 150.069 65.5572 150.069Z" fill="white" stroke="#263238" stroke-linecap="round" stroke-linejoin="round"/>
<path d="M96.2102 172.282C96.2102 172.282 86.7914 167.466 81.7559 162.423C76.7203 157.38 67.9537 147.529 67.9537 145.557C67.9537 143.585 69.8192 135.152 69.8192 135.152C69.8192 135.152 83.9551 141.613 86.579 141.613C89.203 141.613 93.8062 144.647 96.4378 149.5C99.0693 154.354 99.2892 158.919 99.4712 160.671C99.6532 162.423 100.343 174.033 100.343 174.033C100.343 174.033 102.755 164.834 104.067 159.579C105.379 154.324 107.57 152.124 105.386 147.968C103.202 143.813 98.8418 138.754 94.4584 137.01C90.0751 135.266 73.2243 131.095 66.8541 133.507C60.4838 135.918 50.1701 139.862 43.1932 143.805C36.2162 147.749 36.3679 149.061 35.3062 154.096C34.2445 159.132 28.4809 177.325 29.391 179.949C30.301 182.573 34.8739 176.665 37.4979 172.941C40.1218 169.218 46.0446 158.919 48.4562 156.728C50.8678 154.536 59.6269 154.316 61.8185 155.416C64.0102 156.515 74.7107 162.423 78.6845 164.395C82.6583 166.366 96.8852 175.133 96.8852 175.133L98.8569 176.225L96.2102 172.282Z" fill="white" stroke="#263238" stroke-linecap="round" stroke-linejoin="round"/>
<path d="M93.9653 161.111L100.047 147.635L95.118 144.844L93.9653 161.111Z" fill="white" stroke="#263238" stroke-linecap="round" stroke-linejoin="round"/>
<path d="M100.047 147.635L101.852 157.827L97.249 154.21L100.047 147.635Z" fill="white" stroke="#263238" stroke-linecap="round" stroke-linejoin="round"/>
<path d="M99.7141 137.124C99.7141 137.124 96.5972 140.082 96.4303 141.393C96.2635 142.705 93.9657 161.111 93.9657 161.111L89.2032 149.773C89.2032 149.773 70.3048 142.053 68.3027 140.574C66.3006 139.096 69.9484 130.549 69.9484 130.549C69.9484 130.549 63.707 126.757 62.8804 122.002C62.0538 117.247 64.3972 113.296 68.6364 112.97C72.8756 112.644 78.0022 117.733 80.3 120.364C82.5978 122.996 88.8392 129.889 89.825 130.875C90.8109 131.861 99.7141 137.124 99.7141 137.124Z" fill="white" stroke="#263238" stroke-linecap="round" stroke-linejoin="round"/>
<path d="M57.329 126.112C57.329 126.112 56.6692 128.251 59.3008 130.716C61.0677 132.26 63.2282 133.284 65.5421 133.673C65.5421 133.673 64.2301 135.645 65.5421 135.948C66.854 136.252 69.3339 132.824 69.3339 132.824C69.3339 132.824 67.0588 134.963 69.8268 135.099C72.5948 135.236 75.2491 131.482 75.2491 129.184C75.2491 126.886 73.9371 122.442 73.9371 122.442C73.9371 122.442 78.3736 121.456 80.1785 118.339C81.9834 115.222 80.1785 110.612 80.0192 107.495C79.9123 105.565 79.692 103.643 79.3594 101.739C79.3594 101.739 65.2312 114.555 61.4469 118.006C59.2878 119.89 57.5996 122.253 56.5176 124.907L57.329 126.112Z" fill="#263238" stroke="#263238" stroke-linecap="round" stroke-linejoin="round"/>
<path d="M92.5094 92.8204C92.5094 92.8204 97.1354 98.0607 97.7497 100.525C98.364 102.99 98.364 105.144 100.214 105.766C102.065 106.388 105.455 106.994 105.144 109.459C105.05 110.188 104.811 110.892 104.441 111.527C104.071 112.163 103.578 112.718 102.99 113.16C102.99 113.16 105.53 117.619 105.53 119.158C105.53 120.698 103.87 120.516 103.119 120.819C101.629 121.448 100.219 122.249 98.9176 123.208C100.064 123.285 101.214 123.285 102.361 123.208C103.999 123.117 106.486 122.093 106.911 122.753C107.836 124.27 109.8 128.539 110.103 130.39C110.407 132.24 107.639 135.319 103.635 137.162C99.6304 139.005 82.7417 136.563 81.5132 135.948C80.2846 135.334 74.6121 126.09 74.6121 126.09C74.6121 126.09 69.0457 126.894 66.8844 124.118C64.7231 121.342 65.125 116.83 67.2787 115.291C69.4325 113.751 71.5938 114.365 72.2081 115.291C73.3519 116.618 74.5805 117.869 75.8861 119.037L76.1895 117.52L79.276 116.292C78.9306 115.438 78.5172 114.614 78.0399 113.827C77.4256 112.902 77.1147 111.666 77.4256 109.512C77.5913 107.668 77.5913 105.812 77.4256 103.968L92.5094 92.8204Z" fill="white" stroke="#263238" stroke-linecap="round" stroke-linejoin="round"/>
<path d="M102.99 113.16C100.978 114.755 99.0535 116.459 97.2261 118.263C92.676 122.503 92.5622 122.814 93.8363 124.763C95.1103 126.712 95.5274 129.844 95.9521 132.248C96.3768 134.652 97.3626 137.897 100.191 138.178C103.02 138.459 107.676 135.782 109.656 133.939C111.635 132.096 110.642 129.563 109.936 128.433C109.231 127.303 108.662 124.763 107.82 125.324C106.979 125.885 107.396 126.454 107.396 127.023C107.396 127.591 104.286 128.008 102.027 128.289C99.7667 128.57 96.3768 125.604 95.808 124.763C95.2392 123.921 100.616 119.674 101.746 119.113C102.876 118.552 105.697 119.113 105.697 116.838C105.697 114.563 105.219 113.137 102.99 113.16Z" fill="#263238" stroke="#263238" stroke-linecap="round" stroke-linejoin="round"/>
<path d="M99.198 122.078L98.4927 123.769" stroke="#263238" stroke-linecap="round" stroke-linejoin="round"/>
<path d="M97.9319 112.75C97.9319 112.75 97.7878 114.267 99.1983 114.449C100.609 114.631 102.99 113.16 102.99 113.16" stroke="#263238" stroke-linecap="round" stroke-linejoin="round"/>
<path d="M92.1226 109.823C93.2558 109.108 94.4424 108.482 95.6717 107.95" stroke="#263238" stroke-linecap="round" stroke-linejoin="round"/>
<path d="M94.0107 105.735C94.4657 106.683 94.3974 107.662 93.8742 107.912C93.3509 108.162 92.547 107.593 92.0996 106.638C91.6522 105.682 91.7128 104.712 92.2437 104.461C92.7745 104.211 93.5632 104.78 94.0107 105.735Z" fill="#263238"/>
<path d="M89.0288 103.999C89.0288 103.999 89.5976 99.4485 93.6927 100.465" stroke="#263238" stroke-width="2" stroke-linecap="round" stroke-linejoin="round"/>
<path d="M91.2811 86.6625C91.2811 86.6625 89.7643 81.7331 79.2686 80.1937C70.1709 78.9404 60.9087 80.5548 52.7715 84.8121C46.3026 88.202 41.0624 90.6666 40.7514 92.2061C40.4405 93.7456 42.2682 94.9817 42.2682 94.9817C41.8622 100.244 42.7284 105.527 44.7935 110.384C48.1455 118.089 50.6101 119.037 50.6101 119.037C50.6101 119.037 71.8746 94.3599 91.2811 86.6625Z" fill="#858585" stroke="#263238" stroke-linecap="round" stroke-linejoin="round"/>
<path d="M46.6056 122.396C46.6056 122.396 53.6963 129.176 54.9476 129.176C56.1989 129.176 67.271 115.313 73.4365 109.77C79.6019 104.226 94.6706 94.3599 94.6706 94.3599C94.8411 93.1355 94.9424 91.9024 94.9739 90.6666C94.9739 89.1499 92.5093 84.5012 91.2807 83.8869C90.0522 83.2726 67.2482 94.9817 58.3147 103.604C49.3812 112.227 43.8376 120.243 46.6056 122.396Z" fill="#858585" stroke="#263238" stroke-linecap="round" stroke-linejoin="round"/>
<path d="M49.4268 120.774C51.3772 122.149 53.4026 123.415 55.4937 124.565C56.4719 124.945 57.9052 125.02 58.3527 124.717" stroke="#263238" stroke-linecap="round" stroke-linejoin="round"/>
<path d="M47.2427 117.657C47.1214 118.004 47.114 118.381 47.2218 118.733C47.3295 119.085 47.5467 119.393 47.8418 119.613L48.2665 119.947" stroke="#263238" stroke-linecap="round" stroke-linejoin="round"/>
<path d="M58.3682 120.046C58.8241 120.387 59.3379 120.644 59.8849 120.804C60.7873 120.804 62.7439 120.652 62.7439 120.652" stroke="#263238" stroke-linecap="round" stroke-linejoin="round"/>
<path d="M51.0045 112.083C51.0045 112.083 50.557 113.888 51.6112 114.942C53.2421 116.37 54.951 117.707 56.7301 118.946" stroke="#263238" stroke-linecap="round" stroke-linejoin="round"/>
<path d="M60.8931 113.107C62.286 114.231 63.7642 115.245 65.3143 116.14C65.7617 116.14 66.9675 115.988 66.9675 115.988" stroke="#263238" stroke-linecap="round" stroke-linejoin="round"/>
<path d="M55.6758 106.66C55.562 107.234 55.5993 107.827 55.7841 108.381C55.9689 108.936 56.2949 109.433 56.73 109.823C57.1774 110.225 58.0799 110.953 59.1416 111.772" stroke="#263238" stroke-linecap="round" stroke-linejoin="round"/>
<path d="M66.9224 109.588C67.6514 110.246 68.4809 110.784 69.3795 111.18" stroke="#263238" stroke-linecap="round" stroke-linejoin="round"/>
<path d="M60.4912 102.444C60.4912 102.444 61.697 105.303 62.5995 106.061C62.9635 106.357 64.0024 107.244 65.1703 108.192" stroke="#263238" stroke-linecap="round" stroke-linejoin="round"/>
<path d="M66.6949 136.479C66.6949 136.479 79.8373 144.859 82.1352 146.338C84.414 147.64 86.775 148.792 89.2031 149.789L84.1069 163.257C84.1069 163.257 74.5819 155.871 70.3047 150.941C66.0276 146.012 63.8966 139.422 66.6949 136.479Z" fill="white" stroke="#263238" stroke-linecap="round" stroke-linejoin="round"/>
<path d="M102.345 176.885C103.787 178.442 104.839 180.318 105.417 182.36C106.289 185.644 108.556 188.465 109.573 188.935C112.697 190.353 114.396 191.969 113.296 194.63C112.197 197.292 111.112 197.474 111.112 197.474C111.112 197.474 111.324 206.461 110.672 209.525C110.02 212.588 106.729 212.808 103.847 213.028C101.937 213.135 100.022 212.987 98.1517 212.588V224.207C98.1517 224.207 88.7328 222.015 85.6691 221.795C82.6053 221.575 79.314 221.575 79.314 221.575L79.5339 215.22C79.5339 215.22 79.314 215.88 77.5622 216.32C75.8104 216.759 74.2709 216.1 74.9307 215.44C75.3672 214.94 75.6699 214.337 75.8104 213.688C73.1099 212.629 70.594 211.15 68.3557 209.305C64.6321 206.271 67.7035 199.006 73.6187 192.219C79.5339 185.432 83.9173 181.92 91.8194 178.197C99.7215 174.473 102.345 176.885 102.345 176.885Z" fill="white" stroke="#263238" stroke-linecap="round" stroke-linejoin="round"/>
<path d="M90.1891 192.879C89.062 191.002 88.5973 188.802 88.8695 186.63C87.2855 186.568 85.72 186.989 84.38 187.836C82.2111 189.185 72.3069 196.595 67.6202 201.562C66.3462 204.861 66.4068 207.674 68.3786 209.305C70.6169 211.15 73.1328 212.629 75.8333 213.688C75.6928 214.337 75.3901 214.94 74.9536 215.44C74.2938 216.1 75.8333 216.752 77.5851 216.32C79.3369 215.887 79.5568 215.22 79.5568 215.22V216.016C79.5568 216.016 80.209 215.47 80.6489 215.03C81.0887 214.591 82.5144 212.513 82.5144 212.513L82.8405 214.264C83.2782 214.18 83.692 214.001 84.0525 213.739C84.4129 213.477 84.7112 213.138 84.926 212.748C85.7981 211.322 87.2011 206.832 87.2011 206.832C86.3237 207.064 85.4056 207.095 84.5145 206.925C83.6233 206.754 82.7818 206.386 82.0518 205.847C79.4203 203.981 78.4344 199.165 79.7767 198.18C81.119 197.194 82.8102 197.194 84.8123 197.853C86.4798 198.54 88.0605 199.421 89.5217 200.477C89.5207 199.628 89.4111 198.782 89.1956 197.96C88.9509 197.308 88.5769 196.712 88.096 196.208C89.0429 196.324 90.0005 196.324 90.9474 196.208C91.6308 196.065 92.327 195.991 93.0253 195.988C93.0253 195.988 92.047 195.723 90.1891 192.879Z" fill="#263238" stroke="#263238" stroke-linecap="round" stroke-linejoin="round"/>
<path d="M103.945 188.571C104.249 189.663 104.143 190.649 103.703 190.77C103.263 190.892 102.664 190.111 102.361 189.019C102.057 187.927 102.163 186.941 102.596 186.819C103.028 186.698 103.65 187.479 103.945 188.571Z" fill="#263238"/>
<path d="M107.737 201.039C107.737 201.039 103.946 200.705 101.822 199.067C101.822 199.067 101.162 203.01 103.301 203.663C105.44 204.315 107.737 201.039 107.737 201.039Z" fill="#263238" stroke="#263238" stroke-linecap="round" stroke-linejoin="round"/>
<path d="M98.728 185.265C98.728 185.265 99.221 182.14 101.686 182.14" stroke="#263238" stroke-linecap="round" stroke-linejoin="round"/>
<path d="M69.7057 328.261L69.8726 333.085C82.5448 331.985 97.5831 328.883 112.265 326.449C112.265 324.523 112.204 322.816 112.204 322.126C112.204 320.154 113.956 309.424 113.956 309.424C113.956 309.424 89.8554 314.459 80.6565 313.367C75.4732 312.815 70.3888 311.563 65.5423 309.644C65.5423 309.644 64.6626 317.531 65.5423 321.254C66.422 324.978 69.7057 328.261 69.7057 328.261Z" fill="#FC9B5C" stroke="#263238" stroke-linecap="round" stroke-linejoin="round"/>
<path d="M60.2866 300.657V309.644C60.2866 309.644 72.3294 315.339 81.7558 315.779C91.1823 316.219 106.509 313.807 109.573 312.707C112.636 311.608 119.211 307.232 119.211 307.232L117.027 299.785C117.027 299.785 100.154 303.948 90.295 304.168C80.4363 304.388 68.8258 301.757 66.2018 300.657C63.5779 299.557 60.7189 298.685 60.7189 298.685L60.2866 300.657Z" fill="white" stroke="#263238" stroke-linecap="round" stroke-linejoin="round"/>
<path d="M65.7618 246.988C65.7618 246.988 59.4067 297.153 59.4067 300.445C59.4067 303.736 74.0886 310.083 88.9829 309.204C103.877 308.324 116.367 303.948 117.899 301.317C119.431 298.685 116.587 289.047 116.587 288.174C116.587 287.302 106.979 241.512 106.509 240.633C106.038 239.753 104.992 235.597 102.565 232.291C100.138 228.984 83.5075 224.191 76.2727 226.815C69.0379 229.439 66.414 236.234 66.2017 239.306C65.9893 242.377 65.7618 246.988 65.7618 246.988Z" fill="white" stroke="#263238" stroke-linecap="round" stroke-linejoin="round"/>
<path d="M67.7336 225.519C67.7336 225.519 58.0948 235.597 58.5346 238.221C58.9745 240.845 61.3785 248.52 62.6904 249.399C64.0024 250.279 65.102 249.399 66.414 248.52C67.726 247.64 79.1241 234.498 80.876 232.526C82.6278 230.554 96.21 231.874 97.5599 232.094C98.9098 232.313 104.787 238.441 105.447 239.321C106.107 240.2 109.823 243.044 106.539 237.349C103.255 231.654 99.7137 223.107 96.4603 222.015C93.2069 220.923 85.7295 216.1 78.7146 219.163C74.798 220.804 71.1076 222.94 67.7336 225.519V225.519Z" fill="white" stroke="#263238" stroke-linecap="round" stroke-linejoin="round"/>
<path d="M146.414 228.15C146.414 228.15 157.364 217.412 157.789 216.775C158.214 216.138 161.952 213.741 164.136 212.399C166.321 211.057 173.995 209.987 174.215 211.739C174.435 213.491 171.182 213.491 169.839 213.931C168.497 214.371 164.576 217.214 164.576 217.214C166.333 217.191 168.09 217.264 169.839 217.434C170.492 217.654 171.811 223.35 171.811 224.009C171.811 224.669 168.52 227.733 168.08 228.385C167.64 229.037 165.047 229.045 165.047 229.045L164.607 226.201C164.607 226.201 160.883 230.357 159.351 231.017C157.713 231.547 156.026 231.915 154.316 232.116L149.447 234.937L146.414 228.15Z" fill="white" stroke="#263238" stroke-linecap="round" stroke-linejoin="round"/>
<path d="M164.561 226.178L168.505 223.987" stroke="#263238" stroke-linecap="round" stroke-linejoin="round"/>
<path d="M138.929 231.214C138.929 231.214 145.064 226.611 145.944 226.611C146.823 226.611 152.769 234.498 153.171 235.377C153.573 236.257 152.511 238.881 151.859 239.101C151.207 239.321 145.724 243.044 145.724 243.044L138.929 231.214Z" fill="white" stroke="#263238" stroke-linecap="round" stroke-linejoin="round"/>
<path d="M94.4585 235.377C97.7423 236.689 115.928 244.167 115.928 244.167C115.928 244.167 135.645 231.684 137.162 230.804C138.679 229.925 141.765 231.024 142.425 231.464C143.085 231.904 148.992 241.103 147.9 243.514C146.808 245.926 132.346 259.721 126.431 263.444C120.516 267.168 116.572 269.147 112.189 269.359C107.806 269.572 97.0749 265.856 88.968 261.692C80.8611 257.529 75.3857 250.522 75.3857 245.046C75.3857 239.571 83.5078 234.308 87.8836 234.308" fill="white"/>
<path d="M94.4585 235.377C97.7423 236.689 115.928 244.167 115.928 244.167C115.928 244.167 135.645 231.684 137.162 230.804C138.679 229.925 141.765 231.024 142.425 231.464C143.085 231.904 148.992 241.103 147.9 243.514C146.808 245.926 132.346 259.721 126.431 263.444C120.516 267.168 116.572 269.147 112.189 269.359C107.806 269.572 97.0749 265.856 88.968 261.692C80.8611 257.529 75.3857 250.522 75.3857 245.046C75.3857 239.571 83.5078 234.308 87.8836 234.308" stroke="#263238" stroke-linecap="round" stroke-linejoin="round"/>
<path d="M61.3787 222.887C61.3787 222.887 71.2374 223.767 75.6207 222.235C80.5742 220.671 85.6225 219.424 90.7349 218.504C92.4867 218.291 95.7704 223.107 97.5601 224.207C99.3499 225.306 99.7442 228.582 99.5319 229.902C99.3195 231.221 98.6522 231.874 96.4984 232.306C94.3447 232.738 89.2713 231.214 85.9875 232.306C82.7038 233.398 78.9727 236.249 75.9089 236.689C72.8451 237.129 66.7024 236.029 66.7024 236.029L55.5317 235.597C55.5317 235.597 56.9954 225.299 61.3787 222.887Z" fill="white" stroke="#263238" stroke-linecap="round" stroke-linejoin="round"/>
<path d="M81.7559 229.902C81.7559 229.902 86.3515 227.483 87.2616 227.483C88.1716 227.483 94.0489 228.795 94.0489 228.795C94.0489 228.795 98.4322 229.454 98.4322 230.986" fill="white"/>
<path d="M81.7559 229.902C81.7559 229.902 86.3515 227.483 87.2616 227.483C88.1716 227.483 94.0489 228.795 94.0489 228.795C94.0489 228.795 98.4322 229.454 98.4322 230.986" stroke="#263238" stroke-linecap="round" stroke-linejoin="round"/>
<path d="M83.2876 224.639C83.2876 224.639 87.451 223.122 88.543 223.327C89.6351 223.532 94.8981 225.079 96.885 226.831C97.9327 227.695 98.823 228.734 99.5165 229.902" fill="white"/>
<path d="M83.2876 224.639C83.2876 224.639 87.451 223.122 88.543 223.327C89.6351 223.532 94.8981 225.079 96.885 226.831C97.9327 227.695 98.823 228.734 99.5165 229.902" stroke="#263238" stroke-linecap="round" stroke-linejoin="round"/>
<path d="M83.9473 221.795C83.9473 221.795 88.9828 220.695 90.5147 220.915C92.0466 221.135 95.7701 222.887 95.7701 222.887" fill="white"/>
<path d="M83.9473 221.795C83.9473 221.795 88.9828 220.695 90.5147 220.915C92.0466 221.135 95.7701 222.887 95.7701 222.887" stroke="#263238" stroke-linecap="round" stroke-linejoin="round"/>
<path d="M64.4424 182.36L46.9166 212.588C46.9166 212.588 49.9501 215.44 50.6478 216.1C51.3455 216.759 57.2152 219.823 57.2152 219.823C57.2152 219.823 46.9166 230.334 45.6047 233.625C44.9329 235.404 44.0493 237.094 42.9732 238.661L39.9397 239.101C39.9397 239.101 25.2351 233.625 19.7673 231.434C14.2995 229.242 11.8803 222.015 13.4198 216.752C14.9593 211.489 33.1372 177.757 33.1372 177.757C33.1372 177.757 44.088 157.167 49.3434 155.006C54.5988 152.845 62.4858 153.694 66.6492 156.523C70.8126 159.351 71.2525 165.722 71.2525 165.722" fill="#FC9B5C"/>
<path d="M64.4424 182.36L46.9166 212.588C46.9166 212.588 49.9501 215.44 50.6478 216.1C51.3455 216.759 57.2152 219.823 57.2152 219.823C57.2152 219.823 46.9166 230.334 45.6047 233.625C44.9329 235.404 44.0493 237.094 42.9732 238.661L39.9397 239.101C39.9397 239.101 25.2351 233.625 19.7673 231.434C14.2995 229.242 11.8803 222.015 13.4198 216.752C14.9593 211.489 33.1372 177.757 33.1372 177.757C33.1372 177.757 44.088 157.167 49.3434 155.006C54.5988 152.845 62.4858 153.694 66.6492 156.523C70.8126 159.351 71.2525 165.722 71.2525 165.722" stroke="#263238" stroke-linecap="round" stroke-linejoin="round"/>
<path d="M35.6929 204.884C34.9368 204.593 34.1509 204.387 33.3496 204.269Z" fill="white"/>
<path d="M35.6929 204.884C34.9368 204.593 34.1509 204.387 33.3496 204.269" stroke="#263238" stroke-linecap="round" stroke-linejoin="round"/>
<path d="M46.0443 212.376C43.5826 209.747 40.7337 207.509 37.5962 205.74Z" fill="white"/>
<path d="M46.0443 212.376C43.5826 209.747 40.7337 207.509 37.5962 205.74" stroke="#263238" stroke-linecap="round" stroke-linejoin="round"/>
<path d="M29.9751 207.25C31.6504 206.82 33.3841 206.664 35.1092 206.787Z" fill="white"/>
<path d="M29.9751 207.25C31.6504 206.82 33.3841 206.664 35.1092 206.787" stroke="#263238" stroke-linecap="round" stroke-linejoin="round"/>
<path d="M26.1226 208.85C26.6485 208.511 27.2044 208.222 27.7834 207.985Z" fill="white"/>
<path d="M26.1226 208.85C26.6485 208.511 27.2044 208.222 27.7834 207.985" stroke="#263238" stroke-linecap="round" stroke-linejoin="round"/>
<path d="M66.6342 222.447C66.6342 222.447 60.719 228.15 59.2023 232.526C57.6856 236.902 56.1689 243.264 56.1689 243.264C56.1689 243.264 55.0692 243.484 48.7217 241.945C42.3743 240.405 39.9551 239.101 39.9551 239.101C39.9551 239.101 43.4587 226.831 47.6221 222.667C51.7855 218.504 52.6652 217.412 52.6652 217.412L66.6342 222.447Z" fill="#FC9B5C" stroke="#263238" stroke-linecap="round" stroke-linejoin="round"/>
<path d="M99.714 172.501C99.714 172.501 95.7706 167.898 90.2952 167.246C84.8198 166.594 71.0176 167.246 67.0742 168.338C63.1307 169.43 59.627 172.941 59.847 174.033C59.9418 174.395 60.0152 174.762 60.0669 175.133L60.2868 176.445C60.2868 176.445 59.627 182.8 59.1872 189.337C58.7473 195.874 62.9107 201.168 64.0104 202.047C65.11 202.927 78.2448 184.741 86.3517 179.478C94.4586 174.215 99.714 172.501 99.714 172.501Z" fill="#858585" stroke="#263238" stroke-linecap="round" stroke-linejoin="round"/>
<path d="M61.3788 203.609C61.3788 203.609 67.7339 209.085 69.2658 210.617C70.7977 212.149 74.9611 206.021 74.9611 206.021C74.9611 206.021 82.6281 192.879 90.5151 187.176C98.402 181.473 102.126 178.637 103.005 178.189C103.885 177.742 104.977 175.998 103.445 174.686C101.913 173.374 100.374 169.862 97.5299 170.302C94.6861 170.742 83.2879 177.317 76.2958 184.324C69.3037 191.332 64.0331 197.216 62.0613 199.438C60.0896 201.66 61.3788 203.609 61.3788 203.609Z" fill="#858585" stroke="#263238" stroke-linecap="round" stroke-linejoin="round"/>
<path d="M71.8062 205.574C72.246 205.869 72.5645 206.082 72.7769 206.188C73.0574 206.369 73.3917 206.447 73.7234 206.41C74.055 206.372 74.3636 206.222 74.5969 205.983" stroke="#263238" stroke-linecap="round" stroke-linejoin="round"/>
<path d="M69.061 203.632L70.6763 204.777" stroke="#263238" stroke-linecap="round" stroke-linejoin="round"/>
<path d="M63.9038 197.611C63.702 197.987 63.632 198.42 63.7048 198.84C63.7776 199.261 63.9892 199.645 64.3057 199.931C65.2784 200.84 66.3095 201.683 67.3922 202.457" stroke="#263238" stroke-linecap="round" stroke-linejoin="round"/>
<path d="M68.3402 192.772C68.2869 193.199 68.3529 193.631 68.531 194.022C68.7091 194.413 68.9922 194.747 69.3488 194.987C70.5622 195.692 76.6139 201.243 77.3192 201.243C78.0245 201.243 78.9345 200.333 78.9345 200.333" stroke="#263238" stroke-linecap="round" stroke-linejoin="round"/>
<path d="M77.6226 192.553C78.7082 193.322 79.8546 194.001 81.0504 194.585C81.6622 194.517 82.2698 194.416 82.8704 194.282" stroke="#263238" stroke-linecap="round" stroke-linejoin="round"/>
<path d="M73.0801 187.722C73.1082 188.5 73.3936 189.247 73.8915 189.845C74.6846 190.553 75.5343 191.195 76.432 191.764" stroke="#263238" stroke-linecap="round" stroke-linejoin="round"/>
<path d="M84.061 188.958L85.191 189.716" stroke="#263238" stroke-linecap="round" stroke-linejoin="round"/>
<path d="M77.6226 183.384C77.6226 183.384 79.0331 184.999 79.837 185.811C80.2617 186.228 81.6874 187.274 82.9614 188.184" stroke="#263238" stroke-linecap="round" stroke-linejoin="round"/>
<path d="M216.183 296.266C214.56 296.714 213.551 299.573 213.491 301.074C213.491 301.203 213.627 303.243 213.658 303.235C213.688 303.228 216.403 302.136 217.305 301.18C218.064 300.361 218.822 299.11 218.632 297.934C218.595 297.658 218.499 297.392 218.352 297.154C218.205 296.917 218.01 296.712 217.779 296.555C217.548 296.398 217.287 296.291 217.012 296.241C216.737 296.191 216.454 296.2 216.183 296.266V296.266Z" fill="#DBDBDB"/>
<path d="M190.095 313.488C190.095 313.488 191.787 311.054 192.006 309.757C192.204 308.65 192.135 307.186 191.324 306.322C191.141 306.111 190.915 305.942 190.662 305.824C190.409 305.707 190.134 305.643 189.855 305.639C189.576 305.635 189.3 305.689 189.043 305.799C188.786 305.909 188.556 306.072 188.366 306.276C187.259 307.543 187.995 310.493 188.768 311.775C188.837 311.888 190.08 313.511 190.095 313.488Z" fill="#DBDBDB"/>
<path d="M220.347 334.814C221.204 334.093 222.098 332.933 222.038 331.78C222.034 331.497 221.97 331.218 221.85 330.961C221.73 330.705 221.556 330.477 221.341 330.293C221.125 330.109 220.873 329.974 220.601 329.895C220.329 329.817 220.043 329.798 219.763 329.839C218.094 330.097 216.767 332.819 216.532 334.306C216.532 334.404 216.464 335.542 216.449 336.126C216.35 335.655 216.251 335.185 216.16 334.692C216.024 333.987 215.903 333.236 215.774 332.501C215.728 332.121 215.675 331.742 215.63 331.348C215.584 330.954 215.554 330.59 215.516 330.188C215.478 329.619 215.463 329.02 215.448 328.428C216.755 328.301 218.034 327.971 219.239 327.45C220.195 326.866 221.257 325.85 221.378 324.667C221.418 324.388 221.398 324.104 221.32 323.833C221.242 323.563 221.108 323.312 220.926 323.097C220.744 322.882 220.518 322.708 220.264 322.586C220.01 322.465 219.733 322.398 219.452 322.392C217.768 322.392 216.047 324.887 215.584 326.32C215.584 326.365 215.501 326.676 215.432 327.078C215.432 326.502 215.432 325.918 215.432 325.334C215.493 323.673 215.607 321.975 215.713 320.276C215.713 319.927 215.751 319.571 215.774 319.214C216.388 319.138 218.701 318.812 219.672 318.221C220.642 317.629 221.689 316.621 221.81 315.445C221.85 315.167 221.83 314.883 221.753 314.613C221.675 314.343 221.542 314.093 221.36 313.878C221.179 313.663 220.955 313.489 220.702 313.367C220.448 313.245 220.172 313.178 219.892 313.17C218.208 313.17 216.479 315.665 216.016 317.098C216.016 317.151 215.925 317.523 215.842 317.94C215.887 317.015 215.918 316.097 215.925 315.18C215.941 313.611 215.852 312.043 215.66 310.485C215.88 310.485 218.602 310.129 219.687 309.469C220.642 308.885 221.704 307.877 221.818 306.694C221.86 306.415 221.842 306.131 221.766 305.86C221.689 305.588 221.555 305.337 221.374 305.121C221.192 304.906 220.967 304.732 220.712 304.611C220.458 304.489 220.181 304.424 219.899 304.418C218.216 304.418 216.486 306.913 216.031 308.339C215.994 308.445 215.728 309.795 215.645 310.281C215.648 310.263 215.648 310.245 215.645 310.228C215.419 308.702 215.059 307.2 214.568 305.738C214.135 304.432 213.628 303.15 213.051 301.901C212.528 300.74 211.974 299.709 211.474 298.799C211.201 298.314 210.943 297.866 210.715 297.457H210.753C210.753 297.457 210.533 295.432 210.503 295.303C210.147 293.847 208.607 291.231 206.924 291.109C206.645 291.096 206.366 291.142 206.106 291.243C205.846 291.345 205.61 291.5 205.414 291.699C205.218 291.898 205.066 292.136 204.968 292.398C204.87 292.659 204.828 292.939 204.846 293.217C204.846 294.401 205.862 295.493 206.772 296.145C207.682 296.797 210.04 297.313 210.617 297.426C210.867 297.859 211.125 298.321 211.375 298.845C211.853 299.762 212.384 300.801 212.892 301.969C213.028 302.28 213.157 302.621 213.294 302.955C212.953 302.447 212.475 301.757 212.422 301.696C211.436 300.566 208.865 298.958 207.318 299.618C207.064 299.735 206.838 299.904 206.654 300.114C206.47 300.324 206.332 300.571 206.25 300.838C206.168 301.104 206.143 301.386 206.176 301.663C206.21 301.94 206.302 302.207 206.446 302.447C207.022 303.486 208.387 304.001 209.479 304.161C210.571 304.32 212.99 303.668 213.506 303.524C213.787 304.282 214.067 305.04 214.265 305.799C214.726 307.257 215.053 308.755 215.243 310.273H215.152C214.894 309.773 214.325 308.756 214.272 308.643C213.415 307.406 211.034 305.526 209.426 306.011C209.16 306.1 208.916 306.243 208.71 306.432C208.503 306.621 208.339 306.852 208.227 307.108C208.116 307.365 208.059 307.643 208.062 307.923C208.065 308.203 208.127 308.479 208.243 308.734C208.706 309.826 210.01 310.485 211.095 310.766C212.353 311.084 215.159 310.576 215.266 310.561C215.412 312.073 215.463 313.593 215.417 315.111C215.417 316.234 215.311 317.386 215.22 318.509C215.053 318.152 214.31 316.78 214.249 316.681C213.392 315.453 211.011 313.564 209.403 314.057C209.138 314.145 208.894 314.288 208.688 314.476C208.481 314.664 208.317 314.894 208.205 315.15C208.093 315.406 208.037 315.683 208.04 315.963C208.042 316.242 208.104 316.518 208.22 316.772C208.675 317.872 209.987 318.532 211.072 318.805C212.293 319.123 214.985 318.645 215.212 318.607C215.212 319.123 215.137 319.639 215.091 320.162C214.947 321.853 214.795 323.544 214.697 325.228C214.697 325.804 214.651 326.381 214.636 326.957C214.363 326.426 213.878 325.44 213.794 325.395C212.945 324.159 210.564 322.278 208.948 322.763C208.683 322.853 208.44 322.997 208.234 323.186C208.029 323.375 207.865 323.606 207.754 323.863C207.643 324.119 207.588 324.397 207.591 324.676C207.594 324.956 207.656 325.232 207.773 325.486C208.228 326.578 209.54 327.238 210.624 327.518C211.709 327.799 213.984 327.45 214.629 327.344C214.629 328.299 214.629 329.247 214.629 330.18C214.629 330.582 214.666 330.999 214.712 331.386C214.757 331.773 214.803 332.144 214.841 332.539C214.955 333.297 215.061 334.055 215.182 334.814C215.243 335.185 215.311 335.526 215.372 335.891C215.175 335.307 214.856 334.374 214.811 334.321C214.151 332.971 212.088 330.749 210.42 330.984C210.144 331.032 209.882 331.137 209.65 331.293C209.418 331.448 209.221 331.651 209.072 331.888C208.923 332.124 208.826 332.39 208.786 332.666C208.747 332.943 208.766 333.225 208.842 333.494C208.878 333.638 208.929 333.778 208.994 333.911C208.869 334.927 208.946 335.958 209.221 336.945C210.238 337.119 211.254 337.286 212.255 337.445C212.51 337.07 212.724 336.668 212.892 336.247C213.736 336.329 214.584 336.359 215.432 336.338C215.539 336.892 215.637 337.43 215.743 337.953L216.775 338.09C216.653 337.544 216.524 336.975 216.403 336.391C216.866 336.33 219.406 335.61 220.347 334.814Z" fill="#DBDBDB"/>
<path d="M208.008 336.687L207.25 335.807C206.984 335.519 206.764 335.208 206.491 334.897C206.135 334.442 205.794 333.957 205.46 333.471C206.477 332.641 207.36 331.659 208.076 330.559C208.554 329.543 208.88 328.117 208.327 327.063C208.205 326.812 208.032 326.589 207.818 326.409C207.605 326.229 207.356 326.096 207.088 326.019C206.819 325.941 206.538 325.921 206.261 325.96C205.985 325.999 205.719 326.096 205.483 326.244C204.08 327.169 204.012 330.203 204.421 331.651C204.421 331.697 204.55 332 204.694 332.349C204.376 331.864 204.057 331.378 203.754 330.878C202.882 329.46 202.04 327.981 201.198 326.51L200.66 325.592C201.13 325.182 202.882 323.635 203.367 322.604C203.852 321.573 204.171 320.162 203.617 319.108C203.495 318.856 203.321 318.633 203.107 318.453C202.893 318.273 202.643 318.14 202.374 318.063C202.105 317.986 201.823 317.966 201.546 318.005C201.269 318.044 201.003 318.141 200.766 318.289C199.363 319.214 199.302 322.248 199.704 323.696C199.704 323.749 199.863 324.106 200.023 324.5C199.552 323.704 199.075 322.915 198.574 322.149C197.719 320.826 196.779 319.559 195.761 318.357C195.927 318.213 198.036 316.439 198.559 315.324C199.037 314.308 199.355 312.882 198.802 311.828C198.681 311.575 198.508 311.352 198.295 311.171C198.082 310.99 197.832 310.857 197.564 310.779C197.295 310.702 197.013 310.682 196.736 310.722C196.459 310.761 196.194 310.859 195.958 311.009C194.555 311.934 194.486 314.967 194.896 316.416C194.896 316.522 195.45 317.796 195.654 318.243V318.206C194.627 317.057 193.497 316.003 192.28 315.058C191.198 314.205 190.066 313.418 188.89 312.7C187.805 312.025 186.774 311.464 185.856 310.986C185.363 310.728 184.901 310.501 184.469 310.296C184.469 310.296 183.172 308.726 183.073 308.643C181.974 307.619 179.243 306.284 177.765 307.126C177.648 307.187 177.541 307.263 177.446 307.353C177.509 307.256 177.565 307.155 177.613 307.05C177.717 306.83 177.774 306.59 177.78 306.346C177.785 306.102 177.74 305.86 177.646 305.635C177.553 305.41 177.413 305.207 177.236 305.039C177.059 304.872 176.849 304.743 176.619 304.661C175.217 304.214 173.108 305.821 172.342 306.891C172.297 306.959 171.789 307.869 171.584 308.301H171.508C171.695 306.98 172 305.678 172.418 304.411C172.646 303.706 172.896 303.053 173.177 302.416C174.309 302.799 175.493 303.006 176.688 303.031C177.215 302.999 177.728 302.853 178.193 302.603C178.658 302.353 179.063 302.004 179.38 301.582C179.508 301.375 179.592 301.143 179.625 300.901C179.658 300.659 179.64 300.413 179.573 300.178C179.505 299.944 179.388 299.726 179.231 299.54C179.074 299.353 178.879 299.201 178.659 299.095C177.317 298.488 175.042 299.853 174.17 300.839C174.117 300.892 173.692 301.484 173.412 301.923C173.533 301.635 173.654 301.34 173.776 301.074C174.231 300.058 174.708 299.155 175.141 298.359C175.383 297.912 175.618 297.51 175.846 297.131C177.02 296.953 178.158 296.592 179.221 296.061C179.675 295.792 180.065 295.427 180.363 294.99C180.66 294.554 180.858 294.057 180.942 293.536C180.961 293.293 180.929 293.048 180.848 292.818C180.766 292.589 180.637 292.378 180.469 292.202C180.301 292.025 180.098 291.886 179.872 291.793C179.646 291.7 179.404 291.656 179.16 291.663C177.689 291.746 176.309 294.006 175.975 295.28C175.975 295.386 175.702 297.161 175.725 297.153C175.505 297.51 175.27 297.912 175.027 298.321C174.579 299.08 174.079 299.997 173.601 301.013C173.07 302.094 172.604 303.206 172.206 304.343C171.756 305.612 171.418 306.919 171.197 308.248V308.294C171.129 307.869 170.917 306.686 170.886 306.595C170.507 305.336 169.028 303.129 167.565 303.107C167.32 303.108 167.079 303.161 166.856 303.262C166.634 303.364 166.435 303.511 166.273 303.694C166.112 303.877 165.99 304.092 165.918 304.326C165.845 304.559 165.822 304.805 165.851 305.048C165.956 305.567 166.175 306.056 166.49 306.48C166.806 306.905 167.212 307.255 167.678 307.505C168.79 307.992 169.969 308.312 171.174 308.453C170.986 309.813 170.888 311.183 170.879 312.556C170.879 313.314 170.879 314.156 170.879 314.967C170.81 314.596 170.742 314.27 170.735 314.209C170.348 312.95 168.877 310.751 167.405 310.72C167.161 310.723 166.92 310.777 166.697 310.879C166.475 310.981 166.277 311.129 166.116 311.313C165.955 311.497 165.835 311.713 165.763 311.947C165.691 312.18 165.669 312.427 165.699 312.669C165.806 313.187 166.024 313.675 166.338 314.099C166.652 314.523 167.055 314.874 167.519 315.127C168.598 315.607 169.743 315.919 170.917 316.052C170.917 316.363 170.917 316.674 170.917 316.985C170.985 318.501 171.061 319.95 171.091 321.406C171.091 321.914 171.091 322.422 171.091 322.923C171.038 322.596 170.985 322.323 170.97 322.278C170.591 321.019 169.112 318.82 167.64 318.789C167.396 318.793 167.156 318.848 166.934 318.95C166.712 319.053 166.515 319.201 166.354 319.385C166.193 319.568 166.073 319.784 166 320.017C165.928 320.25 165.905 320.496 165.934 320.738C166.041 321.257 166.259 321.745 166.575 322.17C166.891 322.594 167.296 322.945 167.762 323.196C168.807 323.67 169.92 323.977 171.061 324.106C171.061 324.629 171.015 325.145 170.97 325.622C170.97 325.964 170.917 326.297 170.864 326.638C170.81 326.98 170.765 327.306 170.712 327.64V327.746L171.47 327.935C171.47 327.867 171.47 327.806 171.47 327.746C171.516 327.412 171.554 327.071 171.599 326.737C171.645 326.403 171.66 326.039 171.69 325.691C171.743 324.872 171.766 324.037 171.758 323.203C172.906 323.453 174.085 323.524 175.254 323.415C175.776 323.327 176.273 323.126 176.709 322.827C177.145 322.527 177.511 322.135 177.78 321.679C177.894 321.459 177.96 321.217 177.972 320.97C177.985 320.723 177.945 320.475 177.855 320.245C177.764 320.014 177.625 319.806 177.448 319.633C177.27 319.461 177.057 319.328 176.824 319.244C175.421 318.789 173.313 320.405 172.547 321.466C172.502 321.535 172.039 322.361 171.789 322.824C171.789 322.323 171.789 321.815 171.789 321.307C171.728 319.844 171.622 318.357 171.516 316.878C171.516 316.423 171.463 315.968 171.432 315.521C172.62 315.776 173.839 315.856 175.05 315.756C175.57 315.666 176.065 315.464 176.499 315.164C176.934 314.864 177.298 314.474 177.567 314.019C177.674 313.799 177.733 313.559 177.741 313.315C177.748 313.07 177.704 312.827 177.611 312.6C177.518 312.374 177.378 312.17 177.201 312.002C177.023 311.833 176.812 311.704 176.582 311.623C175.179 311.176 173.07 312.783 172.304 313.853C172.251 313.928 171.546 315.127 171.425 315.438C171.372 314.436 171.319 313.443 171.311 312.457C171.288 311.132 171.354 309.807 171.508 308.491C171.599 308.491 174.041 308.991 175.141 308.726C175.885 308.567 176.575 308.217 177.143 307.71C176.938 308.058 176.838 308.458 176.856 308.862C176.873 309.266 177.007 309.656 177.241 309.985C177.924 310.956 179.342 311.32 180.464 311.365C181.587 311.411 183.832 310.538 184.385 310.319C184.825 310.538 185.295 310.781 185.818 311.077C186.721 311.585 187.737 312.154 188.799 312.859C189.079 313.041 189.383 313.253 189.671 313.451C189.11 313.215 188.336 312.912 188.253 312.889C186.812 312.487 183.771 312.563 182.846 313.966C182.699 314.204 182.604 314.47 182.567 314.747C182.53 315.024 182.551 315.306 182.63 315.574C182.709 315.842 182.843 316.091 183.024 316.304C183.204 316.517 183.428 316.689 183.68 316.81C184.734 317.364 186.16 317.03 187.176 316.552C188.192 316.075 189.838 314.209 190.209 313.799C190.854 314.254 191.499 314.732 192.143 315.271C193.333 316.23 194.429 317.299 195.419 318.463L195.359 318.532C194.873 318.259 193.842 317.69 193.728 317.659C192.333 317.098 189.314 316.84 188.238 318.137C188.065 318.358 187.942 318.612 187.874 318.883C187.806 319.154 187.797 319.437 187.845 319.712C187.894 319.987 188 320.249 188.156 320.481C188.313 320.713 188.516 320.909 188.753 321.057C189.739 321.717 191.195 321.542 192.257 321.178C193.478 320.754 195.533 318.782 195.616 318.706C196.57 319.886 197.449 321.125 198.248 322.414C198.847 323.37 199.408 324.363 199.962 325.357C199.621 325.152 198.248 324.417 198.142 324.371C196.746 323.817 193.721 323.56 192.651 324.856C192.478 325.076 192.353 325.329 192.285 325.6C192.217 325.871 192.207 326.153 192.256 326.428C192.304 326.703 192.411 326.965 192.568 327.196C192.725 327.427 192.929 327.622 193.167 327.768C194.153 328.436 195.601 328.261 196.663 327.897C197.861 327.48 199.841 325.622 200.007 325.44L200.766 326.805C201.577 328.322 202.389 329.793 203.23 331.249C203.526 331.75 203.83 332.235 204.133 332.728C203.617 332.432 202.662 331.917 202.571 331.886C201.175 331.325 198.157 331.067 197.08 332.364C196.844 332.651 196.698 333.001 196.66 333.371C196.623 333.741 196.695 334.113 196.868 334.442C198.278 334.761 199.704 335.079 201.145 335.382C202.317 334.767 203.393 333.982 204.338 333.054C204.853 333.858 205.377 334.647 205.93 335.405C206.18 335.724 206.416 336.065 206.689 336.361L206.817 336.505L208.137 336.747L208.008 336.687Z" fill="#DBDBDB"/>
<path d="M168.778 297.404C168.746 297.939 168.831 298.474 169.029 298.972C169.227 299.47 169.532 299.918 169.923 300.285C170.681 301.135 173.077 302.136 173.077 302.136C173.077 302.136 173.259 300.361 173.259 300.247C173.222 298.936 172.38 296.418 170.984 296.008C170.747 295.94 170.498 295.922 170.254 295.957C170.01 295.991 169.776 296.077 169.567 296.209C169.358 296.341 169.18 296.516 169.044 296.722C168.908 296.928 168.817 297.16 168.778 297.404V297.404Z" fill="#DBDBDB"/>
<path d="M168.649 326.07C168.633 325.943 168.602 325.818 168.558 325.698C168.489 325.464 168.372 325.246 168.214 325.061C168.055 324.875 167.859 324.725 167.639 324.62C167.418 324.515 167.178 324.459 166.933 324.454C166.689 324.449 166.447 324.495 166.222 324.591C165.598 324.956 165.139 325.548 164.94 326.244C166.457 326.603 167.974 326.982 169.491 327.382C169.267 326.91 168.984 326.47 168.649 326.07V326.07Z" fill="#DBDBDB"/>
<path d="M175.398 326.403C174.359 326.237 173.123 327.162 172.296 328.132L176.452 329.24C176.58 329.049 176.677 328.839 176.74 328.618C176.811 328.384 176.831 328.138 176.8 327.896C176.769 327.654 176.688 327.421 176.561 327.212C176.435 327.004 176.266 326.824 176.066 326.684C175.865 326.545 175.638 326.449 175.398 326.403V326.403Z" fill="#DBDBDB"/>
<path d="M161.361 325.031L161.642 325.493L162.567 325.706C162.21 325.107 161.809 324.507 161.444 323.916C162.54 323.491 163.563 322.9 164.478 322.164C164.863 321.801 165.164 321.358 165.362 320.867C165.559 320.377 165.648 319.849 165.623 319.32C165.589 319.079 165.504 318.847 165.375 318.64C165.245 318.433 165.074 318.256 164.872 318.119C164.67 317.983 164.441 317.89 164.201 317.847C163.96 317.805 163.714 317.813 163.477 317.872C162.059 318.274 161.202 320.776 161.141 322.088C161.141 322.172 161.209 323.12 161.255 323.605C160.974 323.188 160.694 322.771 160.398 322.361C159.533 321.171 158.623 319.988 157.729 318.812L156.902 317.728C158.037 317.29 159.098 316.682 160.049 315.923C160.437 315.563 160.74 315.123 160.938 314.633C161.136 314.142 161.224 313.614 161.194 313.087C161.161 312.844 161.077 312.612 160.948 312.404C160.819 312.197 160.648 312.019 160.445 311.882C160.243 311.746 160.013 311.653 159.773 311.611C159.532 311.569 159.285 311.578 159.048 311.638C157.63 312.032 156.773 314.543 156.712 315.855C156.712 315.953 156.811 317.311 156.856 317.659C156.257 316.863 155.666 316.059 155.112 315.248C154.367 314.151 153.69 313.009 153.087 311.828C154.228 311.383 155.296 310.773 156.257 310.015C156.642 309.653 156.944 309.213 157.141 308.723C157.339 308.233 157.428 307.706 157.402 307.179C157.368 306.936 157.284 306.704 157.154 306.496C157.024 306.289 156.852 306.111 156.649 305.974C156.445 305.838 156.216 305.745 155.975 305.703C155.733 305.661 155.486 305.671 155.249 305.73C153.838 306.125 152.974 308.635 152.92 309.947C152.92 310.03 152.989 311.069 153.042 311.562H152.958C152.391 310.373 151.927 309.137 151.571 307.869C151.373 307.164 151.222 306.474 151.085 305.806C152.24 305.497 153.342 305.017 154.354 304.381C154.777 304.063 155.125 303.656 155.375 303.19C155.625 302.724 155.771 302.209 155.802 301.681C155.794 301.437 155.734 301.197 155.628 300.977C155.521 300.758 155.37 300.563 155.184 300.405C154.997 300.247 154.78 300.13 154.546 300.061C154.311 299.992 154.065 299.973 153.823 300.005C153.287 300.138 152.811 300.448 152.473 300.885C152.177 300.676 151.819 300.574 151.457 300.596C151.09 300.633 150.739 300.767 150.441 300.983C150.441 300.619 150.395 300.225 150.38 299.937C151.258 299.139 152.008 298.211 152.602 297.184C152.827 296.711 152.948 296.195 152.956 295.672C152.964 295.148 152.858 294.629 152.647 294.15C152.528 293.938 152.365 293.753 152.169 293.607C151.974 293.462 151.75 293.358 151.512 293.304C151.274 293.25 151.028 293.246 150.789 293.292C150.549 293.339 150.322 293.435 150.122 293.574C148.947 294.461 149.038 297.108 149.462 298.352C149.462 298.458 150.274 300.073 150.289 300.05C150.289 300.376 150.289 300.733 150.334 301.097C149.714 301.585 149.198 302.194 148.818 302.887C147.87 302.128 146.619 301.461 145.671 301.749C145.44 301.828 145.228 301.955 145.05 302.121C144.871 302.288 144.729 302.489 144.633 302.714C144.538 302.938 144.49 303.18 144.494 303.424C144.497 303.668 144.552 303.909 144.654 304.13C144.916 304.591 145.275 304.988 145.708 305.294C146.141 305.599 146.635 305.805 147.157 305.897C147.431 305.959 147.711 305.989 147.991 305.988C147.991 306.079 147.991 306.148 147.991 306.14C147.771 306.496 147.544 306.898 147.293 307.3C146.846 308.059 146.345 308.984 145.868 309.992C145.34 311.074 144.877 312.186 144.48 313.322C144.027 314.591 143.69 315.898 143.471 317.227C143.468 317.242 143.468 317.258 143.471 317.273C143.411 316.848 143.191 315.665 143.16 315.574C142.781 314.315 141.31 312.116 139.839 312.086C139.594 312.088 139.352 312.142 139.13 312.244C138.907 312.346 138.709 312.494 138.547 312.678C138.386 312.862 138.264 313.077 138.192 313.311C138.119 313.545 138.096 313.791 138.125 314.035C138.234 314.552 138.454 315.039 138.77 315.463C139.085 315.887 139.489 316.238 139.953 316.492C141.066 316.981 142.247 317.298 143.456 317.432C143.261 318.791 143.162 320.162 143.16 321.535C143.16 322.111 143.16 322.687 143.16 323.271H143.608C143.608 322.687 143.562 322.111 143.555 321.535C143.536 320.207 143.601 318.88 143.752 317.561C144.944 317.822 146.168 317.903 147.384 317.804C147.906 317.714 148.402 317.513 148.838 317.213C149.274 316.913 149.64 316.522 149.91 316.067C150.015 315.846 150.073 315.606 150.079 315.361C150.086 315.117 150.041 314.873 149.947 314.647C149.853 314.421 149.713 314.218 149.536 314.049C149.358 313.881 149.147 313.752 148.916 313.67C147.513 313.223 145.413 314.831 144.647 315.9C144.594 315.968 144.086 316.878 143.888 317.318H143.805C143.995 315.997 144.302 314.695 144.723 313.428C144.943 312.73 145.193 312.07 145.481 311.433C145.602 311.471 145.845 311.547 146.148 311.623C146.211 311.8 146.3 311.966 146.414 312.116C146.789 312.489 147.242 312.775 147.739 312.955C148.237 313.134 148.768 313.202 149.296 313.155C150.494 312.95 151.654 312.566 152.738 312.017C153.329 313.253 154 314.449 154.748 315.597C155.18 316.272 155.643 316.931 156.106 317.591L155.582 317.053C154.566 316.219 152.124 315.187 150.881 315.983C150.678 316.12 150.507 316.298 150.379 316.506C150.25 316.713 150.166 316.945 150.134 317.187C150.101 317.429 150.119 317.675 150.188 317.909C150.256 318.144 150.373 318.361 150.532 318.547C150.906 318.919 151.357 319.204 151.854 319.384C152.35 319.563 152.88 319.632 153.406 319.586C154.572 319.397 155.7 319.026 156.75 318.486L157.296 319.244C158.176 320.443 159.056 321.633 159.882 322.832C160.17 323.256 160.443 323.681 160.716 324.106L160.261 323.643C159.245 322.809 156.803 321.777 155.56 322.566C155.281 322.739 155.061 322.99 154.926 323.289C154.791 323.587 154.747 323.919 154.801 324.242C156.722 324.566 158.689 324.95 160.701 325.395L161.361 325.031ZM146.072 310C146.528 308.984 147.005 308.081 147.438 307.285C147.688 306.838 147.923 306.436 148.143 306.064L148.977 305.89C149.948 305.806 150.858 305.639 150.858 305.639C150.825 305.55 150.785 305.464 150.736 305.382L150.812 305.344C150.944 306.212 151.121 307.072 151.343 307.922L151.464 308.362C151.325 308.219 151.161 308.103 150.979 308.021C149.781 307.482 147.832 308.521 146.808 309.446C146.522 309.625 146.301 309.891 146.179 310.205L145.731 310.834C145.83 310.569 145.951 310.273 146.072 310ZM151.601 310.652C151.639 310.606 151.674 310.558 151.707 310.508C151.814 310.315 151.886 310.104 151.919 309.886C152.132 310.501 152.374 311.122 152.678 311.737V311.782C152.481 311.524 151.859 310.902 151.601 310.652Z" fill="#DBDBDB"/>
<path d="M9.90869 298.177C10.5407 299.623 11.1903 301.011 11.8577 302.341C12.8587 302.265 13.8218 302.083 13.8218 302.083C13.8218 302.083 13.0028 300.505 12.9346 300.414C12.168 299.387 11.1154 298.609 9.90869 298.177V298.177Z" fill="#DBDBDB"/>
<path d="M31.7649 293.847C31.732 294.374 31.814 294.902 32.0052 295.394C32.1963 295.887 32.4921 296.332 32.8721 296.698C33.6305 297.548 36.0345 298.549 36.0345 298.549C36.0345 298.549 36.2165 296.774 36.2165 296.66C36.2165 295.348 35.3368 292.869 33.9414 292.421C33.7041 292.356 33.4557 292.343 33.2127 292.381C32.9698 292.419 32.7377 292.509 32.5319 292.644C32.3261 292.778 32.1513 292.955 32.0191 293.163C31.8869 293.37 31.8002 293.603 31.7649 293.847Z" fill="#DBDBDB"/>
<path d="M37.4902 327.162C37.9927 326.996 38.4526 326.721 38.8378 326.359C39.223 325.996 39.524 325.553 39.7198 325.061C39.7912 324.827 39.8124 324.581 39.7821 324.339C39.7518 324.096 39.6707 323.863 39.544 323.654C39.4173 323.445 39.2479 323.265 39.0469 323.126C38.8459 322.987 38.6178 322.892 38.3775 322.847C36.929 322.619 35.0862 324.53 34.4947 325.698C34.4947 325.744 34.3506 326.062 34.2217 326.411C34.8739 326.767 35.5336 327.101 36.2086 327.427C36.6457 327.396 37.0767 327.307 37.4902 327.162V327.162Z" fill="#DBDBDB"/>
<path d="M14.4589 306.974L14.3452 306.898C14.6788 307.452 15.0125 308.006 15.3538 308.544L15.7254 308.37C16.317 309.607 16.9909 310.802 17.7426 311.949C17.9474 312.268 18.1673 312.571 18.3796 312.889C19.655 314.561 21.0301 316.154 22.4976 317.66C21.906 316.863 21.3069 316.075 20.7002 315.286L19.8812 314.201C21.0166 313.77 22.0802 313.169 23.036 312.419C23.4206 312.056 23.722 311.613 23.9197 311.123C24.1173 310.632 24.2065 310.104 24.1811 309.575C24.1498 309.333 24.0675 309.099 23.9397 308.891C23.812 308.682 23.6415 308.503 23.4396 308.365C23.2377 308.226 23.0089 308.132 22.7681 308.089C22.5273 308.045 22.2801 308.053 22.0425 308.112C20.6244 308.506 19.7675 311.016 19.7068 312.328C19.7068 312.427 19.8054 313.784 19.8509 314.133C19.2442 313.337 18.6602 312.533 18.1066 311.722C17.3584 310.626 16.682 309.484 16.0818 308.301C16.1652 308.263 18.4782 307.315 19.2442 306.489C19.6319 306.129 19.9355 305.689 20.1335 305.199C20.3314 304.708 20.4188 304.18 20.3893 303.653C20.3561 303.411 20.2724 303.18 20.1438 302.973C20.0152 302.766 19.8445 302.588 19.6428 302.452C19.4411 302.315 19.2129 302.223 18.9731 302.18C18.7333 302.137 18.4872 302.145 18.2507 302.204C16.8326 302.598 15.9756 305.109 15.915 306.421C15.915 306.504 15.9908 307.543 16.0363 308.036H15.9605C15.3857 306.829 14.9212 305.573 14.5727 304.282C14.3755 303.577 14.2162 302.887 14.0873 302.219C15.2401 301.912 16.3396 301.431 17.3483 300.794C17.7722 300.477 18.1215 300.071 18.3718 299.604C18.622 299.138 18.7671 298.622 18.7968 298.094C18.7893 297.85 18.7308 297.611 18.6251 297.391C18.5194 297.171 18.3688 296.976 18.183 296.818C17.9972 296.66 17.7803 296.543 17.5464 296.474C17.3125 296.405 17.0668 296.386 16.825 296.418C15.3765 296.66 14.2314 299.057 14.0418 300.354C14.0418 300.43 14.0418 301.158 13.9887 301.688C13.9357 301.385 13.8674 301.074 13.8219 300.778C13.6399 299.679 13.5413 298.663 13.4655 297.745C13.42 297.229 13.3972 296.767 13.3745 296.334C14.2515 295.531 15.003 294.6 15.604 293.574C15.8288 293.101 15.9493 292.586 15.9571 292.062C15.965 291.539 15.8601 291.02 15.6495 290.54C15.5311 290.327 15.3691 290.14 15.1739 289.993C14.9788 289.846 14.7549 289.742 14.5168 289.687C14.2787 289.631 14.0317 289.627 13.7918 289.674C13.5519 289.72 13.3245 289.816 13.1242 289.957C11.9412 290.844 12.0397 293.491 12.4644 294.734C12.4644 294.84 13.2683 296.456 13.291 296.433C13.291 296.85 13.291 297.298 13.3441 297.783C13.4048 298.693 13.4806 299.709 13.6399 300.816C13.7987 302.009 14.0266 303.192 14.3224 304.358C14.6427 305.659 15.0818 306.929 15.6344 308.15V308.195C15.3765 307.907 14.5423 307.035 14.4589 306.974Z" fill="#DBDBDB"/>
<path d="M26.4559 314.323C25.0453 314.717 24.1808 317.22 24.1201 318.532C24.1201 318.585 24.1201 318.911 24.1732 319.29C24.4614 319.555 24.7571 319.828 25.0529 320.086C25.9278 319.723 26.7413 319.227 27.4645 318.615C27.8485 318.253 28.1496 317.812 28.3473 317.322C28.5449 316.833 28.6344 316.306 28.6096 315.779C28.5765 315.536 28.4924 315.302 28.363 315.094C28.2335 314.885 28.0615 314.707 27.8583 314.569C27.655 314.432 27.425 314.339 27.1834 314.296C26.9417 314.254 26.6938 314.263 26.4559 314.323Z" fill="#DBDBDB"/>
<path d="M33.0688 325.63C32.8561 324.495 32.3634 323.432 31.6355 322.536C31.6159 322.409 31.5854 322.285 31.5444 322.164C31.4752 321.929 31.3571 321.712 31.1979 321.526C31.0387 321.34 30.842 321.19 30.6208 321.086C30.3995 320.981 30.1587 320.925 29.914 320.92C29.6694 320.915 29.4264 320.961 29.2011 321.057C28.6465 321.373 28.2259 321.879 28.0181 322.483C29.6335 323.687 31.3229 324.789 33.0763 325.782C33.0712 325.731 33.0686 325.681 33.0688 325.63V325.63Z" fill="#DBDBDB"/>
<path d="M33.8959 323.036C33.8504 323.37 33.7973 323.704 33.7518 324.037C33.6304 324.667 33.5167 325.319 33.3878 325.933L34.1461 326.328L34.1916 326.1C34.313 325.463 34.4116 324.826 34.5253 324.143C34.5253 323.81 34.6087 323.469 34.6542 323.135C34.6997 322.801 34.7073 322.437 34.7452 322.088C34.7983 321.269 34.8135 320.435 34.8135 319.601C35.961 319.851 37.1402 319.922 38.3095 319.813C38.8309 319.726 39.3268 319.526 39.7619 319.225C40.197 318.925 40.5608 318.533 40.8273 318.077C40.9341 317.857 40.9931 317.617 41.0006 317.373C41.008 317.129 40.9638 316.887 40.8706 316.661C40.7775 316.435 40.6376 316.232 40.4602 316.064C40.2829 315.896 40.072 315.768 39.8414 315.688C38.4385 315.233 36.3302 316.848 35.5643 317.91C35.5188 317.978 35.0562 318.805 34.8059 319.267C34.8059 318.767 34.8059 318.259 34.8059 317.75C34.7377 316.287 34.6315 314.8 34.5329 313.322C34.5329 312.867 34.4722 312.412 34.4495 311.964C35.6367 312.223 36.8561 312.302 38.0669 312.199C38.5866 312.107 39.0804 311.905 39.5148 311.605C39.9493 311.305 40.3141 310.916 40.5846 310.463C40.6901 310.242 40.7479 310.001 40.7543 309.757C40.7607 309.512 40.7156 309.269 40.6219 309.043C40.5282 308.817 40.388 308.613 40.2105 308.445C40.0329 308.277 39.8219 308.148 39.5912 308.066C38.1958 307.619 36.0875 309.226 35.3216 310.296C35.2609 310.372 34.5632 311.57 34.4419 311.881C34.3812 310.88 34.3357 309.886 34.3206 308.908C34.3011 307.581 34.367 306.253 34.5177 304.934C34.6087 304.934 37.0582 305.435 38.1579 305.169C38.6789 305.081 39.1743 304.88 39.6093 304.58C40.0443 304.28 40.4083 303.888 40.6756 303.433C40.7801 303.209 40.8359 302.967 40.8393 302.72C40.8427 302.474 40.7936 302.23 40.6953 302.004C40.5971 301.778 40.4518 301.575 40.2693 301.41C40.0868 301.244 39.8711 301.12 39.6367 301.044C38.2337 300.596 36.1255 302.204 35.3595 303.273C35.3064 303.342 34.7983 304.252 34.6012 304.684H34.5177C34.7073 303.362 35.0144 302.06 35.4353 300.794C35.6553 300.088 35.9131 299.436 36.1937 298.799C37.3233 299.182 38.5049 299.389 39.6973 299.413C40.2128 299.381 40.7154 299.239 41.1717 298.997C41.628 298.755 42.0276 298.419 42.344 298.01C42.4713 297.8 42.5529 297.566 42.5834 297.323C42.614 297.079 42.5927 296.832 42.5211 296.597C42.4496 296.362 42.3292 296.145 42.168 295.96C42.0068 295.775 41.8084 295.626 41.5857 295.523C40.2434 294.916 37.9683 296.281 37.0886 297.267C37.0431 297.32 36.6184 297.912 36.3302 298.352C36.4516 298.063 36.5653 297.768 36.6942 297.502C37.1417 296.486 37.627 295.584 38.0517 294.787C38.302 294.34 38.537 293.938 38.757 293.559C39.9334 293.381 41.0747 293.021 42.1393 292.489C42.5928 292.219 42.9818 291.853 43.2792 291.417C43.5765 290.981 43.775 290.485 43.8607 289.964C43.8801 289.72 43.8478 289.475 43.7658 289.245C43.6839 289.014 43.5542 288.804 43.3852 288.627C43.2162 288.45 43.0118 288.311 42.7853 288.219C42.5589 288.126 42.3155 288.083 42.071 288.091C40.6074 288.174 39.2196 290.434 38.8935 291.708C38.8935 291.815 38.6129 293.589 38.6432 293.581C38.4233 293.938 38.1882 294.34 37.9379 294.749C37.4905 295.508 36.99 296.433 36.5122 297.442C35.9864 298.524 35.523 299.635 35.1244 300.771C34.6941 302.027 34.3768 303.318 34.1765 304.631C34.18 304.646 34.18 304.661 34.1765 304.676C34.1158 304.252 33.8959 303.069 33.8731 302.978C33.4939 301.719 32.0151 299.512 30.5439 299.489C30.3001 299.492 30.0596 299.546 29.838 299.647C29.6164 299.749 29.4187 299.896 29.2577 300.079C29.0967 300.262 28.9761 300.477 28.9038 300.71C28.8314 300.943 28.8088 301.188 28.8376 301.431C28.9432 301.948 29.1608 302.436 29.4753 302.861C29.7897 303.285 30.1933 303.636 30.6577 303.888C31.7762 304.379 32.9625 304.699 34.1765 304.836C33.9885 306.195 33.8897 307.566 33.8807 308.938C33.8807 309.697 33.8807 310.538 33.8807 311.35C33.8125 310.978 33.7518 310.652 33.7366 310.592C33.3574 309.386 31.9014 307.149 30.3847 307.111C30.1399 307.113 29.8984 307.167 29.6758 307.269C29.4533 307.371 29.2548 307.519 29.0931 307.703C28.9314 307.887 28.8103 308.103 28.7375 308.336C28.6648 308.57 28.642 308.817 28.6708 309.06C28.7801 309.577 29 310.064 29.3155 310.488C29.631 310.912 30.0345 311.263 30.4984 311.517C31.5874 311.993 32.7438 312.298 33.9262 312.419C33.9262 312.73 33.9262 313.041 33.9262 313.352C33.9945 314.869 34.0703 316.317 34.1006 317.773C34.1006 318.281 34.1006 318.789 34.1006 319.29L33.9793 318.645C33.5925 317.386 32.1213 315.187 30.6501 315.157C30.4056 315.159 30.1643 315.213 29.9421 315.315C29.7199 315.418 29.5218 315.566 29.3607 315.749C29.1997 315.933 29.0792 316.149 29.0074 316.383C28.9355 316.617 28.9139 316.863 28.9438 317.106C29.0503 317.623 29.2683 318.111 29.5827 318.535C29.897 318.96 30.3001 319.31 30.7638 319.563C31.8115 320.038 32.9273 320.345 34.0703 320.473C34.0703 320.996 34.0248 321.512 33.9793 321.99C33.9717 322.392 33.9565 322.725 33.8959 323.036Z" fill="#DBDBDB"/>
<path d="M225.155 305.943C225.124 306.423 225.199 306.904 225.375 307.352C225.55 307.801 225.822 308.205 226.171 308.536C227.05 309.238 228.029 309.805 229.075 310.22C229.075 310.22 229.242 308.605 229.235 308.506C229.235 307.308 228.438 305.018 227.149 304.646C226.932 304.584 226.705 304.57 226.482 304.603C226.259 304.637 226.046 304.718 225.857 304.84C225.668 304.963 225.507 305.125 225.386 305.315C225.265 305.506 225.186 305.72 225.155 305.943V305.943Z" fill="#DBDBDB"/>
<path d="M246.207 315.68C246.547 316.743 247.042 317.75 247.678 318.668C247.678 318.668 248.702 317.417 248.755 317.326C249.392 316.31 250.014 313.981 249.149 312.958C249 312.792 248.819 312.66 248.615 312.569C248.412 312.479 248.192 312.432 247.97 312.432C247.747 312.432 247.527 312.479 247.324 312.569C247.121 312.66 246.939 312.792 246.791 312.958C246.503 313.343 246.303 313.785 246.202 314.255C246.101 314.725 246.103 315.211 246.207 315.68Z" fill="#DBDBDB"/>
<path d="M257.544 313.731C256.391 313.064 254.2 314.088 253.312 314.884C253.236 314.96 252.16 316.173 252.182 316.188C251.833 316.348 251.462 316.522 251.067 316.719C250.309 317.098 249.498 317.523 248.633 318.054C247.688 318.609 246.777 319.219 245.903 319.881C244.924 320.62 244.012 321.445 243.181 322.346V322.346C243.347 321.99 243.78 320.981 243.802 320.898C244.144 319.753 244.128 317.341 243.044 316.583C242.857 316.462 242.647 316.382 242.427 316.349C242.207 316.315 241.982 316.328 241.768 316.386C241.553 316.445 241.353 316.548 241.181 316.689C241.009 316.83 240.869 317.006 240.769 317.204C240.592 317.652 240.515 318.133 240.542 318.614C240.57 319.094 240.702 319.563 240.928 319.988C241.527 320.917 242.264 321.751 243.112 322.46C242.289 323.397 241.529 324.387 240.837 325.425C240.428 326.024 240.041 326.646 239.654 327.276C239.783 326.957 239.904 326.684 239.912 326.638C240.253 325.493 240.238 323.082 239.154 322.323C238.967 322.203 238.757 322.122 238.538 322.088C238.318 322.054 238.094 322.066 237.879 322.124C237.665 322.182 237.465 322.284 237.292 322.424C237.12 322.565 236.979 322.739 236.879 322.938C236.7 323.385 236.621 323.865 236.648 324.346C236.674 324.827 236.804 325.296 237.03 325.721C237.608 326.628 238.322 327.441 239.146 328.132L238.714 328.891C238.016 330.051 237.334 331.211 236.621 332.334C236.378 332.728 236.113 333.092 235.862 333.486C235.984 333.213 236.075 332.978 236.09 332.94C236.431 331.795 236.416 329.384 235.331 328.625C235.145 328.505 234.935 328.424 234.716 328.39C234.496 328.356 234.272 328.368 234.057 328.426C233.843 328.484 233.643 328.586 233.47 328.726C233.298 328.867 233.157 329.041 233.056 329.24C232.881 329.688 232.805 330.168 232.832 330.649C232.86 331.129 232.99 331.598 233.216 332.023C233.772 332.908 234.463 333.701 235.263 334.374C234.99 334.761 234.71 335.132 234.429 335.496C234.148 335.86 234.05 335.982 233.838 336.217L233.216 336.899C232.806 337.324 232.389 337.764 231.98 338.166C231.699 338.454 231.426 338.712 231.153 338.985C231.403 338.59 231.911 337.817 231.911 337.748C232.326 336.781 232.485 335.724 232.374 334.677C232.425 334.573 232.466 334.464 232.495 334.351C232.56 334.138 232.579 333.914 232.551 333.694C232.523 333.473 232.45 333.26 232.334 333.07C232.219 332.88 232.065 332.716 231.883 332.589C231.7 332.462 231.493 332.375 231.274 332.334C229.955 332.121 228.279 333.851 227.74 334.927C227.702 334.996 227.437 335.686 227.27 336.171C227.331 335.891 227.384 335.61 227.437 335.322C227.543 334.745 227.634 334.161 227.74 333.54L227.854 332.622C227.9 332.319 227.907 331.985 227.937 331.666C227.983 330.908 227.998 330.15 227.998 329.391C229.041 329.617 230.113 329.681 231.176 329.581C231.647 329.499 232.094 329.315 232.487 329.042C232.88 328.77 233.208 328.416 233.451 328.004C233.546 327.802 233.599 327.584 233.605 327.361C233.611 327.138 233.57 326.917 233.485 326.711C233.4 326.505 233.272 326.32 233.111 326.166C232.95 326.012 232.758 325.894 232.548 325.819C231.274 325.418 229.356 326.881 228.658 327.852C228.612 327.913 228.195 328.671 227.968 329.088C227.968 328.625 227.968 328.17 227.968 327.708C227.907 326.373 227.809 325.023 227.718 323.673C227.718 323.256 227.664 322.847 227.642 322.437C228.722 322.675 229.831 322.746 230.933 322.65C231.404 322.564 231.85 322.378 232.243 322.105C232.635 321.831 232.965 321.476 233.208 321.065C233.304 320.864 233.356 320.646 233.362 320.423C233.368 320.201 233.327 319.981 233.241 319.775C233.156 319.57 233.029 319.385 232.868 319.232C232.707 319.079 232.515 318.962 232.306 318.888C231.032 318.479 229.113 319.95 228.415 320.92C228.362 320.989 227.755 322.081 227.619 322.361C227.566 321.451 227.513 320.549 227.505 319.654C227.485 318.445 227.546 317.237 227.687 316.037C228.772 316.275 229.887 316.349 230.994 316.257C231.464 316.171 231.911 315.985 232.304 315.712C232.696 315.438 233.025 315.083 233.269 314.672C233.363 314.47 233.414 314.252 233.419 314.03C233.423 313.807 233.382 313.587 233.296 313.382C233.21 313.177 233.082 312.992 232.921 312.839C232.76 312.687 232.568 312.569 232.359 312.495C231.085 312.086 229.166 313.557 228.476 314.527C228.43 314.588 227.968 315.415 227.718 315.817H227.642C227.816 314.612 228.095 313.424 228.476 312.268C228.673 311.631 228.908 311.031 229.143 310.455C230.172 310.806 231.249 310.993 232.336 311.009C232.816 310.98 233.283 310.847 233.706 310.619C234.129 310.391 234.498 310.074 234.785 309.689C234.906 309.5 234.985 309.288 235.016 309.066C235.048 308.844 235.032 308.618 234.97 308.402C234.908 308.187 234.8 307.988 234.654 307.817C234.509 307.647 234.329 307.509 234.126 307.414C232.905 306.868 230.842 308.112 230.038 309.007C230.038 309.052 229.606 309.591 229.333 309.992C229.447 309.735 229.553 309.462 229.667 309.234C230.076 308.309 230.508 307.482 230.903 306.762C231.13 306.352 231.342 306.003 231.54 305.647C232.609 305.478 233.647 305.148 234.619 304.669C235.028 304.424 235.381 304.095 235.651 303.702C235.922 303.31 236.105 302.863 236.188 302.394C236.204 302.172 236.174 301.949 236.098 301.74C236.023 301.531 235.905 301.34 235.751 301.179C235.598 301.018 235.412 300.892 235.207 300.807C235.001 300.722 234.78 300.681 234.558 300.687C233.223 300.771 231.964 302.834 231.661 303.986C231.661 304.085 231.411 305.7 231.433 305.693C231.229 306.011 231.024 306.36 230.796 306.747C230.387 307.467 229.932 308.263 229.5 309.196C229.018 310.18 228.597 311.193 228.241 312.23C227.827 313.385 227.52 314.575 227.323 315.786C227.32 315.801 227.32 315.817 227.323 315.832C227.263 315.445 227.065 314.368 227.043 314.315C226.694 313.17 225.351 311.16 224.009 311.138C223.787 311.14 223.567 311.19 223.365 311.283C223.163 311.376 222.983 311.511 222.836 311.678C222.689 311.845 222.579 312.042 222.514 312.254C222.448 312.467 222.428 312.691 222.454 312.912C222.554 313.384 222.755 313.828 223.043 314.214C223.331 314.6 223.699 314.919 224.123 315.149C225.135 315.594 226.209 315.883 227.308 316.006C227.134 317.242 227.046 318.489 227.043 319.737C227.043 320.496 227.043 321.201 227.043 321.937C226.982 321.603 226.921 321.3 226.914 321.262C226.565 320.117 225.223 318.107 223.88 318.092C223.658 318.093 223.439 318.142 223.237 318.234C223.034 318.326 222.854 318.46 222.707 318.627C222.56 318.794 222.451 318.99 222.385 319.202C222.319 319.414 222.299 319.638 222.326 319.859C222.424 320.33 222.623 320.774 222.91 321.16C223.197 321.546 223.564 321.866 223.986 322.096C224.968 322.535 226.012 322.819 227.08 322.938C227.08 323.218 227.081 323.499 227.118 323.787C227.179 325.137 227.247 326.487 227.278 327.806C227.278 328.277 227.278 328.739 227.278 329.194C227.217 328.898 227.172 328.648 227.164 328.61C226.815 327.473 225.473 325.463 224.13 325.44C223.908 325.443 223.688 325.492 223.486 325.586C223.284 325.679 223.104 325.813 222.957 325.981C222.811 326.148 222.701 326.345 222.635 326.557C222.569 326.77 222.549 326.994 222.576 327.215C222.673 327.685 222.872 328.128 223.159 328.514C223.446 328.899 223.814 329.216 224.237 329.444C225.198 329.88 226.221 330.162 227.27 330.279C227.27 330.749 227.232 331.219 227.187 331.674C227.187 331.985 227.141 332.288 227.088 332.599L226.952 333.517C226.845 334.093 226.739 334.692 226.618 335.253C226.542 335.64 226.459 336.012 226.375 336.391C226.375 335.921 226.375 335.018 226.33 334.943C226.163 333.752 225.139 331.568 223.82 331.34C223.6 331.311 223.376 331.327 223.163 331.389C222.949 331.451 222.751 331.556 222.581 331.699C222.411 331.842 222.273 332.019 222.176 332.218C222.078 332.418 222.023 332.635 222.015 332.857C222.038 333.338 222.168 333.808 222.393 334.234C222.618 334.66 222.934 335.031 223.319 335.322C224.257 335.915 225.28 336.362 226.352 336.649C226.216 337.263 226.072 337.862 225.928 338.431C225.875 338.659 225.814 338.878 225.761 339.091L226.58 339.159C226.618 338.977 226.663 338.795 226.701 338.613C226.845 337.984 226.989 337.309 227.126 336.619C227.799 336.644 228.472 336.628 229.143 336.573C229.6 337.536 230.187 338.431 230.887 339.235L230.721 339.387C233.034 339.493 235.377 339.531 237.751 339.515C237.76 339.299 237.721 339.084 237.637 338.885C237.553 338.685 237.426 338.507 237.265 338.363C236.279 337.46 233.929 337.991 232.89 338.583C232.829 338.583 232.199 339.068 231.813 339.341L232.419 338.719C232.829 338.295 233.223 337.862 233.656 337.4L234.255 336.694C234.459 336.467 234.649 336.194 234.854 335.936C235.301 335.344 235.733 334.723 236.151 334.086C236.898 334.85 237.757 335.497 238.699 336.004C239.14 336.197 239.619 336.292 240.101 336.281C240.583 336.271 241.056 336.156 241.489 335.944C241.68 335.829 241.844 335.676 241.972 335.494C242.099 335.311 242.186 335.104 242.228 334.886C242.269 334.667 242.264 334.443 242.213 334.226C242.161 334.01 242.065 333.807 241.929 333.631C241.095 332.584 238.683 332.758 237.569 333.183C237.5 333.183 236.734 333.6 236.317 333.828C236.56 333.449 236.81 333.069 237.076 332.667C237.766 331.522 238.426 330.339 239.093 329.164C239.298 328.8 239.502 328.405 239.715 328.087C240.484 328.88 241.369 329.553 242.339 330.081C242.78 330.274 243.258 330.368 243.74 330.359C244.222 330.35 244.695 330.237 245.13 330.028C245.32 329.913 245.484 329.759 245.612 329.576C245.739 329.394 245.826 329.186 245.869 328.967C245.911 328.749 245.907 328.524 245.856 328.307C245.806 328.09 245.711 327.886 245.577 327.708C244.735 326.669 242.324 326.836 241.209 327.26C241.125 327.26 240.026 327.867 239.753 328.019C240.2 327.26 240.663 326.456 241.148 325.744C241.798 324.724 242.515 323.749 243.294 322.824C244.068 323.621 244.958 324.296 245.933 324.826C246.373 325.022 246.85 325.119 247.331 325.11C247.812 325.101 248.285 324.986 248.717 324.773C248.908 324.659 249.073 324.506 249.201 324.324C249.329 324.142 249.417 323.935 249.459 323.717C249.501 323.498 249.497 323.273 249.446 323.057C249.395 322.84 249.299 322.637 249.164 322.46C248.33 321.413 245.918 321.58 244.803 322.012C244.728 322.012 243.886 322.475 243.491 322.687L243.446 322.627C244.25 321.716 245.136 320.88 246.093 320.132C246.616 319.707 247.132 319.335 247.609 318.987C248.279 319.842 249.074 320.592 249.968 321.209C250.385 321.449 250.849 321.596 251.328 321.64C251.807 321.683 252.29 321.621 252.743 321.459C252.949 321.366 253.132 321.231 253.281 321.062C253.429 320.893 253.541 320.694 253.607 320.479C253.673 320.264 253.692 320.037 253.663 319.814C253.635 319.59 253.559 319.376 253.441 319.184C252.721 318.054 250.309 317.955 249.156 318.259C249.088 318.259 248.474 318.516 248.019 318.691L248.724 318.228C249.574 317.682 250.393 317.242 251.121 316.856C251.53 316.636 251.879 316.446 252.266 316.272C253.251 316.724 254.299 317.024 255.375 317.159C255.856 317.178 256.335 317.094 256.78 316.91C257.225 316.727 257.626 316.45 257.953 316.097C258.098 315.921 258.203 315.716 258.261 315.496C258.32 315.275 258.33 315.045 258.291 314.82C258.252 314.596 258.165 314.382 258.036 314.194C257.907 314.006 257.739 313.848 257.544 313.731V313.731Z" fill="#DBDBDB"/>
<path d="M119.545 314.816C120.66 315.104 123.2 314.618 123.2 314.618C123.2 314.618 122.373 313.041 122.313 312.95C121.554 311.873 119.469 310.235 118.066 310.675C117.834 310.753 117.621 310.878 117.441 311.044C117.26 311.21 117.117 311.411 117.021 311.636C116.924 311.861 116.876 312.104 116.88 312.349C116.883 312.593 116.939 312.834 117.042 313.056C117.307 313.514 117.667 313.908 118.1 314.212C118.532 314.515 119.025 314.722 119.545 314.816V314.816Z" fill="#DBDBDB"/>
<path d="M141.105 306.352C141.072 306.88 141.155 307.409 141.348 307.901C141.54 308.394 141.838 308.838 142.22 309.204C142.978 310.053 145.375 311.054 145.382 311.054C145.39 311.054 145.564 309.287 145.557 309.173C145.557 307.861 144.685 305.344 143.282 304.927C143.044 304.864 142.797 304.852 142.555 304.892C142.313 304.931 142.082 305.021 141.876 305.155C141.671 305.29 141.497 305.466 141.364 305.672C141.231 305.878 141.143 306.11 141.105 306.352V306.352Z" fill="#DBDBDB"/>
<path d="M125.437 320.837C125.521 320.799 127.826 319.859 128.6 319.032C128.978 318.67 129.275 318.231 129.47 317.744C129.665 317.257 129.754 316.735 129.73 316.211C129.696 315.969 129.613 315.736 129.484 315.529C129.354 315.321 129.183 315.143 128.98 315.007C128.778 314.87 128.549 314.778 128.308 314.736C128.067 314.693 127.82 314.703 127.583 314.763C126.165 315.164 125.308 317.667 125.248 318.979C125.248 319.062 125.323 320.101 125.369 320.594H125.286C124.712 319.388 124.25 318.131 123.905 316.84C123.701 316.135 123.549 315.453 123.412 314.778C124.569 314.474 125.671 313.993 126.681 313.352C127.104 313.036 127.453 312.631 127.703 312.166C127.953 311.701 128.099 311.187 128.129 310.66C128.123 310.416 128.065 310.176 127.96 309.955C127.855 309.735 127.704 309.539 127.518 309.381C127.332 309.223 127.115 309.106 126.88 309.037C126.646 308.969 126.4 308.951 126.158 308.984C124.702 309.219 123.564 311.615 123.367 312.912C123.367 312.988 123.367 313.716 123.321 314.247C123.261 313.943 123.2 313.633 123.155 313.337C122.973 312.245 122.874 311.229 122.798 310.303C122.753 309.788 122.73 309.325 122.707 308.893C123.584 308.091 124.333 307.16 124.929 306.132C125.157 305.661 125.28 305.145 125.288 304.621C125.295 304.097 125.189 303.577 124.975 303.099C124.856 302.885 124.694 302.698 124.499 302.551C124.304 302.404 124.079 302.3 123.841 302.246C123.603 302.191 123.355 302.188 123.116 302.235C122.876 302.283 122.649 302.381 122.449 302.523C121.274 303.402 121.365 306.049 121.797 307.293C121.797 307.399 122.601 309.014 122.616 308.999C122.616 309.416 122.616 309.864 122.677 310.356C122.737 311.259 122.813 312.283 122.973 313.39C123.129 314.585 123.355 315.77 123.648 316.939C123.976 318.238 124.415 319.507 124.959 320.731V320.769C124.671 320.45 123.837 319.586 123.769 319.525C122.753 318.683 120.311 317.659 119.067 318.448C118.865 318.585 118.694 318.763 118.565 318.97C118.437 319.178 118.353 319.41 118.32 319.652C118.287 319.894 118.306 320.14 118.374 320.374C118.443 320.608 118.56 320.826 118.718 321.011C119.092 321.384 119.543 321.671 120.04 321.852C120.536 322.033 121.066 322.103 121.592 322.058C122.791 321.851 123.952 321.465 125.035 320.913C125.594 322.082 126.227 323.215 126.931 324.303L127.386 324.25C126.665 323.154 126.014 322.015 125.437 320.837V320.837Z" fill="#DBDBDB"/>
<path d="M131.39 320.647C130.238 320.974 129.441 322.71 129.168 324.052C130.549 323.901 131.921 323.772 133.271 323.658C133.517 323.176 133.612 322.632 133.544 322.096C133.509 321.854 133.424 321.622 133.293 321.415C133.163 321.208 132.991 321.031 132.788 320.894C132.585 320.758 132.356 320.666 132.116 320.623C131.875 320.58 131.628 320.589 131.39 320.647Z" fill="#DBDBDB"/>
<path d="M148.901 320.632C147.498 320.185 145.39 321.793 144.624 322.862L144.427 323.211C146.209 323.211 147.938 323.324 149.614 323.476C149.724 323.338 149.818 323.188 149.895 323.029C149.999 322.808 150.056 322.567 150.061 322.323C150.067 322.079 150.022 321.836 149.928 321.61C149.835 321.385 149.695 321.181 149.518 321.013C149.341 320.844 149.131 320.715 148.901 320.632V320.632Z" fill="#DBDBDB"/>
<path d="M139.771 319.654C139.526 319.658 139.286 319.712 139.064 319.815C138.843 319.917 138.645 320.065 138.484 320.249C138.323 320.433 138.203 320.648 138.13 320.881C138.058 321.115 138.036 321.36 138.064 321.603C138.155 322.251 138.465 322.848 138.944 323.294C140.362 323.241 141.75 323.211 143.115 323.211C143.113 323.188 143.113 323.165 143.115 323.142C142.721 321.891 141.242 319.684 139.771 319.654Z" fill="#DBDBDB"/>
<path d="M123.595 324.72L124.505 324.598C124.197 324.582 123.888 324.623 123.595 324.72V324.72Z" fill="#DBDBDB"/>
</svg>
