<svg width="658" height="516" viewBox="0 0 658 516" fill="none" xmlns="http://www.w3.org/2000/svg">
<g opacity="0.9">
<path opacity="0.9" d="M417.471 282.181C440.594 293.299 468.991 288.894 490.101 273.693C511.211 258.492 525.259 233.67 531.098 207.324C536.938 180.978 535.044 153.248 528.994 127.042C521.812 96.2066 508.581 66.6023 488.22 43.3607C467.86 20.1191 440.225 2.77879 410.368 0.513367C332.964 -5.34597 278.156 38.9137 278.708 135.236C279.011 187.775 177.642 132.146 123.031 184.978C55.031 250.703 71.5378 354.843 102.381 414.177C131.199 469.624 188.848 492.964 222.69 498.991C253.271 504.417 313.958 510.332 357.389 458.199C389.495 419.659 390.797 316.89 390.679 308.877C390.56 300.864 392.441 292.474 397.544 286.502C400.006 283.629 403.263 281.663 406.845 280.886C410.426 280.109 414.148 280.563 417.471 282.181Z" fill="#FE6D37"/>
</g>
<g opacity="0.9">
<path opacity="0.9" d="M417.471 282.181C440.594 293.299 468.991 288.894 490.101 273.693C511.211 258.492 525.259 233.67 531.098 207.324C536.938 180.978 535.044 153.248 528.994 127.042C521.812 96.2066 508.581 66.6023 488.22 43.3607C467.86 20.1191 440.225 2.77879 410.368 0.513367C332.964 -5.34597 278.156 38.9137 278.708 135.236C279.011 187.775 177.642 132.146 123.031 184.978C55.031 250.703 71.5378 354.843 102.381 414.177C131.199 469.624 188.848 492.964 222.69 498.991C253.271 504.417 313.958 510.332 357.389 458.199C389.495 419.659 390.797 316.89 390.679 308.877C390.56 300.864 392.441 292.474 397.544 286.502C400.006 283.629 403.263 281.663 406.845 280.886C410.426 280.109 414.148 280.563 417.471 282.181Z" fill="white"/>
</g>
<path d="M353.719 194.459C348.997 191.215 347.143 183.607 346.63 175.622C346.319 169.553 346.552 163.466 347.327 157.443C347.472 155.905 347.682 154.422 347.932 153.024C348.142 151.611 348.423 150.21 348.774 148.829L305.882 130.006C310.591 137.558 314.182 161.736 313.182 169.511C312.09 178.237 311.762 190.487 307.5 193.648L353.719 194.459Z" fill="#FE6D37"/>
<g opacity="0.7">
<path opacity="0.7" d="M353.719 194.459C348.997 191.215 347.143 183.607 346.63 175.622C346.319 169.553 346.552 163.466 347.327 157.443C347.472 155.905 347.682 154.422 347.932 153.024C348.142 151.611 348.423 150.21 348.774 148.829L305.882 130.006C310.591 137.558 314.182 161.736 313.182 169.511C312.09 178.237 311.762 190.487 307.5 193.648L353.719 194.459Z" fill="white"/>
</g>
<path d="M307.5 193.648C298.293 200.64 302.239 211.631 309.723 220.609C312.603 224.052 315.701 227.281 318.996 230.272C333.333 243.319 355.824 237.782 362.519 219.015C365.452 210.694 364.439 201.773 353.72 194.473L307.5 193.648Z" fill="#FFB573"/>
<path opacity="0.2" d="M346.63 175.622C346.319 169.553 346.552 163.465 347.327 157.443C347.472 155.905 347.682 154.422 347.932 153.024L314.774 146.256C321.732 153.583 331.452 168.574 346.63 175.622Z" fill="black"/>
<path d="M390.376 93.8573C389.324 101.437 379.552 113.757 380.025 113.015C380.419 112.212 380.557 111.295 380.42 110.4C380.205 106.988 379.417 103.644 378.092 100.528C377.263 104.723 376 113.519 372.068 113.589C370.502 110.456 368.582 107.604 368.858 104.052C367.951 107.688 367.109 111.351 366.228 114.987C358.599 109.995 353.772 98.472 355.363 88.851C355.707 86.5175 356.471 84.2763 357.613 82.2505C359.026 80.0394 360.742 78.0647 362.703 76.3911C367.688 71.7484 369.713 69.5948 376.263 69.5948C390.56 69.5948 391.429 86.2779 390.376 93.8573Z" fill="#FE6D37"/>
<path opacity="0.3" d="M390.376 93.8573C389.324 101.437 379.552 113.757 380.025 113.015C380.419 112.212 380.557 111.295 380.42 110.4C380.205 106.988 379.417 103.644 378.092 100.528C377.263 104.723 376 113.519 372.068 113.589C370.502 110.456 368.582 107.604 368.858 104.052C367.951 107.688 367.109 111.351 366.228 114.987C358.599 109.995 353.772 98.472 355.363 88.851C355.707 86.5175 356.471 84.2763 357.613 82.2505C359.026 80.0394 360.742 78.0647 362.703 76.3911C367.688 71.7484 369.713 69.5948 376.263 69.5948C390.56 69.5948 391.429 86.2779 390.376 93.8573Z" fill="black"/>
<path d="M382.971 130.971C377.645 161.834 342.895 178.112 319.956 156.003C306.711 143.263 304.607 128.034 302.187 104.373C301.805 100.779 301.424 97.0037 301.003 92.9903C300.293 86.7422 300.895 80.4044 302.765 74.4334C303.533 71.9488 304.538 69.5544 305.764 67.2875C310.25 58.7104 317.422 52.0767 326.032 48.5405C334.643 45.0044 344.147 44.7896 352.891 47.9335C381.643 58.2258 387.799 103.199 382.971 130.971Z" fill="#FE6D37"/>
<path opacity="0.7" d="M382.971 130.971C377.645 161.834 342.895 178.112 319.956 156.003C306.711 143.263 304.607 128.034 302.187 104.373C301.805 100.779 301.424 97.0037 301.003 92.9903C300.293 86.7422 300.895 80.4044 302.765 74.4334C303.533 71.9488 304.538 69.5544 305.764 67.2875C310.25 58.7104 317.422 52.0767 326.032 48.5405C334.643 45.0044 344.147 44.7896 352.891 47.9335C381.643 58.2258 387.799 103.199 382.971 130.971Z" fill="white"/>
<path d="M347.09 93.8992C348.616 93.7873 349.944 95.7451 350.063 98.2203C350.181 100.695 349.261 102.793 347.551 102.891C345.841 102.989 344.499 101.059 344.368 98.5559C344.236 96.0527 345.578 93.9971 347.09 93.8992Z" fill="#FE6D37"/>
<path opacity="0.3" d="M347.09 93.8992C348.616 93.7873 349.944 95.7451 350.063 98.2203C350.181 100.695 349.261 102.793 347.551 102.891C345.841 102.989 344.499 101.059 344.368 98.5559C344.236 96.0527 345.578 93.9971 347.09 93.8992Z" fill="black"/>
<path d="M373.133 93.6475C374.659 93.5356 375.987 95.4654 376.118 97.9406C376.25 100.416 375.145 102.499 373.593 102.611C372.041 102.723 370.713 100.793 370.581 98.3181C370.45 95.843 371.62 93.7453 373.133 93.6475Z" fill="#FE6D37"/>
<path opacity="0.3" d="M373.133 93.6475C374.659 93.5356 375.987 95.4654 376.118 97.9406C376.25 100.416 375.145 102.499 373.593 102.611C372.041 102.723 370.713 100.793 370.581 98.3181C370.45 95.843 371.62 93.7453 373.133 93.6475Z" fill="black"/>
<path d="M362.177 122.72C366.122 123.154 373.317 120.609 376.171 117.63C370.739 111.911 364.676 105.478 360.953 98.3881L362.177 122.72Z" fill="#FE6D37"/>
<path opacity="0.5" d="M362.177 122.72C366.122 123.154 373.317 120.609 376.171 117.63C370.739 111.911 364.676 105.478 360.953 98.3881L362.177 122.72Z" fill="white"/>
<path d="M342.736 84.1662C344.442 83.8235 346.2 83.9119 347.868 84.4245C349.536 84.937 351.067 85.8593 352.338 87.1169C352.411 87.2487 352.505 87.3668 352.614 87.4665C352.752 87.5923 352.911 87.6881 353.083 87.7484C353.255 87.8088 353.437 87.8325 353.618 87.8182C353.798 87.8039 353.975 87.7519 354.137 87.6652C354.298 87.5784 354.443 87.4587 354.561 87.3127C354.679 87.1667 354.769 86.9973 354.826 86.8143C354.883 86.6313 354.905 86.4382 354.892 86.246C354.878 86.0538 354.829 85.8663 354.748 85.6942C354.666 85.5221 354.554 85.3688 354.416 85.243C352.861 83.6245 350.965 82.4247 348.885 81.7436C346.805 81.0625 344.602 80.9198 342.46 81.3275C342.279 81.3473 342.104 81.4069 341.946 81.5024C341.788 81.598 341.65 81.7274 341.541 81.8825C341.432 82.0376 341.355 82.215 341.314 82.4035C341.273 82.592 341.269 82.7875 341.303 82.9776C341.332 83.2317 341.433 83.4706 341.592 83.6628C341.734 83.8339 341.911 83.9683 342.109 84.0555C342.308 84.1428 342.522 84.1807 342.736 84.1662Z" fill="#FE6D37"/>
<path opacity="0.3" d="M342.736 84.1662C344.442 83.8235 346.2 83.9119 347.868 84.4245C349.536 84.937 351.067 85.8593 352.338 87.1169C352.411 87.2487 352.505 87.3668 352.614 87.4665C352.752 87.5923 352.911 87.6881 353.083 87.7484C353.255 87.8088 353.437 87.8325 353.618 87.8182C353.798 87.8039 353.975 87.7519 354.137 87.6652C354.298 87.5784 354.443 87.4587 354.561 87.3127C354.679 87.1667 354.769 86.9973 354.826 86.8143C354.883 86.6313 354.905 86.4382 354.892 86.246C354.878 86.0538 354.829 85.8663 354.748 85.6942C354.666 85.5221 354.554 85.3688 354.416 85.243C352.861 83.6245 350.965 82.4247 348.885 81.7436C346.805 81.0625 344.602 80.9198 342.46 81.3275C342.279 81.3473 342.104 81.4069 341.946 81.5024C341.788 81.598 341.65 81.7274 341.541 81.8825C341.432 82.0376 341.355 82.215 341.314 82.4035C341.273 82.592 341.269 82.7875 341.303 82.9776C341.332 83.2317 341.433 83.4706 341.592 83.6628C341.734 83.8339 341.911 83.9683 342.109 84.0555C342.308 84.1428 342.522 84.1807 342.736 84.1662Z" fill="black"/>
<path d="M382.642 81.2017C382.622 80.8233 382.466 80.4675 382.207 80.2074C381.948 79.9473 381.605 79.8027 381.248 79.8033C379.076 79.7442 376.922 80.2465 374.973 81.2671C373.023 82.2876 371.336 83.796 370.055 85.6626C369.956 85.8193 369.888 85.9957 369.856 86.181C369.823 86.3663 369.825 86.5568 369.863 86.741C369.901 86.9252 369.974 87.0993 370.077 87.2528C370.18 87.4064 370.311 87.5361 370.463 87.6344H370.555C370.853 87.8247 371.21 87.8815 371.548 87.7924C371.886 87.7033 372.177 87.4755 372.357 87.1589C373.4 85.707 374.752 84.5391 376.302 83.7514C377.853 82.9637 379.557 82.5787 381.274 82.6281C381.502 82.6388 381.728 82.5864 381.931 82.4761C382.134 82.3658 382.307 82.2013 382.432 81.9988C382.557 81.7531 382.629 81.4808 382.642 81.2017Z" fill="#FE6D37"/>
<path opacity="0.3" d="M382.642 81.2017C382.622 80.8233 382.466 80.4675 382.207 80.2074C381.948 79.9473 381.605 79.8027 381.248 79.8033C379.076 79.7442 376.922 80.2465 374.973 81.2671C373.023 82.2876 371.336 83.796 370.055 85.6626C369.956 85.8193 369.888 85.9957 369.856 86.181C369.823 86.3663 369.825 86.5568 369.863 86.741C369.901 86.9252 369.974 87.0993 370.077 87.2528C370.18 87.4064 370.311 87.5361 370.463 87.6344H370.555C370.853 87.8247 371.21 87.8815 371.548 87.7924C371.886 87.7033 372.177 87.4755 372.357 87.1589C373.4 85.707 374.752 84.5391 376.302 83.7514C377.853 82.9637 379.557 82.5787 381.274 82.6281C381.502 82.6388 381.728 82.5864 381.931 82.4761C382.134 82.3658 382.307 82.2013 382.432 81.9988C382.557 81.7531 382.629 81.4808 382.642 81.2017Z" fill="black"/>
<path d="M317.339 149.388C313.826 148.68 310.511 147.13 307.645 144.857C307.645 148.955 305.014 156.044 305.014 156.044C292.756 151.751 282.655 125.685 281.339 117.043C274.526 130.51 275.118 122.762 274.592 117.043C273.829 108.806 273.632 100.262 276.275 92.5007C278.919 84.7395 284.943 77.7894 292.624 76.447C294.053 76.3079 295.492 76.5783 296.789 77.23C298.087 77.8816 299.196 78.8909 300.003 80.1527C301.31 82.6457 302.162 85.3785 302.515 88.2076C306.106 108.638 305.948 132.495 317.339 149.388Z" fill="#FE6D37"/>
<path opacity="0.3" d="M317.339 149.388C313.826 148.68 310.511 147.13 307.645 144.857C307.645 148.955 305.014 156.044 305.014 156.044C292.756 151.751 282.655 125.685 281.339 117.043C274.526 130.51 275.118 122.762 274.592 117.043C273.829 108.806 273.632 100.262 276.275 92.5007C278.919 84.7395 284.943 77.7894 292.624 76.447C294.053 76.3079 295.492 76.5783 296.789 77.23C298.087 77.8816 299.196 78.8909 300.003 80.1527C301.31 82.6457 302.162 85.3785 302.515 88.2076C306.106 108.638 305.948 132.495 317.339 149.388Z" fill="black"/>
<path d="M299.964 102.541C309.341 102.765 315.063 115.337 316.063 123.937C317.233 133.516 311.183 141.389 302.489 137.152C299.247 135.553 296.339 133.283 293.933 130.473C291.528 127.664 289.674 124.372 288.481 120.791C285.574 111.897 290.572 102.332 299.964 102.541Z" fill="#FE6D37"/>
<path opacity="0.7" d="M299.964 102.541C309.341 102.765 315.063 115.337 316.063 123.937C317.233 133.516 311.183 141.389 302.489 137.152C299.247 135.553 296.339 133.283 293.933 130.473C291.528 127.664 289.674 124.372 288.481 120.791C285.574 111.897 290.572 102.332 299.964 102.541Z" fill="white"/>
<path d="M318.746 73.2167C321.199 76.0258 323.032 79.3816 324.111 83.0395C325.189 86.6975 325.486 90.5652 324.98 94.3607C323.889 101.94 313.8 114.246 314.274 113.505C314.677 112.705 314.824 111.787 314.695 110.89C314.461 107.47 313.641 104.124 312.275 101.017C311.42 105.212 310.118 114.008 306.053 114.064C304.436 110.946 302.449 108.093 302.726 104.527C301.792 108.177 300.924 111.841 299.99 115.477C292.098 110.47 287.1 98.9475 288.731 89.3264C289.09 86.9846 289.881 84.7414 291.059 82.7259C292.533 80.5091 294.306 78.5349 296.32 76.8666C301.476 72.2239 308.302 67.5951 314.524 70.378C315.418 70.8254 318.983 72.2099 318.746 73.2167Z" fill="#FE6D37"/>
<path opacity="0.3" d="M318.746 73.2167C321.199 76.0258 323.032 79.3816 324.111 83.0395C325.189 86.6975 325.486 90.5652 324.98 94.3607C323.889 101.94 313.8 114.246 314.274 113.505C314.677 112.705 314.824 111.787 314.695 110.89C314.461 107.47 313.641 104.124 312.275 101.017C311.42 105.212 310.118 114.008 306.053 114.064C304.436 110.946 302.449 108.093 302.726 104.527C301.792 108.177 300.924 111.841 299.99 115.477C292.098 110.47 287.1 98.9475 288.731 89.3264C289.09 86.9846 289.881 84.7414 291.059 82.7259C292.533 80.5091 294.306 78.5349 296.32 76.8666C301.476 72.2239 308.302 67.5951 314.524 70.378C315.418 70.8254 318.983 72.2099 318.746 73.2167Z" fill="black"/>
<path d="M369.595 131.195C369.595 131.195 361.559 127.727 337.87 124.72C339.186 133.866 344.447 137.725 356.56 139.124C368.674 140.522 369.595 131.195 369.595 131.195Z" fill="#263238"/>
<path d="M368.516 130.873C368.154 131.877 367.553 132.763 366.771 133.444C365.989 134.126 365.054 134.58 364.057 134.761C357.062 133.863 350.167 132.233 343.473 129.894C342.34 129.619 341.303 129.008 340.484 128.132C339.664 127.256 339.096 126.15 338.843 124.944C348.884 125.952 358.816 127.937 368.516 130.873Z" fill="white"/>
<path d="M363.584 134.006C357.614 131.426 351.305 129.846 344.88 129.321C343.079 129.529 341.365 130.254 339.922 131.419C342.552 135.949 347.814 138.201 356.455 139.236C359.708 139.848 363.059 139.198 365.899 137.404C365.274 136.166 364.495 135.023 363.584 134.006Z" fill="white"/>
<path d="M385.049 191.536C384.034 201.676 380.468 211.338 374.724 219.504C374.304 220.106 373.869 220.707 373.409 221.294C360.625 238.509 337.647 243.851 318.535 234.803C312.494 232.02 306.693 228.679 301.2 224.818C290.362 217.071 281.01 206.303 276.604 193.662L310.21 189.061L333.188 185.915L348.892 187.621L385.049 191.536Z" fill="#FFB573"/>
<path d="M218.889 214.442C217.574 319.323 144.773 410.22 137.263 514.863H498.585C462.667 433.055 440.158 345.325 432.031 255.458L426.441 193.648H241.525C241.525 193.648 219.021 204.178 218.889 214.442Z" fill="#FE6D37"/>
<path opacity="0.6" d="M218.889 214.442C217.574 319.323 144.773 410.22 137.263 514.863H498.585C462.667 433.055 440.158 345.325 432.031 255.458L426.441 193.648H241.525C241.525 193.648 219.021 204.178 218.889 214.442Z" fill="white"/>
<path opacity="0.2" d="M182.219 514.723C182.219 514.723 180.115 406.724 213.786 294.991C247.457 183.258 205.184 328.497 211.761 457.947C213.628 495.271 222.822 515.282 222.822 515.282L182.219 514.723Z" fill="white"/>
<path opacity="0.2" d="M465.426 515.282C465.426 515.282 421.285 406.444 413.354 262.785C413.354 262.785 402.543 389.915 439.844 514.863L465.426 515.282Z" fill="white"/>
<path d="M453.628 175.72C453.807 175.627 453.991 175.547 454.181 175.482L453.97 175.58L453.628 175.72Z" fill="#FE6D37"/>
<path d="M456.535 174.573L455.601 174.937L454.838 175.231H454.72L454.181 175.44C454.93 175.161 455.72 174.867 456.535 174.573Z" fill="#FE6D37"/>
<path d="M550.867 180.139C550.867 218.512 486.103 242.662 457.206 251.458C429.795 261.247 413.354 262.715 413.354 262.715C412.342 252.577 391.665 193.075 391.665 193.075C391.665 193.075 404.029 187.481 412.894 188.32H413.118C423.494 189.191 433.872 186.663 442.856 181.076C446.123 179.071 449.526 177.327 453.036 175.86L453.628 175.622L453.97 175.483L454.72 175.175H454.838L455.601 174.881L456.535 174.518L457.627 174.14L457.956 174.028L458.298 173.916L458.548 173.846H458.64C461.196 173.06 463.791 172.425 466.413 171.945C474.104 170.35 482.072 171.327 489.22 174.741C490.578 175.449 492.081 175.785 493.592 175.719C495.104 175.653 496.575 175.187 497.875 174.364C499.19 173.469 499.755 172.504 498.493 171.749L437.016 96.9897L455.759 86.0402C455.759 86.0402 550.867 139.473 550.867 180.139Z" fill="#FE6D37"/>
<path d="M550.867 180.139C550.867 218.512 486.103 242.662 457.206 251.458C429.795 261.247 413.354 262.715 413.354 262.715C412.342 252.577 391.665 193.075 391.665 193.075C391.665 193.075 404.029 187.481 412.894 188.32H413.118C423.494 189.191 433.872 186.663 442.856 181.076C446.123 179.071 449.526 177.327 453.036 175.86L453.628 175.622L453.97 175.483L454.72 175.175H454.838L455.601 174.881L456.535 174.518L457.627 174.14L457.956 174.028L458.298 173.916L458.548 173.846H458.64C461.196 173.06 463.791 172.425 466.413 171.945C474.104 170.35 482.072 171.327 489.22 174.741C490.578 175.449 492.081 175.785 493.592 175.719C495.104 175.653 496.575 175.187 497.875 174.364C499.19 173.469 499.755 172.504 498.493 171.749L437.016 96.9897L455.759 86.0402C455.759 86.0402 550.867 139.473 550.867 180.139Z" fill="#FE6D37"/>
<g opacity="0.3">
<path opacity="0.3" d="M550.867 180.139C550.867 218.512 486.103 242.662 457.206 251.458C429.795 261.247 413.354 262.715 413.354 262.715C412.342 252.577 391.665 193.075 391.665 193.075C391.665 193.075 404.029 187.481 412.894 188.32H413.118C423.494 189.191 433.872 186.663 442.856 181.076C446.123 179.071 449.526 177.327 453.036 175.86L453.628 175.622L453.97 175.483L454.72 175.175H454.838L455.601 174.881L456.535 174.518L457.627 174.14L457.956 174.028L458.298 173.916L458.548 173.846H458.64C461.196 173.06 463.791 172.425 466.413 171.945C474.104 170.35 482.072 171.327 489.22 174.741C490.578 175.449 492.081 175.785 493.592 175.719C495.104 175.653 496.575 175.187 497.875 174.364C499.19 173.469 499.755 172.504 498.493 171.749L437.016 96.9897L455.759 86.0402C455.759 86.0402 550.867 139.473 550.867 180.139Z" fill="white"/>
</g>
<path d="M442.08 98.9335L415.88 87.9L400.096 65.5255L422.772 60.1696L444.211 71.9861L457.074 86.8652C457.67 87.5562 458.093 88.3954 458.305 89.3056C458.516 90.2159 458.508 91.1679 458.283 92.0743C458.058 92.9807 457.622 93.8124 457.016 94.4929C456.409 95.1735 455.651 95.681 454.812 95.9689L445.605 99.0873C444.449 99.4689 443.204 99.4146 442.08 98.9335Z" fill="#FE6D37"/>
<path opacity="0.7" d="M442.08 98.9335L415.88 87.9L400.096 65.5255L422.772 60.1696L444.211 71.9861L457.074 86.8652C457.67 87.5562 458.093 88.3954 458.305 89.3056C458.516 90.2159 458.508 91.1679 458.283 92.0743C458.058 92.9807 457.622 93.8124 457.016 94.4929C456.409 95.1735 455.651 95.681 454.812 95.9689L445.605 99.0873C444.449 99.4689 443.204 99.4146 442.08 98.9335Z" fill="white"/>
<path opacity="0.2" d="M424.929 232.202L427.559 260.492C427.559 260.492 466.347 250.927 488.273 240.257L470.661 241.278C456.091 242.34 441.507 239.423 428.296 232.803L424.929 232.202Z" fill="black"/>
<path d="M429.572 259.835C429.19 349.878 413.63 358.381 414.367 435.881C414.367 435.881 267.726 436.51 262.754 436.65C250.916 332.356 238.855 327.574 242.038 247.487C240.499 221.183 254.533 198.053 268.646 195.046L333.214 185.915L395.322 192.907C411.105 195.312 425.376 208.541 429.572 259.835Z" fill="#FE6D37"/>
<path opacity="0.3" d="M429.572 259.835C429.19 349.878 413.63 358.381 414.367 435.881C414.367 435.881 267.726 436.51 262.754 436.65C250.916 332.356 238.855 327.574 242.038 247.487C240.499 221.183 254.533 198.053 268.646 195.046L333.214 185.915L395.322 192.907C411.105 195.312 425.376 208.541 429.572 259.835Z" fill="white"/>
<path d="M323.665 83.9845C319.719 74.755 314.458 70.2941 317.523 70.7975C325.756 72.1959 330.794 64.4907 336.844 68.8257C339.791 72.4057 336.397 79.0621 336.252 78.6985C339.278 80.2228 343.052 79.0201 345.538 76.6708C348.024 74.3215 348.892 70.2102 350.116 66.8819C351.032 70.4608 350.949 74.2455 349.879 77.7756C352.049 79.6075 356.521 76.1674 358.56 74.1677C360.597 71.8734 362.121 69.1201 363.018 66.1128C363.795 69.3292 364.4 72.6014 362.229 76.475C365.307 76.6568 369.345 75.65 371.371 73.2028C372.429 71.9279 373.213 70.4227 373.667 68.7923C374.122 67.1619 374.236 65.4456 374.001 63.7635C374.698 65.4136 374.803 72.1539 373.422 73.2867C378.684 71.4547 383.563 64.4627 383.287 58.6313C383.034 55.7057 382.121 52.8881 380.626 50.4172C379.131 47.9464 377.097 45.8952 374.698 44.4375C372.344 42.9412 369.726 41.9623 367.254 40.6757C363.453 38.69 339.304 19.5318 303.844 41.3749C281.839 54.9395 286.14 81.9288 288.757 84.8655C292.006 88.4874 297.123 89.704 301.845 89.2006C306.566 88.6971 324.691 86.4317 323.665 83.9845Z" fill="#FE6D37"/>
<path opacity="0.3" d="M323.665 83.9845C319.719 74.755 314.458 70.2941 317.523 70.7975C325.756 72.1959 330.794 64.4907 336.844 68.8257C339.791 72.4057 336.397 79.0621 336.252 78.6985C339.278 80.2228 343.052 79.0201 345.538 76.6708C348.024 74.3215 348.892 70.2102 350.116 66.8819C351.032 70.4608 350.949 74.2455 349.879 77.7756C352.049 79.6075 356.521 76.1674 358.56 74.1677C360.597 71.8734 362.121 69.1201 363.018 66.1128C363.795 69.3292 364.4 72.6014 362.229 76.475C365.307 76.6568 369.345 75.65 371.371 73.2028C372.429 71.9279 373.213 70.4227 373.667 68.7923C374.122 67.1619 374.236 65.4456 374.001 63.7635C374.698 65.4136 374.803 72.1539 373.422 73.2867C378.684 71.4547 383.563 64.4627 383.287 58.6313C383.034 55.7057 382.121 52.8881 380.626 50.4172C379.131 47.9464 377.097 45.8952 374.698 44.4375C372.344 42.9412 369.726 41.9623 367.254 40.6757C363.453 38.69 339.304 19.5318 303.844 41.3749C281.839 54.9395 286.14 81.9288 288.757 84.8655C292.006 88.4874 297.123 89.704 301.845 89.2006C306.566 88.6971 324.691 86.4317 323.665 83.9845Z" fill="black"/>
<path d="M369.595 131.195C369.595 131.195 361.559 127.727 337.87 124.72C339.186 133.866 344.447 137.725 356.56 139.124C368.674 140.522 369.595 131.195 369.595 131.195Z" fill="#FE6D37"/>
<path opacity="0.3" d="M369.595 131.195C369.595 131.195 361.559 127.727 337.87 124.72C339.186 133.866 344.447 137.725 356.56 139.124C368.674 140.522 369.595 131.195 369.595 131.195Z" fill="black"/>
<path d="M368.516 130.873C368.154 131.877 367.553 132.763 366.771 133.444C365.989 134.126 365.054 134.58 364.057 134.761C357.062 133.863 350.167 132.233 343.473 129.894C342.34 129.619 341.303 129.008 340.484 128.132C339.664 127.256 339.096 126.15 338.843 124.944C348.884 125.952 358.816 127.937 368.516 130.873Z" fill="white"/>
<path d="M363.584 134.006C357.614 131.426 351.305 129.846 344.88 129.321C343.079 129.529 341.365 130.254 339.922 131.419C342.552 135.949 347.814 138.201 356.455 139.236C359.708 139.848 363.059 139.198 365.899 137.404C365.274 136.166 364.495 135.023 363.584 134.006Z" fill="white"/>
<path d="M255.165 396.935C255.165 396.935 286.179 379.455 286.008 381.37C285.837 383.286 286.653 420.274 286.653 420.274L252.837 419.449L255.165 396.935Z" fill="#FE6D37"/>
<path d="M285.982 381.37C285.982 381.37 314.537 382.363 314.379 385.734C314.221 389.104 311.144 417.394 311.144 417.394L286.627 420.288L285.982 381.37Z" fill="#FE6D37"/>
<g opacity="0.7">
<path opacity="0.7" d="M314.353 385.733C314.195 389.118 311.13 417.379 311.13 417.379L286.613 420.274L252.797 419.449L255.126 396.935C255.126 396.935 286.14 379.455 285.969 381.37C285.982 381.37 314.537 382.433 314.353 385.733Z" fill="white"/>
</g>
<path d="M385.049 191.536C384.034 201.676 380.468 211.338 374.724 219.504C374.304 220.106 373.869 220.707 373.409 221.294C360.625 238.509 337.647 243.851 318.535 234.803C312.494 232.02 306.693 228.679 301.2 224.818C290.362 217.071 281.01 206.303 276.604 193.662L310.21 189.061L333.188 185.915L348.892 187.621L385.049 191.536Z" fill="#FE6D37"/>
<path opacity="0.7" d="M385.049 191.536C384.034 201.676 380.468 211.338 374.724 219.504C374.304 220.106 373.869 220.707 373.409 221.294C360.625 238.509 337.647 243.851 318.535 234.803C312.494 232.02 306.693 228.679 301.2 224.818C290.362 217.071 281.01 206.303 276.604 193.662L310.21 189.061L333.188 185.915L348.892 187.621L385.049 191.536Z" fill="white"/>
<path opacity="0.2" d="M242.249 282.349C242.296 298.075 243.616 313.767 246.195 329.252L257.177 256.367L242.249 282.349Z" fill="black"/>
<path d="M182.719 335.083L256.178 390.264L252.811 422.721C252.811 422.721 142.563 395.774 125.872 359.206C118.073 342.145 126.859 321.281 140.433 301.983C140.439 301.96 140.439 301.936 140.433 301.913C156.571 273.847 171.237 257.164 182.298 247.305C193.147 237.919 202.57 226.811 210.235 214.372C229.28 182.586 272.053 195.466 272.053 195.466C262.307 219.714 262.202 265.834 262.202 265.834C262.202 265.834 252.64 273.497 242.196 282.349C242.091 289.83 237.816 298.99 229.556 309.338C218.705 322.987 186.428 330.762 182.719 335.083Z" fill="#FE6D37"/>
<path opacity="0.3" d="M182.719 335.083L256.178 390.264L252.811 422.721C252.811 422.721 142.563 395.774 125.872 359.206C118.073 342.145 126.859 321.281 140.433 301.983C140.439 301.96 140.439 301.936 140.433 301.913C156.571 273.847 171.237 257.164 182.298 247.305C193.147 237.919 202.57 226.811 210.235 214.372C229.28 182.586 272.053 195.466 272.053 195.466C262.307 219.714 262.202 265.834 262.202 265.834C262.202 265.834 252.64 273.497 242.196 282.349C242.091 289.83 237.816 298.99 229.556 309.338C218.705 322.987 186.428 330.762 182.719 335.083Z" fill="white"/>
<path d="M238.211 186.068C261.435 206.604 287.822 222.718 316.208 233.698C316.208 224.231 313.366 205.101 308.316 193.242C306.882 189.914 305.067 186.572 302.134 184.656C299.201 182.74 294.9 182.754 292.717 185.593C284.378 179.328 270.659 179.034 262.57 185.593C256.309 183.286 247.418 179.622 240.894 180.866C234.37 182.111 226.321 191.354 227.294 198.333C233.312 195.27 239.836 193.493 246.497 193.102C244.709 190.851 246.458 193.172 238.211 186.068Z" fill="#FE6D37"/>
<path opacity="0.6" d="M238.211 186.068C261.435 206.604 287.822 222.718 316.208 233.698C316.208 224.231 313.366 205.101 308.316 193.242C306.882 189.914 305.067 186.572 302.134 184.656C299.201 182.74 294.9 182.754 292.717 185.593C284.378 179.328 270.659 179.034 262.57 185.593C256.309 183.286 247.418 179.622 240.894 180.866C234.37 182.111 226.321 191.354 227.294 198.333C233.312 195.27 239.836 193.493 246.497 193.102C244.709 190.851 246.458 193.172 238.211 186.068Z" fill="white"/>
<path d="M406.988 188.46C403.217 186.645 399.126 185.706 394.986 185.706C390.847 185.706 386.756 186.645 382.985 188.46C377.829 184.446 369.897 183.593 364.571 187.439C363.733 186.373 362.695 185.505 361.525 184.889C360.354 184.272 359.076 183.922 357.771 183.859C355.14 183.761 353.456 185.691 351.654 187.691C355.442 189.718 357.376 194.235 358.718 198.514C362.142 209.353 363.601 220.785 363.019 232.202C381.169 222.777 396.571 206.961 406.988 188.46Z" fill="#FE6D37"/>
<path opacity="0.6" d="M406.988 188.46C403.217 186.645 399.126 185.706 394.986 185.706C390.847 185.706 386.756 186.645 382.985 188.46C377.829 184.446 369.897 183.593 364.571 187.439C363.733 186.373 362.695 185.505 361.525 184.889C360.354 184.272 359.076 183.922 357.771 183.859C355.14 183.761 353.456 185.691 351.654 187.691C355.442 189.718 357.376 194.235 358.718 198.514C362.142 209.353 363.601 220.785 363.019 232.202C381.169 222.777 396.571 206.961 406.988 188.46Z" fill="white"/>
<path opacity="0.5" d="M403.437 297.438C403.437 318.68 375.001 356.647 339.922 356.647C304.843 356.647 276.407 318.68 276.407 297.438C276.407 276.196 304.843 258.968 339.922 258.968C375.001 258.968 403.437 276.154 403.437 297.438Z" fill="white"/>
<path d="M394.901 299.27C394.901 316.764 371.476 348.046 342.579 348.046C313.682 348.046 290.27 316.708 290.27 299.27C290.27 281.832 313.682 267.568 342.579 267.568C371.476 267.568 394.901 281.748 394.901 299.27Z" fill="#FE6D37"/>
<path opacity="0.5" d="M394.901 299.27C394.901 316.764 371.476 348.046 342.579 348.046C313.682 348.046 290.27 316.708 290.27 299.27C290.27 281.832 313.682 267.568 342.579 267.568C371.476 267.568 394.901 281.748 394.901 299.27Z" fill="white"/>
<path d="M414.393 436.65H262.754V462.954H414.393V436.65Z" fill="white"/>
<path d="M262.754 462.954L248.246 514.863H419.299L414.406 462.954H262.754Z" fill="#FE6D37"/>
<path opacity="0.2" d="M262.754 462.954L248.246 514.863H419.299L414.406 462.954H262.754Z" fill="white"/>
<path d="M375.145 434.972H329.808V463.793H375.145V434.972Z" fill="#263238"/>
<path opacity="0.7" d="M375.145 434.972H329.808V463.793H375.145V434.972Z" fill="white"/>
<path opacity="0.7" d="M348.787 434.972L335.437 463.793H345.328L359.099 434.972H348.787Z" fill="white"/>
<path opacity="0.7" d="M363.334 434.972L349.984 463.793H357.047L370.818 434.972H363.334Z" fill="white"/>
<path opacity="0.2" d="M390.376 93.7873C389.823 97.7449 386.917 102.975 384.312 106.974C384.735 114.977 384.294 123.005 382.997 130.901C381.42 140.201 376.999 148.687 370.42 155.041C363.842 161.396 355.474 165.263 346.616 166.043C346.452 169.211 346.452 172.385 346.616 175.552C346.801 179.65 347.564 183.694 348.879 187.551L385.01 191.466C383.995 201.606 380.428 211.268 374.685 219.435C374.264 220.036 373.83 220.637 373.369 221.225C360.585 238.439 337.607 243.781 318.496 234.733C312.467 231.948 306.68 228.607 301.2 224.749C290.362 217.001 281.01 206.234 276.604 193.592L310.209 188.991C311.945 183.761 312.34 175.706 313.129 169.413C313.682 165.12 312.84 155.835 311.183 147.123C309.921 146.457 308.719 145.67 307.592 144.773C307.592 148.871 304.961 155.961 304.961 155.961C292.703 151.668 282.601 125.601 281.286 116.959C274.46 130.426 275.065 122.679 274.539 116.959C273.776 108.722 273.579 100.178 276.222 92.4169C278.109 86.6452 281.83 81.7541 286.745 78.5866C285.429 69.1054 287.244 51.4714 303.685 41.333C339.198 19.4898 363.294 38.648 367.095 40.6338C369.568 41.9203 372.172 42.8992 374.54 44.3955C376.939 45.8532 378.972 47.9045 380.468 50.3753C381.963 52.8461 382.875 55.6637 383.129 58.5894C383.3 62.393 381.3 66.6722 378.433 69.7067C390.639 71.3708 391.376 86.6415 390.376 93.7873Z" fill="white"/>
<path opacity="0.2" d="M365.136 67.693L364.689 66.896C364.854 65.8592 364.854 64.8003 364.689 63.7635C365.034 65.0396 365.185 66.3662 365.136 67.693Z" fill="white"/>
<path d="M265.871 473.078C262.173 474.359 258.398 475.377 254.573 476.127C253.981 476.239 253.402 476.351 252.837 476.434C250.982 476.728 249.246 476.91 247.575 476.994C222.125 478.392 221.467 455.794 220.836 444.285C220.209 428.894 220.569 413.476 221.914 398.137C223.677 376.784 227.018 354.605 231.871 338.006C238.895 314.065 250.285 311.436 259.952 311.254C261.82 311.254 263.648 311.254 265.358 311.254C265.358 311.254 264.122 318.037 263.53 324.581L259.689 353.584L254.349 393.83L253.521 400.109V400.459L250.627 422.246L249.956 427.266C249.654 430.609 249.43 435.321 252.863 438.006C253.347 438.404 253.877 438.733 254.441 438.985C256.677 440.048 259.979 440.481 264.779 439.88L265.266 454.172L265.358 456.745L265.516 461.192L265.779 469.275L265.871 473.078Z" fill="#FFB573"/>
<path d="M208.012 389.985C215.299 398.837 221.165 397.76 231.24 399.438C241.315 401.116 249.996 400.529 260.176 399.536C262.241 369.428 265.727 339.404 265.438 309.324C257.178 309.982 248.339 309.618 241.565 313.981C232.542 319.812 231.937 334.789 225.861 345.347C218.679 357.821 209.472 368.044 200.357 378.14C203.672 384.293 203.869 384.881 208.012 389.985Z" fill="#FE6D37"/>
<g opacity="0.6">
<path opacity="0.6" d="M208.012 389.985C215.299 398.837 221.165 397.76 231.24 399.438C241.315 401.116 249.996 400.529 260.176 399.536C262.241 369.428 265.727 339.404 265.438 309.324C257.178 309.982 248.339 309.618 241.565 313.981C232.542 319.812 231.937 334.789 225.861 345.347C218.679 357.821 209.472 368.044 200.357 378.14C203.672 384.293 203.869 384.881 208.012 389.985Z" fill="black"/>
</g>
<path opacity="0.2" d="M259.69 353.57L245.642 400.501H263.372L259.69 353.57Z" fill="black"/>
<path d="M395.401 407.073C393.783 414.765 391.849 422.302 389.876 431.909C389.456 433.965 389.021 436.104 388.561 438.398C387.969 441.586 387.377 444.97 386.812 448.662C386.18 452.857 385.562 457.332 384.97 462.311C384.444 466.618 383.958 471.26 383.497 476.295C383.3 478.49 383.09 480.756 382.905 483.133C382.537 487.762 382.182 492.698 381.866 497.97C381.551 503.242 381.261 509.087 380.998 515.212C376.71 515.101 249.983 515.212 249.983 515.212C250.693 506.249 251.298 497.816 251.877 489.677C252.179 485.161 252.482 480.742 252.732 476.379V476.281C252.824 474.882 252.903 473.624 252.968 472.309C253.166 468.981 253.337 465.695 253.494 462.422C253.876 454.591 254.165 446.844 254.349 438.943C254.349 438.607 254.349 438.272 254.349 437.936C254.455 433.07 254.52 428.147 254.547 423.085C254.547 415.813 254.547 408.304 254.402 400.417C254.402 400.277 254.402 400.137 254.402 399.997C254.402 397.956 254.336 395.886 254.284 393.788C254.126 387.356 253.915 380.643 253.626 373.581C253.271 364.771 252.811 355.402 252.232 345.417C251.548 333.601 252.337 317.897 259.874 311.226C260.62 310.559 261.436 309.987 262.307 309.52C263.6 308.823 264.99 308.351 266.424 308.122L306.211 301.535L320.087 299.242L340.527 303.437L385.378 312.806C385.915 312.917 386.446 313.057 386.97 313.226C389.868 314.127 392.409 316.013 394.204 318.596C398.833 325.182 399.794 336.775 398.873 352.381C400.017 379.357 398.242 393.453 395.401 407.073Z" fill="#FE6D37"/>
<path opacity="0.6" d="M395.401 407.073C393.783 414.765 391.849 422.302 389.876 431.909C389.456 433.965 389.021 436.104 388.561 438.398C387.969 441.586 387.377 444.97 386.812 448.662C386.18 452.857 385.562 457.332 384.97 462.311C384.444 466.618 383.958 471.26 383.497 476.295C383.3 478.49 383.09 480.756 382.905 483.133C382.537 487.762 382.182 492.698 381.866 497.97C381.551 503.242 381.261 509.087 380.998 515.212C376.71 515.101 249.983 515.212 249.983 515.212C250.693 506.249 251.298 497.816 251.877 489.677C252.179 485.161 252.482 480.742 252.732 476.379V476.281C252.824 474.882 252.903 473.624 252.968 472.309C253.166 468.981 253.337 465.695 253.494 462.422C253.876 454.591 254.165 446.844 254.349 438.943C254.349 438.607 254.349 438.272 254.349 437.936C254.455 433.07 254.52 428.147 254.547 423.085C254.547 415.813 254.547 408.304 254.402 400.417C254.402 400.277 254.402 400.137 254.402 399.997C254.402 397.956 254.336 395.886 254.284 393.788C254.126 387.356 253.915 380.643 253.626 373.581C253.271 364.771 252.811 355.402 252.232 345.417C251.548 333.601 252.337 317.897 259.874 311.226C260.62 310.559 261.436 309.987 262.307 309.52C263.6 308.823 264.99 308.351 266.424 308.122L306.211 301.535L320.087 299.242L340.527 303.437L385.378 312.806C385.915 312.917 386.446 313.057 386.97 313.226C389.868 314.127 392.409 316.013 394.204 318.596C398.833 325.182 399.794 336.775 398.873 352.381C400.017 379.357 398.242 393.453 395.401 407.073Z" fill="black"/>
<path d="M342.382 305.954C350.352 311.995 346.972 321.491 340.474 329.252C326.94 345.403 312.854 350.424 312.854 350.424C312.643 350.326 277.696 323.476 302.331 306.681C306.409 303.885 308 297.298 308.447 290.404C308.718 285.138 308.52 279.856 307.855 274.63C307.737 273.315 307.54 272.029 307.329 270.812C307.119 269.596 306.882 268.365 306.606 267.232L343.789 250.983C339.712 257.499 336.608 278.392 337.476 285.118C338.423 292.641 338.699 303.171 342.382 305.954Z" fill="#FFB573"/>
<path opacity="0.2" d="M308.566 290.404C308.837 285.138 308.639 279.856 307.974 274.63C307.855 273.315 307.658 272.029 307.448 270.812L336.108 264.967C330.136 271.358 321.666 284.307 308.566 290.404Z" fill="black"/>
<path d="M269.725 221.392C270.659 227.937 279.379 238.579 278.932 237.935C278.583 237.247 278.458 236.456 278.577 235.684C278.776 232.724 279.485 229.828 280.668 227.14C281.392 230.804 282.523 238.327 286.034 238.425C287.429 235.726 289.152 233.265 288.915 230.188C289.73 233.335 290.467 236.495 291.269 239.642C294.742 237.249 297.502 233.854 299.225 229.854C300.949 225.855 301.565 221.416 301.002 217.057C300.694 215.03 300.015 213.087 299.003 211.338C297.746 209.408 296.226 207.687 294.492 206.234C290.046 202.22 284.377 198.934 278.708 200.64C268.002 203.884 268.791 214.848 269.725 221.392Z" fill="#263238"/>
<path d="M277.17 251.808C281.773 278.475 311.801 292.543 331.623 273.441C343.065 262.436 344.894 249.305 346.972 228.832C347.301 225.727 347.63 222.469 348.011 219.043C348.618 213.646 348.092 208.173 346.472 203.017C345.804 200.864 344.922 198.792 343.842 196.836C339.969 189.406 333.766 183.656 326.315 180.589C318.864 177.523 310.637 177.334 303.068 180.055C278.314 188.949 273 227.811 277.17 251.808Z" fill="#FFB573"/>
<path d="M301.529 213.981C301.345 213.911 301.185 213.784 301.069 213.617C300.885 213.353 300.807 213.023 300.851 212.698C300.896 212.374 301.059 212.081 301.305 211.883C302.782 210.682 304.512 209.881 306.345 209.55C308.179 209.218 310.06 209.367 311.828 209.981C311.969 210.043 312.097 210.133 312.205 210.247C312.313 210.361 312.399 210.497 312.457 210.646C312.516 210.795 312.546 210.956 312.547 211.118C312.547 211.279 312.517 211.44 312.459 211.589C312.339 211.897 312.111 212.142 311.824 212.273C311.536 212.403 311.212 212.409 310.92 212.289C309.519 211.8 308.026 211.683 306.572 211.949C305.119 212.215 303.749 212.855 302.581 213.813C302.434 213.935 302.26 214.015 302.076 214.044C301.892 214.074 301.703 214.052 301.529 213.981Z" fill="#263238"/>
<path d="M288.823 215.855C288.698 215.698 288.54 215.574 288.362 215.494C288.184 215.414 287.991 215.379 287.797 215.393C286.293 215.595 284.764 215.422 283.333 214.888C281.902 214.354 280.607 213.474 279.551 212.317C279.346 212.061 279.056 211.9 278.741 211.868C278.426 211.837 278.113 211.938 277.867 212.149C277.632 212.363 277.483 212.664 277.449 212.991C277.415 213.318 277.498 213.647 277.683 213.911C278.984 215.394 280.6 216.525 282.397 217.208C284.193 217.892 286.117 218.109 288.008 217.84C288.167 217.828 288.323 217.782 288.465 217.704C288.607 217.627 288.732 217.519 288.834 217.389C288.936 217.258 289.012 217.107 289.058 216.944C289.104 216.782 289.118 216.611 289.1 216.442C289.053 216.226 288.958 216.024 288.823 215.855Z" fill="#263238"/>
<path d="M293.308 244.061C289.702 244.097 286.193 242.818 283.365 240.439C287.218 236.369 291.533 231.796 294.176 226.748L293.308 244.061Z" fill="#ED893E"/>
<path d="M284.338 228.272C283.354 228.19 282.394 227.9 281.516 227.42C280.638 226.94 279.858 226.279 279.222 225.476C279.162 225.409 279.116 225.33 279.085 225.244C279.054 225.157 279.039 225.066 279.042 224.973C279.044 224.881 279.063 224.79 279.099 224.706C279.134 224.622 279.185 224.546 279.248 224.483C279.311 224.419 279.385 224.37 279.466 224.337C279.547 224.304 279.634 224.289 279.72 224.291C279.807 224.294 279.893 224.315 279.972 224.352C280.051 224.39 280.122 224.444 280.182 224.511C281.642 226.147 283.93 227.769 286.508 226.161C286.659 226.067 286.838 226.04 287.008 226.084C287.177 226.128 287.324 226.241 287.416 226.399C287.503 226.56 287.527 226.752 287.483 226.932C287.438 227.113 287.329 227.267 287.179 227.364C286.326 227.932 285.345 228.246 284.338 228.272Z" fill="#263238"/>
<path d="M307.224 250.521C305.372 252.032 303.254 253.133 300.995 253.76C298.736 254.387 296.382 254.527 294.071 254.171C293.914 254.153 293.769 254.073 293.667 253.945C293.564 253.818 293.511 253.653 293.519 253.486C293.522 253.407 293.54 253.329 293.572 253.258C293.603 253.186 293.648 253.122 293.703 253.069C293.758 253.015 293.822 252.974 293.892 252.947C293.962 252.921 294.036 252.909 294.111 252.913C296.63 253.291 299.197 253.048 301.614 252.205C304.032 251.361 306.234 249.938 308.053 248.046C308.16 247.936 308.304 247.874 308.454 247.874C308.603 247.874 308.747 247.936 308.855 248.046C308.958 248.169 309.016 248.328 309.016 248.494C309.016 248.659 308.958 248.818 308.855 248.941C308.364 249.51 307.82 250.036 307.224 250.521Z" fill="#263238"/>
<path d="M333.885 267.764C336.921 267.16 339.787 265.825 342.263 263.862C342.263 267.4 344.499 273.469 344.499 273.469C355.087 269.763 363.808 247.235 364.978 239.767C370.871 251.402 370.358 244.718 370.818 239.767C371.476 232.65 371.634 225.28 369.358 218.568C367.083 211.855 361.861 205.856 355.232 204.695C353.998 204.572 352.755 204.802 351.633 205.363C350.511 205.924 349.551 206.794 348.853 207.884C347.719 210.048 346.978 212.42 346.669 214.876C343.592 232.51 343.723 253.136 333.885 267.764Z" fill="#263238"/>
<path d="M348.905 227.21C340.803 227.392 335.845 238.257 334.99 245.697C333.977 253.961 339.212 260.772 346.722 257.108C349.522 255.726 352.035 253.763 354.113 251.336C356.19 248.908 357.792 246.064 358.823 242.97C361.322 235.321 357.007 227.056 348.905 227.21Z" fill="#FFB573"/>
<path opacity="0.2" d="M371.383 364.436C371.383 364.436 361.545 411.772 368.372 440.341C375.198 468.911 388.824 483.315 388.824 483.315L391.257 364.45L371.383 364.436Z" fill="black"/>
<path opacity="0.2" d="M388.824 483.315C386.89 483.806 384.87 483.758 382.958 483.175C382.59 487.804 382.235 492.74 381.919 498.012C374.093 502.473 339.199 489.37 308.592 476.295C301.844 473.414 295.307 470.519 289.323 467.82C287.192 466.883 285.153 465.946 283.194 465.023C279.129 463.178 275.42 461.457 272.185 459.947C269.554 458.731 267.239 457.64 265.319 456.717C261.307 454.829 259.006 453.71 259.006 453.71L265.227 454.144L314.353 457.528L327.045 458.409L329.597 458.563L345.315 459.64L356.047 460.367H356.6L367.017 461.08L375.5 461.653L384.97 462.297L388.772 462.562C388.772 462.562 388.982 465.359 389.048 470.044V470.212C389.14 473.694 389.1 478.155 388.824 483.315Z" fill="black"/>
<path d="M409.053 407.255C407.107 429.126 404.239 450.732 401.872 464.912C400.228 474.784 394.98 481.692 388.824 483.343C386.89 483.834 384.869 483.786 382.958 483.203C382.669 483.119 382.392 483.021 382.103 482.909L335.016 470.002L334.608 469.876L329.571 468.477L329.649 458.549V457.752V453.822L329.755 441.418L336.121 441.782L367.227 443.544C367.857 443.732 368.519 443.76 369.161 443.628C371.857 443.082 374.093 439.726 374.422 435.307L375.027 425.714L376.342 404.556L378.881 364.408L381.209 327.238C381.467 323.228 382.061 319.25 382.984 315.352C386.941 315.53 390.804 316.684 394.269 318.722C401.596 322.917 409.553 331.825 410.842 350.088C411.921 365.247 410.921 386.363 409.053 407.255Z" fill="#FFB573"/>
<path d="M352.562 473.596L283.457 459.416C281.573 458.786 279.575 458.647 277.63 459.01L258.164 462.562C256.074 462.948 253.925 462.757 251.924 462.008C249.923 461.259 248.136 459.976 246.734 458.283L237.527 447.18C236.417 445.846 235.571 444.287 235.041 442.598C234.51 440.908 234.306 439.122 234.44 437.346C234.574 435.571 235.043 433.842 235.82 432.264C236.597 430.686 237.665 429.29 238.961 428.161L242.262 425.281C244.407 423.407 247.079 422.351 249.854 422.28C252.628 422.209 255.345 423.128 257.572 424.889C259.821 426.668 262.57 427.585 265.372 427.49H266.516C269.116 427.404 271.676 428.188 273.835 429.731C275.994 431.274 277.644 433.498 278.551 436.09L279.629 439.153L335.963 441.446L352.562 473.596Z" fill="#FFB573"/>
<path opacity="0.1" d="M269.725 440.901C273.027 440.216 276.302 439.656 279.616 439.083L278.551 436.062C277.644 433.47 275.994 431.246 273.835 429.703C271.676 428.16 269.116 427.376 266.516 427.462H265.372C262.57 427.557 259.821 426.64 257.572 424.861C255.345 423.1 252.628 422.181 249.854 422.252C247.079 422.323 244.407 423.379 242.262 425.253L238.961 428.133C236.825 429.999 235.332 432.566 234.718 435.431C234.104 438.297 234.403 441.298 235.567 443.963C241.868 444.593 264.477 441.992 269.725 440.901Z" fill="black"/>
<path opacity="0.2" d="M374.224 458.535C371.906 459.581 369.519 460.446 367.082 461.122C362.492 462.52 356.165 464.282 348.787 466.24C344.394 467.401 339.58 468.617 334.634 469.876C326.374 471.973 317.536 474.169 308.67 476.309C285.535 481.902 262.636 487.258 252.008 489.733C252.311 485.216 252.613 480.797 252.863 476.434C251.008 476.728 249.272 476.91 247.602 476.994V476.658L248.01 473.568L253.008 472.365L265.726 469.289L283.18 465.093L295.965 462.003L314.379 457.542L329.662 453.85L340.934 451.123L349.405 449.082C349.405 449.082 364.833 450.788 372.251 453.542C376.171 454.941 377.815 456.633 374.224 458.535Z" fill="black"/>
<path d="M229.07 438.51L335.121 436.426C337.085 436.249 338.982 435.583 340.658 434.482L357.468 423.421C359.269 422.231 361.328 421.552 363.446 421.45C365.565 421.347 367.673 421.823 369.568 422.833L382.011 429.448C383.505 430.245 384.834 431.353 385.918 432.707C387.001 434.06 387.819 435.631 388.32 437.327C388.822 439.022 388.998 440.808 388.839 442.577C388.679 444.347 388.186 446.064 387.391 447.627L385.378 451.655C384.048 454.245 381.942 456.287 379.394 457.458C376.846 458.629 374.003 458.86 371.318 458.115C368.608 457.36 351.589 460.311 347.932 456.13L345.828 453.752L261.452 474.868C255.471 476.367 249.321 476.965 243.183 476.644L229.07 438.51Z" fill="#FFB573"/>
<path d="M437.2 400.864C434.314 403.072 430.988 404.541 427.48 405.157C404.621 409.185 390.139 407.143 371.712 403.759C368.463 371.246 369.279 346.075 375.145 327.895C377.105 321.854 382.708 313.058 388.706 313.324C414.183 314.457 418.523 341.698 421.43 354.269C425.041 370.376 430.331 386.004 437.2 400.864Z" fill="#FE6D37"/>
<path opacity="0.6" d="M437.2 400.864C434.314 403.072 430.988 404.541 427.48 405.157C404.621 409.185 390.139 407.143 371.712 403.759C368.463 371.246 369.279 346.075 375.145 327.895C377.105 321.854 382.708 313.058 388.706 313.324C414.183 314.457 418.523 341.698 421.43 354.269C425.041 370.376 430.331 386.004 437.2 400.864Z" fill="black"/>
<path d="M328.308 214.316C331.452 205.702 336.055 201.381 333.332 201.968C325.967 203.577 321.127 196.794 315.852 201.031C313.34 204.43 316.655 210.373 316.773 210.037C314.142 211.561 310.657 210.639 308.329 208.639C306.001 206.639 305.054 202.877 303.817 199.941C303.141 203.257 303.364 206.71 304.462 209.897C302.581 211.673 298.425 208.709 296.57 206.975C294.654 204.939 293.189 202.473 292.282 199.759C291.73 202.723 291.296 205.758 293.414 209.198C290.638 209.492 286.969 208.751 285.048 206.597C284.043 205.474 283.277 204.132 282.805 202.664C282.333 201.197 282.165 199.638 282.313 198.095C281.747 199.633 281.918 205.856 283.207 206.779C278.367 205.38 273.724 199.144 273.737 193.802C273.845 191.124 274.555 188.514 275.806 186.188C277.058 183.862 278.815 181.889 280.931 180.433C282.983 179.034 285.298 177.944 287.508 176.657C290.849 174.685 311.854 156.073 344.644 174.518C365.004 185.957 362.203 210.876 359.954 213.673C357.165 217.127 352.601 218.47 348.327 218.218C344.052 217.966 327.506 216.596 328.308 214.316Z" fill="#263238"/>
<path d="M332.675 201.898C330.548 204.331 328.959 207.239 328.026 210.408C327.093 213.578 326.839 216.93 327.282 220.218C328.216 226.762 336.949 237.418 336.489 236.761C336.14 236.073 336.015 235.281 336.134 234.509C336.333 231.549 337.042 228.653 338.225 225.965C338.962 229.629 340.08 237.152 343.605 237.25C344.999 234.551 346.709 232.09 346.472 229.014C347.288 232.16 348.024 235.32 348.84 238.467C352.31 236.072 355.068 232.677 356.791 228.678C358.515 224.679 359.133 220.241 358.573 215.883C358.259 213.855 357.576 211.912 356.56 210.163C355.291 208.247 353.757 206.545 352.01 205.115C347.564 201.101 341.671 197.102 336.226 199.521C335.542 199.843 332.464 201.031 332.675 201.898Z" fill="#263238"/>
<path d="M310.762 223.154C310.762 225.336 309.67 227.084 308.355 227.126C307.04 227.168 305.961 225.434 305.856 223.196C305.751 220.959 306.948 219.267 308.276 219.239C309.604 219.211 310.775 221.001 310.762 223.154Z" fill="#263238"/>
<path d="M108.261 424.959C108.898 421.805 109.337 418.61 109.576 415.394C110.891 404.584 116.863 396.222 124.452 394.585L129.936 393.383C129.936 393.383 121.334 393.383 117.744 390.712C110.141 385.118 108.392 368.337 108.392 368.337C108.392 368.337 106.261 385.118 98.6458 390.712C95.0551 393.383 86.4531 393.383 86.4531 393.383L91.9379 394.585C99.5402 396.222 105.564 404.584 106.827 415.394C107.108 418.612 107.587 421.807 108.261 424.959Z" fill="#FE6D37"/>
<g opacity="0.7">
<path opacity="0.7" d="M108.261 424.959C108.898 421.805 109.337 418.61 109.576 415.394C110.891 404.584 116.863 396.222 124.452 394.585L129.936 393.383C129.936 393.383 121.334 393.383 117.744 390.712C110.141 385.118 108.392 368.337 108.392 368.337C108.392 368.337 106.261 385.118 98.6458 390.712C95.0551 393.383 86.4531 393.383 86.4531 393.383L91.9379 394.585C99.5402 396.222 105.564 404.584 106.827 415.394C107.108 418.612 107.587 421.807 108.261 424.959Z" fill="white"/>
</g>
<path d="M484.025 303.717C484.593 300.998 484.989 298.242 485.208 295.466C486.3 286.153 491.495 278.951 498.046 277.525L502.767 276.504C502.767 276.504 495.349 276.504 492.245 274.196C485.669 269.316 484.182 254.898 484.182 254.898C484.182 254.898 482.341 269.316 475.791 274.196C472.7 276.504 465.269 276.504 465.269 276.504L470.004 277.525C476.58 278.923 481.749 286.153 482.828 295.466C483.06 298.241 483.459 300.997 484.025 303.717Z" fill="#FE6D37"/>
<g opacity="0.7">
<path opacity="0.7" d="M484.025 303.717C484.593 300.998 484.989 298.242 485.208 295.466C486.3 286.153 491.495 278.951 498.046 277.525L502.767 276.504C502.767 276.504 495.349 276.504 492.245 274.196C485.669 269.316 484.182 254.898 484.182 254.898C484.182 254.898 482.341 269.316 475.791 274.196C472.7 276.504 465.269 276.504 465.269 276.504L470.004 277.525C476.58 278.923 481.749 286.153 482.828 295.466C483.06 298.241 483.459 300.997 484.025 303.717Z" fill="white"/>
</g>
<path d="M220.494 155.415C220.757 155.303 221.467 149.822 222.23 143.305C223.822 129.615 231.437 119.029 241.078 116.945L248.023 115.435C248.023 115.435 237.119 115.435 232.582 112.051C222.94 104.891 220.744 83.7188 220.744 83.7188C220.744 83.7188 218.113 104.891 208.42 112.051C203.869 115.435 192.978 115.435 192.978 115.435L199.923 116.945C209.538 119.029 217.166 129.615 218.758 143.305C219.521 149.878 220.218 155.303 220.494 155.415Z" fill="#FE6D37"/>
<g opacity="0.7">
<path opacity="0.7" d="M220.494 155.415C220.757 155.303 221.467 149.822 222.23 143.305C223.822 129.615 231.437 119.029 241.078 116.945L248.023 115.435C248.023 115.435 237.119 115.435 232.582 112.051C222.941 104.891 220.744 83.7188 220.744 83.7188C220.744 83.7188 218.114 104.891 208.42 112.051C203.869 115.435 192.978 115.435 192.978 115.435L199.923 116.945C209.538 119.029 217.166 129.615 218.758 143.305C219.521 149.878 220.218 155.303 220.494 155.415Z" fill="white"/>
</g>
<path d="M522.615 458.395C522.891 458.283 523.601 452.801 524.364 446.285C525.956 432.594 533.571 422.008 543.212 419.925L550.157 418.414C550.157 418.414 539.253 418.414 534.702 415.03C525.075 407.856 522.865 386.684 522.865 386.684C522.865 386.684 520.234 407.856 510.527 415.03C505.99 418.414 495.086 418.414 495.086 418.414L502.031 419.925C511.659 422.008 519.287 432.594 520.879 446.285C521.642 452.857 522.352 458.283 522.615 458.395Z" fill="#FE6D37"/>
<g opacity="0.7">
<path opacity="0.7" d="M522.615 458.395C522.891 458.283 523.601 452.801 524.364 446.285C525.956 432.594 533.571 422.008 543.212 419.925L550.157 418.414C550.157 418.414 539.253 418.414 534.702 415.03C525.075 407.856 522.865 386.684 522.865 386.684C522.865 386.684 520.234 407.856 510.527 415.03C505.99 418.414 495.086 418.414 495.086 418.414L502.031 419.925C511.659 422.008 519.287 432.594 520.879 446.285C521.642 452.857 522.352 458.283 522.615 458.395Z" fill="white"/>
</g>
<path d="M411.894 158.688C412.316 156.669 412.61 154.623 412.775 152.563C413.578 145.654 417.432 140.298 422.298 139.236L425.81 138.481C425.81 138.481 420.299 138.481 418.01 136.774C413.131 133.153 412.013 122.441 412.013 122.441C412.013 122.441 410.697 133.153 405.791 136.774C403.49 138.481 397.979 138.481 397.979 138.481L401.49 139.236C406.357 140.298 410.211 145.654 411.013 152.563C411.186 154.622 411.48 156.667 411.894 158.688Z" fill="#FE6D37"/>
<g opacity="0.7">
<path opacity="0.7" d="M411.894 158.688C412.316 156.669 412.61 154.623 412.775 152.563C413.578 145.654 417.432 140.298 422.298 139.236L425.81 138.481C425.81 138.481 420.299 138.481 418.01 136.774C413.131 133.153 412.013 122.441 412.013 122.441C412.013 122.441 410.697 133.153 405.791 136.774C403.49 138.481 397.979 138.481 397.979 138.481L401.49 139.236C406.357 140.298 410.211 145.654 411.013 152.563C411.186 154.622 411.48 156.667 411.894 158.688Z" fill="white"/>
</g>
<path d="M110.694 244.732C111.123 242.715 111.418 240.668 111.575 238.607C112.378 231.699 116.245 226.343 121.098 225.28L124.61 224.525C124.61 224.525 119.099 224.525 116.81 222.819C111.944 219.197 110.826 208.499 110.826 208.499C110.826 208.499 109.51 219.197 104.591 222.819C102.289 224.525 96.7783 224.525 96.7783 224.525L100.29 225.28C105.157 226.343 109.01 231.699 109.813 238.607C109.986 240.666 110.28 242.712 110.694 244.732Z" fill="#FE6D37"/>
<g opacity="0.7">
<path opacity="0.7" d="M110.694 244.732C111.123 242.715 111.418 240.668 111.575 238.607C112.378 231.699 116.245 226.343 121.098 225.28L124.61 224.525C124.61 224.525 119.099 224.525 116.81 222.819C111.944 219.197 110.826 208.499 110.826 208.499C110.826 208.499 109.51 219.197 104.591 222.819C102.289 224.525 96.7783 224.525 96.7783 224.525L100.29 225.28C105.157 226.343 109.01 231.699 109.813 238.607C109.986 240.666 110.28 242.712 110.694 244.732Z" fill="white"/>
</g>
</svg>
