<svg width="525" height="801" viewBox="0 0 525 801" fill="none" xmlns="http://www.w3.org/2000/svg">
<path d="M-124.288 270.89C-174.922 422.182 -179.832 588.147 -9.511 648.742C78.3063 679.978 273.345 679.114 304.326 560.798C347.038 397.754 155.912 419.17 93.2676 347.692C50.3193 298.713 112.142 205.307 21.4767 167.621C-50.2963 137.825 -103.251 208.007 -124.288 270.89Z" fill="#D9D9D9"/>
<path d="M268.689 893.198C268.632 893.458 134.226 864.378 -31.5078 828.232C-197.241 792.087 -331.551 762.561 -331.494 762.302C-331.438 762.042 -197.067 791.115 -31.2974 827.268C134.472 863.421 268.75 892.92 268.689 893.198Z" fill="#263238"/>
<path d="M396.33 350.922C391.166 363.819 382.387 374.879 371.124 382.677C359.861 390.476 346.63 394.654 333.138 394.673C319.645 394.693 306.51 390.553 295.424 382.787C284.338 375.021 275.81 363.986 270.94 351.103L238.621 349.28L266.388 323.553C266.735 313.372 269.249 303.363 273.754 294.235C278.258 285.107 284.643 277.083 292.457 270.728C300.271 264.374 309.323 259.845 318.974 257.462C328.625 255.078 338.64 254.898 348.309 256.935C357.979 258.972 367.068 263.175 374.934 269.248C382.8 275.321 389.251 283.115 393.831 292.08C398.412 301.044 401.01 310.961 401.442 321.129C401.874 331.296 400.129 341.467 396.33 350.922Z" fill="#FE6D37"/>
<path d="M348.16 354.112C353.51 355.473 358.96 349.299 361.682 338.372C366.316 319.8 356.873 302.937 338.81 298.415C320.746 293.892 303.87 304.122 299.256 322.601C294.844 340.328 304.602 356.521 322.217 360.946C326.983 362.038 331.95 361.935 336.701 360.647L337.211 363.4C332.062 364.825 326.674 364.981 321.488 363.856C302.394 359.051 291.818 341.339 296.636 322.01C301.646 301.888 319.883 290.77 339.498 295.69C358.826 300.546 369.266 318.792 364.206 339.059C361.074 351.606 354.317 358.505 347.178 356.715C343.163 355.703 340.698 351.902 341.798 346.858L342.787 342.838C340.568 345.706 337.585 347.848 334.211 348.995C330.836 350.143 327.221 350.245 323.818 349.289C321.329 348.71 318.988 347.614 316.937 346.067C314.885 344.521 313.167 342.557 311.887 340.294C310.607 338.032 309.791 335.519 309.49 332.908C309.189 330.297 309.408 327.644 310.135 325.11C312.93 313.849 322.714 307.396 333.387 310.073C336.777 310.806 339.87 312.55 342.281 315.09C344.692 317.629 346.316 320.852 346.95 324.358L349.417 314.424L352.398 315.172L344.564 346.606C343.598 350.514 345.337 353.419 348.16 354.112ZM313.28 325.795C312.535 328.994 312.723 332.335 313.821 335.399C314.919 338.462 316.877 341.111 319.449 343.012C322.021 344.914 325.092 345.982 328.276 346.083C331.46 346.184 334.614 345.313 337.341 343.581C340.068 341.848 342.247 339.33 343.603 336.344C344.96 333.359 345.433 330.039 344.963 326.802C344.493 323.565 343.102 320.556 340.964 318.153C338.825 315.75 336.036 314.062 332.947 313.299C330.873 312.73 328.703 312.606 326.57 312.934C324.437 313.262 322.385 314.035 320.543 315.205C318.7 316.376 317.105 317.92 315.856 319.741C314.607 321.562 313.73 323.623 313.28 325.795V325.795Z" fill="white"/>
<path d="M236.145 357.094C233.147 355.391 223.492 371.955 223.588 367.197C223.685 362.439 237.65 348.292 234.452 346.642C230.291 344.491 220.515 362.039 219.586 363.449C218.658 364.859 216.643 363.565 217.536 362.322C218.845 360.548 232.131 341.493 228.059 339.362C225.797 338.169 224.047 342.566 224.047 342.566C224.047 342.566 212.882 361.307 210.989 360.234C209.095 359.16 215.278 347.9 217.63 344.197C219.981 340.494 219.236 338.04 216.86 338.318C215.233 338.527 207.779 349.49 205.551 353.142C203.324 356.794 197.338 366.893 196.369 359.512C195.399 352.132 191.913 346.884 190.017 346.082C189.561 345.962 189.079 345.991 188.636 346.165C188.192 346.339 187.811 346.649 187.543 347.053C187.275 347.457 187.135 347.935 187.141 348.42C187.147 348.906 187.299 349.376 187.576 349.766C188.676 352.016 189.464 354.418 189.917 356.901C190.358 358.875 190.472 360.916 190.257 362.939C189.859 367.003 189.077 371.023 187.921 374.941L187.679 376.054L154.451 426.04L142.443 367.082C140.529 339.349 109.37 331.427 109.37 331.427L78.971 321.32C68.6968 314.397 55.9702 312.418 48.0822 315.01C43.1117 316.736 38.5396 319.523 34.6678 323.186C30.796 326.849 27.7126 331.305 25.621 336.261C10.4976 371.079 -42.8615 495.938 -57.3194 552.563C-59.9466 558.497 -62.2634 564.567 -64.2598 570.749C-67.0265 580.5 -66.1802 580.762 -65.0377 580.876C-61.9281 581.204 -59.455 563.909 -57.9513 567.889C-56.4475 571.87 -63.2746 588.759 -60.0248 588.963C-55.6343 589.201 -53.5484 571.006 -53.2168 569.485C-52.8851 567.965 -50.7804 568.327 -51.1157 569.691C-51.5444 571.657 -56.21 592.359 -52.0415 592.666C-49.7445 592.837 -49.7671 588.538 -49.7671 588.538C-49.7671 588.538 -46.8482 568.854 -44.8769 569.051C-42.9056 569.247 -44.2129 580.852 -44.9545 584.77C-45.696 588.688 -44.1885 590.493 -42.2018 589.411C-40.9052 588.645 -38.4146 576.793 -37.771 572.893C-37.1274 568.992 -35.6091 558.405 -32.2442 564.21C-28.8793 570.014 -24.145 573.164 -22.2649 573.089C-21.8389 573.02 -21.4422 572.818 -21.1296 572.509C-20.8169 572.201 -20.6036 571.801 -20.519 571.366C-20.4343 570.931 -20.4826 570.481 -20.6571 570.078C-20.8315 569.676 -21.1236 569.341 -21.4932 569.119C-23.1943 567.641 -24.6892 565.929 -25.9368 564.031C-26.9585 562.573 -27.7428 560.953 -28.2594 559.231C-28.4198 558.672 -28.5343 558.161 -28.6848 557.642C-25.6358 546.942 0.873867 455.082 30.7245 394.685L35.4426 387.379C35.7381 401.043 28.0774 427.192 18.925 437.222C3.86774 453.87 -5.46616 500.811 -5.46616 500.811L94.0503 526.653C94.0503 526.653 97.027 509.293 100.935 487.143L112.79 422.083L115.74 409.768L116.49 408.572C119.599 417.623 123.436 429.203 128.077 443.912C143.561 492.807 175.901 445.677 175.901 445.677L210.813 388.054C217.95 381.426 224.739 374.411 231.152 367.04C237.997 358.353 237.238 357.78 236.145 357.094Z" fill="#E5BAAB"/>
<path d="M-26.765 820.466L-23.1248 803.776L-53.5028 796.937L-59.1054 821.417L-57.2469 821.958C-48.9724 824.326 -14.9943 833.388 -8.99777 832.909C-2.28957 832.273 -26.765 820.466 -26.765 820.466Z" fill="#FE6D37"/>
<path d="M6.64092 821.535L14.9513 806.562L-11.9848 790.76L-24.3546 812.522L-22.7113 813.618C-15.5121 818.413 14.1844 837.44 20.0402 838.814C26.5232 840.248 6.64092 821.535 6.64092 821.535Z" fill="#FE6D37"/>
<path d="M108.324 333.375C108.617 329.786 113.595 315.68 113.595 315.68C113.595 315.68 126.726 317.533 130.779 304.643C134.833 291.753 141.62 261.412 141.62 261.412L121.347 243.799L90.7253 257.325L80.4662 271.135L81.9551 306.429L78.1855 323.713L108.324 333.375Z" fill="#E5BAAB"/>
<path d="M135.604 281.314C135.714 281.241 135.717 280.795 135.251 280.169C134.7 279.381 133.915 278.8 133.011 278.512C132.108 278.224 131.134 278.244 130.235 278.57C129.557 278.83 129.239 279.168 129.304 279.299C129.37 279.43 130.965 279.02 132.668 279.586C132.888 279.652 133.103 279.738 133.308 279.842C133.027 279.925 132.77 280.082 132.565 280.298C132.359 280.513 132.212 280.781 132.138 281.072C132.064 281.363 132.066 281.669 132.144 281.957C132.221 282.246 132.371 282.507 132.579 282.715C132.787 282.922 133.045 283.069 133.328 283.14C133.61 283.211 133.907 283.204 134.188 283.12C134.469 283.035 134.724 282.876 134.928 282.658C135.132 282.441 135.277 282.172 135.349 281.88C135.427 281.692 135.471 281.491 135.478 281.287C135.478 281.287 135.538 281.358 135.604 281.314Z" fill="#263238"/>
<path d="M116.245 276.432C116.373 276.362 116.362 275.894 115.91 275.29C115.363 274.498 114.58 273.912 113.677 273.618C112.766 273.332 111.788 273.35 110.88 273.669C110.22 273.933 109.901 274.271 109.967 274.402C110.033 274.533 111.606 274.138 113.33 274.689C113.609 274.783 113.879 274.901 114.139 275.04C113.894 275.1 113.664 275.216 113.468 275.379C113.272 275.543 113.114 275.75 113.005 275.984C112.897 276.219 112.842 276.475 112.843 276.733C112.845 276.991 112.904 277.245 113.015 277.475C113.126 277.705 113.287 277.905 113.485 278.061C113.683 278.216 113.914 278.323 114.16 278.373C114.405 278.423 114.659 278.415 114.903 278.349C115.146 278.283 115.373 278.161 115.565 277.993C115.777 277.793 115.936 277.542 116.027 277.262C116.118 276.982 116.137 276.684 116.083 276.396L116.245 276.432Z" fill="#263238"/>
<path d="M118.717 293.232C119.713 293.228 120.705 293.346 121.671 293.584C122.12 293.682 122.569 293.78 122.744 293.41C122.935 292.924 122.979 292.392 122.87 291.884C122.787 290.622 122.707 289.264 122.583 287.936C122.267 284.475 122.196 280.993 122.371 277.515C122.626 278.503 122.771 279.518 122.802 280.543C122.975 282.426 123.164 285.012 123.328 287.884L123.543 291.817C123.654 292.456 123.556 293.117 123.265 293.699C123.159 293.844 123.021 293.962 122.863 294.042C122.704 294.123 122.53 294.163 122.355 294.161C122.089 294.15 121.828 294.093 121.582 293.992C120.598 293.866 119.635 293.611 118.717 293.232V293.232Z" fill="#263238"/>
<path d="M112.523 293.493C113.826 294.341 116.648 297.715 120.213 298.628C119.347 299.383 118.262 299.816 117.135 299.856C116.008 299.896 114.906 299.541 114.01 298.849C110.692 296.28 112.523 293.493 112.523 293.493Z" fill="#EFEDE9"/>
<path d="M113.595 315.68C107.646 313.899 102.335 310.403 98.2871 305.6C98.2871 305.6 99.7455 316.176 112.514 318.825L113.595 315.68Z" fill="#D78776"/>
<path d="M154.489 243.664C153.744 242.539 152.736 241.626 151.556 241.009C150.376 240.392 149.06 240.09 147.73 240.131C145.08 240.236 142.44 240.564 139.836 241.11C137.212 241.642 134.502 241.223 132.169 239.923C129.128 237.9 128.092 233.847 125.708 231.054C124.655 229.83 123.349 228.864 121.884 228.224C120.418 227.585 118.83 227.288 117.231 227.355C115.632 227.422 114.063 227.851 112.635 228.612C111.207 229.373 109.956 230.446 108.971 231.755C106.85 234.576 105.556 238.782 102.298 239.567C99.6089 240.243 97.0506 238.422 94.671 236.99C92.4892 235.621 89.946 234.972 87.3781 235.128C86.0958 235.242 84.8676 235.733 83.84 236.543C82.8124 237.352 82.0288 238.445 81.5825 239.692C80.9291 241.997 81.8095 244.521 81.2239 246.86C80.3355 250.416 76.519 252.206 73.1397 253.373C69.7604 254.54 65.9228 255.996 64.5613 259.39C64.1267 260.882 64.0485 262.455 64.3332 263.976C64.618 265.496 65.2573 266.918 66.1964 268.12C68.076 270.51 69.8325 273 71.4587 275.581C72.844 278.292 73.236 281.933 71.2838 284.324C70.2918 285.507 68.8034 286.289 68.1923 287.71C67.1431 290.104 69.0024 292.627 70.9376 294.37C72.7974 296.308 75.0291 297.826 77.4944 298.831C78.4907 299.172 79.5399 299.328 80.5938 299.293C81.238 304.971 81.2916 309.645 81.2916 309.645C82.6493 313.69 85.1974 302.007 85.1974 302.007C85.1974 302.007 88.6988 290.959 87.89 286.295C87.89 286.295 80.8548 287.48 81.3476 274.863C81.5759 268.637 91.0173 267.122 92.2594 274.892L97.7495 276.303C97.7495 276.303 102.211 252.739 114.124 259.572C135.136 271.635 148.868 266.761 154.557 248.186C154.896 247.476 155.066 246.696 155.054 245.909C155.043 245.123 154.849 244.353 154.489 243.664V243.664Z" fill="#263238"/>
<path d="M88.2197 282.539C88.2197 282.539 88.0077 282.648 87.6617 282.767C87.1712 282.896 86.6537 282.825 86.2179 282.569C85.5841 281.994 85.1119 281.255 84.8495 280.427C84.5871 279.598 84.5438 278.71 84.724 277.853C84.8445 276.871 85.1789 275.928 85.7023 275.094C85.86 274.754 86.0952 274.458 86.3874 274.23C86.6796 274.003 87.0202 273.851 87.3798 273.789C87.6097 273.763 87.8401 273.82 88.0315 273.95C88.2228 274.081 88.3633 274.276 88.4288 274.503C88.5218 274.854 88.4193 275.064 88.4692 275.095C88.519 275.125 88.7473 274.942 88.7226 274.451C88.707 274.162 88.5932 273.89 88.401 273.681C88.2709 273.54 88.1144 273.427 87.9407 273.349C87.7671 273.271 87.5796 273.23 87.3893 273.227C86.9349 273.263 86.4949 273.415 86.1101 273.671C85.7253 273.926 85.4082 274.277 85.1879 274.69C84.5649 275.604 84.1614 276.655 84.0111 277.755C83.8001 278.76 83.8806 279.802 84.2427 280.752C84.6047 281.701 85.2322 282.516 86.0467 283.095C86.3357 283.253 86.6593 283.334 86.9885 283.332C87.3176 283.329 87.642 283.242 87.9326 283.079C88.1752 282.743 88.2736 282.551 88.2197 282.539Z" fill="#D78776"/>
<path d="M98.7616 500.909L59.5388 489.052L0.139404 470.794L-66.2426 807.621L-13.5639 818.372C-13.5639 818.372 -12.755 814.663 -11.449 808.07L17.5119 823.478C17.5119 823.478 70.3367 725.409 89.9247 684.707C106.22 650.728 98.7616 500.909 98.7616 500.909ZM-0.632586 755.799C15.441 678.215 41.3565 554.209 45.9633 538.351C45.9633 538.351 51.8197 652.793 50.0953 661.994C49.0616 667.597 21.0985 717.527 -0.632586 755.799Z" fill="#263238"/>
<path opacity="0.2" d="M-0.632754 755.799L-11.4451 808.052L-3.48925 812.312L11.2878 734.717L-0.632754 755.799Z" fill="black"/>
<path d="M45.3793 537.835C45.2378 537.707 47.0987 535.821 49.1282 532.125C51.6697 527.253 53.4776 522.02 54.4893 516.607C55.8645 510.301 56.6731 504.436 57.7309 500.276C58.1084 498.631 58.5694 497.007 59.1123 495.409C59.269 494.781 59.5207 494.18 59.8582 493.629C60.0199 493.665 59.296 496.207 58.394 500.343C57.4921 504.478 56.7994 510.33 55.4758 516.744C54.4471 522.263 52.5 527.57 49.7207 532.43C48.8463 533.884 47.8306 535.244 46.6894 536.489C46.3278 537.009 45.885 537.464 45.3793 537.835Z" fill="#455A64"/>
<path d="M49.0765 494.211C49.0765 494.211 49.347 493.921 49.9746 493.805C50.8919 493.659 51.825 493.862 52.5981 494.377C53.2112 494.738 53.7074 495.276 54.0268 495.924C54.3462 496.573 54.4753 497.306 54.3985 498.034C54.3539 498.951 54.0176 499.832 53.4414 500.541C52.8653 501.251 52.0811 501.748 51.2096 501.958C50.3382 502.167 49.4277 502.077 48.6183 501.701C47.8089 501.325 47.1455 500.685 46.7301 499.877C46.3618 499.252 46.1799 498.526 46.2066 497.79C46.2334 497.055 46.4677 496.34 46.8809 495.733C47.3798 494.93 48.1375 494.331 49.019 494.043C49.6408 493.868 50.0002 493.946 50.002 494.025C48.9723 494.418 48.0996 495.16 47.5292 496.127C47.2497 496.619 47.1051 497.178 47.111 497.744C47.1169 498.311 47.2731 498.862 47.5626 499.34C47.8676 499.985 48.3753 500.504 49.0046 500.812C49.6339 501.121 50.3484 501.202 51.0338 501.043C51.7192 500.883 52.3359 500.493 52.7851 499.933C53.2343 499.374 53.4901 498.678 53.5117 497.957C53.5756 497.397 53.4937 496.833 53.2746 496.32C53.0554 495.808 52.7069 495.367 52.2648 495.043C51.3303 494.398 50.2051 494.104 49.0765 494.211V494.211Z" fill="#455A64"/>
<path d="M98.9728 518.323C97.6979 518.925 96.2932 519.162 94.9075 519.01C91.5204 518.918 88.2907 517.592 85.7921 515.269C83.2935 512.945 81.6878 509.775 81.2603 506.32C80.9745 504.928 81.0633 503.476 81.5172 502.122C81.6969 502.161 81.5229 503.735 82.02 506.117C82.6593 509.297 84.2289 512.187 86.5191 514.403C88.8843 516.541 91.8436 517.865 94.9916 518.193C97.4121 518.488 98.9373 518.141 98.9728 518.323Z" fill="#455A64"/>
<path d="M21.6938 480.371C21.6938 480.371 21.8761 480.916 21.9035 481.913C21.9268 483.322 21.7652 484.731 21.4229 486.101C20.354 490.736 17.5768 494.783 13.6812 497.384C9.78566 499.984 5.07849 500.932 0.559334 500.027C-0.792085 499.78 -2.10355 499.35 -3.34093 498.749C-3.80749 498.564 -4.23305 498.286 -4.59339 497.932C-2.83516 498.48 -1.04763 498.928 0.761083 499.274C5.07669 499.941 9.50099 498.95 13.1927 496.489C16.8844 494.027 19.5861 490.267 20.7841 485.923C21.198 484.092 21.5018 482.238 21.6938 480.371Z" fill="#455A64"/>
<path d="M-56.2566 796.53C-56.5441 796.467 -42.9476 730.155 -25.8383 648.426C-8.72889 566.696 5.31681 500.481 5.60432 500.544C5.89183 500.607 -7.71856 566.897 -24.814 648.649C-41.9095 730.401 -55.9691 796.593 -56.2566 796.53Z" fill="#455A64"/>
<path d="M-1.82094 769.276C-1.74886 769.066 -1.65452 768.865 -1.53967 768.676L-0.650023 766.928C0.19108 765.402 1.36153 763.228 2.84514 760.482C5.9566 754.847 10.4209 746.806 15.8971 736.888C21.3732 726.97 28.0292 715.095 35.3538 701.966C39.0251 695.404 42.8811 688.513 46.8696 681.359L53.0075 670.478C53.9933 668.634 55.175 666.755 56.0988 664.936C56.4881 662.88 56.6723 660.791 56.6487 658.703C56.6596 650.021 56.3045 641.551 55.9205 633.386C55.5366 625.22 55.0201 617.317 54.5386 609.771C53.5635 594.736 52.5564 581.228 51.7194 569.874C50.8824 558.521 50.1773 549.411 49.6769 542.988C49.4534 539.87 49.2901 537.425 49.1608 535.688L49.0622 533.723C49.0363 533.504 49.0342 533.282 49.0559 533.062C49.1073 533.273 49.1422 533.488 49.1601 533.706C49.2247 534.186 49.293 534.823 49.3868 535.601C49.552 537.347 49.7913 539.788 50.1127 542.889C50.5992 549.29 51.4799 558.457 52.4809 569.749C53.4819 581.041 54.5847 594.628 55.5319 609.619C56.0394 617.131 56.56 625.016 56.9677 633.245C57.3755 641.474 57.8147 649.904 57.7116 658.663C57.6967 659.767 57.6679 660.848 57.5811 661.937C57.5673 662.491 57.5157 663.045 57.4268 663.593C57.3763 664.175 57.2512 664.749 57.0547 665.299C56.1004 667.345 54.987 669.084 53.9392 670.953L47.8013 681.834C43.7809 688.962 39.907 695.849 36.2177 702.407L16.5574 737.227C10.9456 747.076 6.39955 755.06 3.22026 760.661L-0.460442 767.008C-0.851785 767.68 -1.17484 768.212 -1.43768 768.64C-1.5466 768.863 -1.67489 769.076 -1.82094 769.276Z" fill="#455A64"/>
<path d="M-8.31836 793.541C-6.75855 794.276 -5.26787 795.153 -3.86428 796.164L7.21093 803.126L18.2902 810.069C19.8779 810.951 21.3788 811.987 22.773 813.164C21.0779 812.527 19.4511 811.716 17.9168 810.745C14.9744 809.132 10.987 806.786 6.64705 804.071C2.30708 801.357 -1.60566 798.755 -4.27359 796.833C-5.76257 795.931 -7.12322 794.823 -8.31836 793.541Z" fill="#455A64"/>
<path d="M-1.98888 633.325C-1.7072 633.112 -1.39158 632.95 -1.05665 632.849C-0.117655 632.487 0.873194 632.296 1.87156 632.283C3.47541 632.247 5.05637 632.632 6.46548 633.401C8.34089 634.471 9.80786 636.158 10.6341 638.196C11.5608 640.696 11.6864 643.445 10.9929 646.045C10.3943 648.79 9.61782 651.573 8.85657 654.632C8.14343 657.834 7.1934 660.978 6.01484 664.037C5.34929 665.692 4.38063 667.202 3.16224 668.486C1.81682 669.818 0.0683057 670.632 -1.78234 670.788C-3.57817 670.831 -5.34802 670.394 -6.91922 669.52C-8.49043 668.646 -9.80931 667.365 -10.7471 665.802C-12.3946 662.894 -13.1126 659.519 -12.8013 656.145C-12.2973 650.586 -10.6948 645.177 -8.09242 640.251C-7.17379 638.312 -5.98949 636.515 -4.57621 634.918C-3.47076 633.686 -2.00685 632.859 -0.41062 632.562C0.596211 632.371 1.63178 632.495 2.56111 632.919C2.88543 633.047 3.17603 633.25 3.4106 633.512C2.26289 632.902 0.941597 632.716 -0.333834 632.987C-1.81356 633.327 -3.15096 634.154 -4.14183 635.343C-5.46151 636.934 -6.56829 638.699 -7.43205 640.589C-9.86365 645.464 -11.353 650.769 -11.8165 656.204C-12.0869 659.352 -11.4125 662.497 -9.88452 665.213C-9.03667 666.609 -7.85228 667.753 -6.4445 668.536C-5.03672 669.319 -3.45259 669.715 -1.84337 669.686C-0.262564 669.536 1.22482 668.823 2.36129 667.67C3.53649 666.518 4.47769 665.137 5.12895 663.611C6.28319 660.604 7.22675 657.518 7.95227 654.377C8.73733 651.381 9.58796 648.517 10.1843 645.869C10.8603 643.467 10.7909 640.918 9.98585 638.579C9.23619 636.682 7.90383 635.096 6.19003 634.06C4.88817 633.286 3.41352 632.864 1.90207 632.833C0.590989 632.795 -0.720763 632.961 -1.98888 633.325Z" fill="#455A64"/>
<path d="M70.0482 665.277C66.6281 665.363 63.2135 665.08 59.8598 664.435C56.4572 664.149 53.0981 663.495 49.8382 662.482C53.2573 662.408 56.6701 662.696 60.0225 663.343C63.4249 663.629 66.7848 664.277 70.0482 665.277Z" fill="#455A64"/>
<path d="M65.2892 670.612C60.3309 668.723 55.6561 666.141 51.395 662.938C53.9345 663.729 56.3587 664.858 58.6061 666.298C61.0126 667.424 63.2598 668.875 65.2892 670.612V670.612Z" fill="#455A64"/>
<path d="M92.9111 659.015C93.1822 659.178 93.423 659.388 93.6226 659.637C94.2272 660.335 94.6574 661.175 94.8767 662.086C95.6016 664.459 95.1166 668.064 94.1388 672.202C93.1659 677.18 91.2298 681.919 88.4462 686.133C86.7122 688.627 84.4787 690.711 81.8993 692.243C80.5294 693.115 78.9887 693.656 77.3942 693.825C76.5217 693.859 75.6574 693.671 74.8785 693.277C74.0813 692.856 73.437 692.185 73.0376 691.36C72.3951 689.797 72.1528 688.086 72.3335 686.388C72.3804 684.806 72.5173 683.227 72.7436 681.66C73.1974 678.703 73.9565 675.801 75.008 673.003C76.7999 668.266 79.449 663.911 82.8133 660.174C84.079 658.65 85.7352 657.522 87.5885 656.922C88.306 656.725 89.0538 656.684 89.7834 656.803C90.513 656.922 91.2083 657.198 91.824 657.613C92.6215 658.141 93.1949 658.958 93.4321 659.906C93.5218 660.224 93.5387 660.56 93.4814 660.888C93.4814 660.888 93.4244 660.545 93.2282 659.978C92.9063 659.169 92.3312 658.497 91.593 658.067C91.0212 657.71 90.3807 657.484 89.7138 657.402C89.0469 657.32 88.3689 657.385 87.7246 657.593C85.9864 658.202 84.4428 659.299 83.2692 660.759C80.0643 664.483 77.5458 668.775 75.84 673.418C74.838 676.152 74.1193 678.985 73.696 681.867C73.4834 683.392 73.35 684.925 73.2963 686.462C73.1423 687.978 73.3523 689.505 73.9078 690.908C74.2178 691.531 74.7075 692.038 75.3105 692.36C75.9136 692.683 76.6009 692.806 77.2793 692.712C78.7227 692.569 80.1181 692.082 81.3545 691.289C83.7935 689.834 85.9105 687.865 87.5649 685.514C90.2993 681.42 92.2461 676.831 93.2982 671.999C94.3702 668.838 94.7364 665.478 94.3691 662.17C94.1124 661.019 93.6149 659.943 92.9111 659.015Z" fill="#455A64"/>
<path d="M196.609 327.684L196.893 383.95L226.307 383.818L228.504 326.617L196.609 327.684Z" fill="#263238"/>
<path d="M199.331 331.173L199.146 376.126L224.828 375.238L225.542 330.187L199.331 331.173Z" fill="white"/>
<path d="M214.756 380.075C214.644 380.605 214.382 381.091 214.002 381.472C213.623 381.852 213.144 382.109 212.626 382.21C212.107 382.311 211.574 382.252 211.093 382.04C210.611 381.827 210.204 381.472 209.923 381.018C209.642 380.564 209.499 380.033 209.513 379.492C209.527 378.95 209.697 378.423 210.002 377.978C210.307 377.532 210.732 377.188 211.224 376.99C211.716 376.791 212.252 376.747 212.765 376.862C213.446 377.011 214.039 377.433 214.412 378.035C214.786 378.638 214.909 379.371 214.756 380.075V380.075Z" fill="#455A64"/>
<path d="M218.031 329.151L206.346 329.303L206.345 329.478L218.031 329.326L218.031 329.151Z" fill="#455A64"/>
<path d="M223.419 333.655L200.892 333.95L200.885 352.448L223.411 352.154L223.419 333.655Z" fill="#F0F0F0"/>
<path d="M201.039 354.586L201.303 361.229L223.429 360.849L223.43 353.68L201.039 354.586Z" fill="#E0E0E0"/>
<path d="M201.474 363.812L201.313 373.782L223.273 372.957L223.264 363.416L201.474 363.812Z" fill="#EBEBEB"/>
<path d="M33.7462 391.361C32.4634 394.481 30.551 399.193 28.2909 404.722C40.4468 407.937 54.9824 411.806 70.7915 416.051C87.3791 420.523 102.789 424.7 115.222 428.111L118.158 414.045C105.696 410.764 90.6798 406.77 74.4116 402.386C59.403 398.355 45.5045 394.586 33.7462 391.361Z" fill="#FE6D37"/>
<path d="M29.6292 327.033C26.2491 331.013 23.1563 335.241 20.376 339.683C33.6582 343.084 58.2755 349.58 86.44 357.16C111.478 363.884 133.703 369.955 147.582 373.817C146.79 368.422 145.651 363.092 144.172 357.862C130.331 354.26 111.186 349.172 90.0601 343.496C65.4311 336.881 43.5614 330.907 29.6292 327.033Z" fill="#FE6D37"/>
<path d="M108.883 331.418C107.709 332.434 106.431 333.315 105.072 334.045C114.567 336.601 123.473 339.01 131.466 341.2C124.376 336.978 116.79 333.692 108.883 331.418V331.418Z" fill="#FE6D37"/>
<path d="M31.8154 483.764L98.1761 509.893L99.9275 501.863C86.7015 498.376 69.6704 493.865 51.2521 488.897L31.8154 483.764Z" fill="#FE6D37"/>
<path d="M119.341 421.996L126.099 416.126L118.23 414.06L119.341 421.996Z" fill="#FE6D37"/>
<path d="M10.1099 448.121C7.90151 452.982 5.75959 457.624 3.99556 461.397C17.5491 464.936 35.4665 469.698 55.1305 474.997C73.1615 479.843 89.7092 484.326 102.763 487.911L105.703 473.826C92.7426 470.417 76.4443 466.085 58.7686 461.337C40.2686 456.311 23.2937 451.715 10.1099 448.121Z" fill="#FE6D37"/>
<path d="M3.65429 462.1C1.3439 466.997 -0.208937 470.233 -0.208937 470.233L23.8928 480.56C32.4153 482.826 41.6844 485.295 51.3727 487.913C69.8489 492.875 86.7699 497.459 99.9635 501.094L102.531 488.715C89.4492 485.26 72.8633 480.866 54.8004 475.994C35.1323 470.713 17.1673 465.824 3.65429 462.1Z" fill="#FE6D37"/>
<path d="M16.3646 433.943C14.5534 438.191 12.5453 442.824 10.4879 447.252C23.7 450.716 40.6192 455.222 59.0595 460.176C76.7351 464.925 92.9773 469.341 105.892 472.877L108.832 458.792C95.9969 455.41 80.0179 451.167 62.6976 446.516C45.3772 441.864 29.1948 437.519 16.3646 433.943Z" fill="#FE6D37"/>
<path d="M12.3634 353.807C9.57816 359.242 7.42994 363.999 5.88427 367.547C15.9584 370.036 44.6764 377.581 78.5125 386.69C104.104 393.553 126.702 399.725 140.523 403.594L149.838 395.407C149.838 395.407 149.731 393.655 149.482 390.822C136.556 387.517 111.21 380.824 82.0828 372.995C50.948 364.534 24.1074 357.184 12.3634 353.807Z" fill="#FE6D37"/>
<path d="M5.83149 367.788C4.61517 370.69 3.94924 372.449 3.94924 372.449L35.4304 387.435C35.4304 387.435 34.978 388.56 34.1737 390.522C45.9563 393.636 59.8709 397.331 74.7937 401.324C94.9748 406.755 113.311 411.667 126.916 415.489L140.13 404.014C126.195 400.411 103.736 394.464 78.4318 387.663C44.4439 378.56 15.7587 370.692 5.83149 367.788Z" fill="#FE6D37"/>
<path d="M27.9529 405.581C26.2598 409.719 24.4157 414.29 22.5115 418.965C34.9729 422.246 50.3449 426.337 66.8827 430.779C83.8297 435.33 99.469 439.576 112.114 443.053L115.05 428.986C102.498 425.686 87.1305 421.576 70.5747 417.13C54.7297 412.878 40.1564 408.923 27.9529 405.581Z" fill="#FE6D37"/>
<path d="M20.0651 340.159C17.2044 344.644 14.7431 349.197 12.5604 353.423C24.4652 356.407 51.3085 363.486 82.5134 371.884C111.518 379.667 136.708 386.56 149.58 390.202C149.239 386.243 148.631 380.573 147.692 374.521C133.757 370.918 111.369 364.987 86.1515 358.224C57.8613 350.616 33.2206 343.882 20.0651 340.159Z" fill="#FE6D37"/>
<path d="M22.1817 419.787C21.0475 422.57 19.9094 425.372 18.8013 428.122C18.1498 429.728 17.4421 431.42 16.7003 433.181C29.553 436.567 45.5818 440.84 62.956 445.503C80.3303 450.167 96.2171 454.486 109.006 457.994L111.942 443.928C99.2326 440.574 83.5591 436.398 66.5941 431.843C50.0025 427.389 34.6826 423.232 22.1817 419.787Z" fill="#FE6D37"/>
<path d="M84.4099 328.489C82.2182 326.135 80.2987 323.526 78.6889 320.714C78.6889 320.714 62.9136 308.978 47.5683 313.655C45.1714 314.41 42.8853 315.507 40.7773 316.914C52.4422 319.963 67.5887 323.966 84.4099 328.489Z" fill="#FE6D37"/>
<path d="M39.9188 317.485C36.3019 320.045 33.007 323.06 30.112 326.458C44.1148 330.095 65.8992 335.856 90.3485 342.432C111.244 348.038 130.132 353.187 143.91 356.989C143.047 353.779 141.617 350.768 139.692 348.103C137.97 346.098 136.012 344.32 133.863 342.811C124.855 340.438 114.57 337.709 103.614 334.776C96.6122 337.62 90.4461 334.216 85.9922 330.039C68.091 325.202 52.0424 320.847 39.9188 317.485Z" fill="#FE6D37"/>
<path d="M30.1119 326.458C29.9416 326.641 29.7804 326.833 29.629 327.033C43.5611 330.907 65.4309 336.881 90.0419 343.492C111.167 349.168 130.321 354.219 144.153 357.858L143.892 356.985C130.114 353.183 111.226 348.034 90.3304 342.428C65.8789 335.949 44.1686 330.107 30.1119 326.458Z" fill="#263238"/>
<path d="M131.466 341.2C123.472 339.01 114.567 336.601 105.072 334.045C104.565 334.297 104.061 334.537 103.56 334.764C114.57 337.709 124.909 340.45 133.809 342.799C133.081 342.252 132.273 341.726 131.466 341.2Z" fill="#263238"/>
<path d="M40.7855 316.877C40.4854 317.045 40.2132 317.257 39.927 317.448C52.0505 320.81 68.0991 325.165 85.9464 329.99C85.4163 329.486 84.9083 328.967 84.4002 328.448C67.5888 323.966 52.4423 319.963 40.7855 316.877Z" fill="#263238"/>
<path d="M20.3881 339.627C20.2944 339.792 20.1906 339.951 20.0772 340.103C33.2326 343.827 57.8733 350.561 86.1636 358.168C111.382 364.931 133.769 370.863 147.704 374.465C147.748 374.261 147.635 374.003 147.594 373.761C133.715 369.899 111.49 363.828 86.4521 357.105C58.2754 349.58 33.6581 343.084 20.3881 339.627Z" fill="#263238"/>
<path d="M12.5521 353.46L12.3554 353.844C24.0993 357.222 50.9399 364.571 82.2387 372.971C111.365 380.8 136.711 387.493 149.638 390.798C149.675 390.631 149.603 390.441 149.572 390.24C136.7 386.597 111.51 379.705 82.5052 371.922C51.3083 363.486 24.465 356.408 12.5521 353.46Z" fill="#263238"/>
<path d="M5.88428 367.547C5.86842 367.66 5.84409 367.772 5.81148 367.881C15.7387 370.784 44.4239 378.653 78.3179 387.755C103.622 394.556 126.081 400.503 140.016 404.105L140.594 403.61C126.774 399.741 104.176 393.569 78.5844 386.705C44.7685 377.504 16.0505 369.959 5.88428 367.547Z" fill="#263238"/>
<path d="M34.0839 390.502C34.0233 390.78 33.9586 391.077 33.746 391.361C45.5044 394.586 59.4568 398.367 74.4115 402.386C90.6797 406.77 105.75 410.775 118.158 414.045L118.194 413.878L118.158 414.045L126.028 416.111L126.75 415.472C113.13 411.724 94.7732 406.73 74.6281 401.307C59.7812 397.311 45.8665 393.616 34.0839 390.502Z" fill="#263238"/>
<path d="M28.2907 404.722C28.226 405.019 28.0714 405.296 27.9528 405.581C40.1024 408.911 54.7296 412.878 70.5028 417.115C87.1304 421.576 102.516 425.69 114.978 428.971L115.168 428.099C102.735 424.688 87.325 420.511 70.7374 416.039C55.072 411.826 40.3748 407.921 28.2907 404.722Z" fill="#263238"/>
<path d="M22.5114 418.965C22.4507 419.243 22.3861 419.54 22.1816 419.787C34.6107 423.216 50.0024 427.389 66.6121 431.847C83.5771 436.401 99.2506 440.577 111.959 443.932L112.15 443.06C99.5049 439.584 83.8656 435.338 66.9185 430.787C50.3448 426.337 35.0267 422.258 22.5114 418.965Z" fill="#263238"/>
<path d="M16.7003 433.181L16.3525 433.999C29.1949 437.519 45.2434 441.874 62.6855 446.571C80.1276 451.269 95.9848 455.466 108.82 458.848L108.998 458.032C96.2091 454.524 80.2683 450.192 62.948 445.541C45.6276 440.889 29.553 436.567 16.7003 433.181Z" fill="#263238"/>
<path d="M10.4758 447.307C10.4192 447.567 10.2328 447.818 10.1182 448.084C23.3118 451.719 40.3227 456.323 58.7769 461.299C76.4526 466.048 92.7509 470.38 105.711 473.789L105.906 472.899C92.9913 469.364 76.7492 464.947 59.0735 460.198C40.6071 455.277 23.6879 450.771 10.4758 447.307Z" fill="#263238"/>
<path d="M4.0039 461.36C3.94727 461.619 3.76488 461.852 3.65435 462.1C17.1674 465.824 35.1324 470.713 54.8544 476.005C72.9173 480.877 89.5032 485.272 102.585 488.727L102.767 487.892C89.7135 484.307 73.1658 479.824 55.1348 474.978C35.4748 469.661 17.5574 464.899 4.0039 461.36Z" fill="#263238"/>
<path d="M23.9468 480.571L30.7315 483.469L31.8277 483.708L51.1723 488.918C69.6445 493.898 86.6216 498.398 99.8476 501.884L99.9554 501.908L100.137 501.073C86.9438 497.438 69.933 492.835 51.5466 487.892C41.7384 485.306 32.4693 482.838 23.9468 480.571Z" fill="#263238"/>
<path d="M115.714 427.752C115.426 427.689 116.532 416.663 118.205 403.04C119.877 389.417 121.45 378.492 121.666 378.539C121.881 378.586 120.847 389.628 119.175 403.251C117.503 416.874 116.01 427.778 115.714 427.752Z" fill="#263238"/>
<path d="M126.206 374.031C126.404 374.249 125.283 375.676 123.629 377.219C121.975 378.762 120.583 379.876 120.368 379.655C120.153 379.433 121.312 377.918 122.95 376.449C124.588 374.98 126.009 373.813 126.206 374.031Z" fill="#263238"/>
<path d="M97.2295 428.267C97.3166 428.558 83.1767 432.973 65.6508 438.068C48.1248 443.162 33.8664 447.085 33.7972 446.798C33.728 446.511 47.8679 442.096 65.3719 437.016C82.8758 431.936 97.1644 427.961 97.2295 428.267Z" fill="#263238"/>
<path d="M97.4835 441.688C95.3934 441.86 93.2958 441.87 91.2084 441.718L76.222 441.383L61.1871 441.271C59.0956 441.376 57.0014 441.309 54.9246 441.071C56.9911 440.666 59.0889 440.472 61.1872 440.494C64.9954 440.295 70.4017 440.192 76.2949 440.272C82.1881 440.353 87.5094 440.639 91.3962 440.943C93.4449 441.007 95.4819 441.256 97.4835 441.688V441.688Z" fill="#263238"/>
<path d="M40.9606 369.933C40.8134 371.564 40.4627 373.172 39.9171 374.717C39.1662 377.642 37.975 381.637 36.4431 385.985C34.9113 390.333 33.2969 394.197 32.055 396.956C31.4653 398.481 30.7066 399.932 29.7941 401.281C30.144 399.683 30.6724 398.129 31.3686 396.651C32.4349 393.834 33.9015 389.957 35.4292 385.628C36.957 381.299 38.27 377.35 39.1925 374.501C39.6283 372.922 40.2208 371.391 40.9606 369.933Z" fill="#263238"/>
<path d="M109.296 330.731C108.995 331.158 108.627 331.53 108.209 331.834C107.164 332.757 106.05 333.592 104.878 334.333C103.118 335.509 101.113 336.231 99.0348 336.439C96.4821 336.58 93.947 336.028 91.6852 334.836C87.6807 332.661 84.1968 329.607 81.4763 325.888C80.6541 324.772 79.9172 323.591 79.2721 322.357C78.8189 321.5 78.6325 320.974 78.6945 320.949C78.7565 320.923 79.8584 322.776 82.0249 325.444C84.8101 328.936 88.2417 331.823 92.1251 333.941C94.2317 335.089 96.5963 335.658 98.993 335.594C100.943 335.432 102.838 334.823 104.54 333.812C107.515 331.994 109.195 330.592 109.296 330.731Z" fill="#263238"/>
</svg>
