<svg width="387" height="90" viewBox="0 0 387 90" fill="none" xmlns="http://www.w3.org/2000/svg">
<path d="M2.40506 71C1.73699 71 1.16913 70.7667 0.701476 70.3C0.233825 69.8333 0 69.2667 0 68.6V3.5C0 2.76667 0.233825 2.16667 0.701476 1.7C1.16913 1.23333 1.73699 1 2.40506 1H45.8966C46.6315 1 47.2327 1.23333 47.7004 1.7C48.168 2.16667 48.4018 2.76667 48.4018 3.5V10.5C48.4018 11.2333 48.168 11.8333 47.7004 12.3C47.2327 12.7 46.6315 12.9 45.8966 12.9H13.7289V31.9H43.8924C44.6272 31.9 45.2285 32.1333 45.6962 32.6C46.1638 33.0667 46.3976 33.6667 46.3976 34.4V41.4C46.3976 42.0667 46.1638 42.6333 45.6962 43.1C45.2285 43.5667 44.6272 43.8 43.8924 43.8H13.7289V68.6C13.7289 69.2667 13.4951 69.8333 13.0274 70.3C12.5598 70.7667 11.9585 71 11.2236 71H2.40506ZM81.0526 72C75.7081 72 71.1986 71.0667 67.5242 69.2C63.9166 67.3333 61.1441 64.7 59.2067 61.3C57.3361 57.9 56.2671 53.9333 55.9999 49.4C55.9331 48.2 55.8997 46.7333 55.8997 45C55.8997 43.2667 55.9331 41.8 55.9999 40.6C56.2671 36 57.3695 32.0333 59.3069 28.7C61.3111 25.3 64.117 22.6667 67.7246 20.8C71.399 18.9333 75.8417 18 81.0526 18C86.2636 18 90.6729 18.9333 94.2805 20.8C97.9549 22.6667 100.761 25.3 102.698 28.7C104.702 32.0333 105.838 36 106.105 40.6C106.172 41.8 106.206 43.2667 106.206 45C106.206 46.7333 106.172 48.2 106.105 49.4C105.838 53.9333 104.736 57.9 102.798 61.3C100.928 64.7 98.1553 67.3333 94.4809 69.2C90.8733 71.0667 86.3972 72 81.0526 72ZM81.0526 62.1C84.5934 62.1 87.3325 61 89.2699 58.8C91.2073 56.5333 92.2763 53.2333 92.4767 48.9C92.5435 47.9 92.5769 46.6 92.5769 45C92.5769 43.4 92.5435 42.1 92.4767 41.1C92.2763 36.8333 91.2073 33.5667 89.2699 31.3C87.3325 29.0333 84.5934 27.9 81.0526 27.9C77.5119 27.9 74.7728 29.0333 72.8353 31.3C70.8979 33.5667 69.829 36.8333 69.6286 41.1C69.5618 42.1 69.5284 43.4 69.5284 45C69.5284 46.6 69.5618 47.9 69.6286 48.9C69.829 53.2333 70.8979 56.5333 72.8353 58.8C74.7728 61 77.5119 62.1 81.0526 62.1ZM119.714 71C119.046 71 118.478 70.7667 118.01 70.3C117.542 69.8333 117.309 69.2667 117.309 68.6V21.5C117.309 20.7667 117.542 20.1667 118.01 19.7C118.478 19.2333 119.046 19 119.714 19H127.831C128.499 19 129.067 19.2333 129.534 19.7C130.069 20.1667 130.336 20.7667 130.336 21.5V25.6C131.872 23.4667 133.843 21.8333 136.248 20.7C138.72 19.5667 141.559 19 144.766 19H148.874C149.609 19 150.177 19.2333 150.578 19.7C151.046 20.1667 151.279 20.7333 151.279 21.4V28.6C151.279 29.2667 151.046 29.8333 150.578 30.3C150.177 30.7667 149.609 31 148.874 31H141.058C137.852 31 135.346 31.9 133.543 33.7C131.806 35.5 130.937 37.9667 130.937 41.1V68.6C130.937 69.2667 130.703 69.8333 130.236 70.3C129.768 70.7667 129.167 71 128.432 71H119.714ZM178.437 72C174.361 72 170.821 71.1 167.814 69.3C164.875 67.4333 162.603 64.8333 161 61.5C159.397 58.1 158.595 54.1 158.595 49.5V21.4C158.595 20.7333 158.829 20.1667 159.296 19.7C159.764 19.2333 160.332 19 161 19H169.818C170.553 19 171.121 19.2333 171.522 19.7C171.99 20.1667 172.224 20.7333 172.224 21.4V48.9C172.224 57.1667 175.864 61.3 183.146 61.3C186.62 61.3 189.36 60.2 191.364 58C193.435 55.8 194.47 52.7667 194.47 48.9V21.4C194.47 20.7333 194.704 20.1667 195.172 19.7C195.639 19.2333 196.207 19 196.875 19H205.694C206.362 19 206.93 19.2333 207.398 19.7C207.865 20.1667 208.099 20.7333 208.099 21.4V68.6C208.099 69.2667 207.865 69.8333 207.398 70.3C206.93 70.7667 206.362 71 205.694 71H197.577C196.842 71 196.241 70.7667 195.773 70.3C195.372 69.8333 195.172 69.2667 195.172 68.6V64.5C193.368 66.8333 191.13 68.6667 188.458 70C185.785 71.3333 182.445 72 178.437 72ZM223.742 71C223.074 71 222.506 70.7667 222.038 70.3C221.57 69.8333 221.337 69.2667 221.337 68.6V21.4C221.337 20.7333 221.57 20.1667 222.038 19.7C222.506 19.2333 223.074 19 223.742 19H231.558C232.226 19 232.794 19.2333 233.262 19.7C233.729 20.1667 233.963 20.7333 233.963 21.4V24.8C235.366 22.9333 237.237 21.3667 239.575 20.1C241.98 18.7667 244.819 18.0667 248.093 18C255.709 17.8667 261.02 20.8333 264.026 26.9C265.563 24.2333 267.768 22.1 270.64 20.5C273.58 18.8333 276.82 18 280.361 18C283.835 18 286.975 18.8 289.781 20.4C292.653 22 294.891 24.4333 296.495 27.7C298.165 30.9 299 34.9667 299 39.9V68.6C299 69.2667 298.766 69.8333 298.299 70.3C297.831 70.7667 297.263 71 296.595 71H288.378C287.71 71 287.142 70.7667 286.674 70.3C286.206 69.8333 285.973 69.2667 285.973 68.6V40.7C285.973 37.7 285.538 35.3333 284.67 33.6C283.801 31.8 282.632 30.5333 281.162 29.8C279.693 29.0667 278.056 28.7 276.252 28.7C274.782 28.7 273.313 29.0667 271.843 29.8C270.373 30.5333 269.171 31.8 268.235 33.6C267.3 35.3333 266.832 37.7 266.832 40.7V68.6C266.832 69.2667 266.598 69.8333 266.131 70.3C265.663 70.7667 265.095 71 264.427 71H256.21C255.475 71 254.874 70.7667 254.406 70.3C254.005 69.8333 253.805 69.2667 253.805 68.6V40.7C253.805 37.7 253.337 35.3333 252.402 33.6C251.467 31.8 250.264 30.5333 248.794 29.8C247.325 29.0667 245.755 28.7 244.084 28.7C242.548 28.7 241.045 29.1 239.575 29.9C238.105 30.6333 236.903 31.8667 235.967 33.6C235.032 35.3333 234.564 37.7 234.564 40.7V68.6C234.564 69.2667 234.331 69.8333 233.863 70.3C233.395 70.7667 232.827 71 232.159 71H223.742Z" fill="#FE6D37"/>
<path d="M314.395 71C313.73 71 313.164 70.7667 312.698 70.3C312.233 69.8333 312 69.2667 312 68.6V2.4C312 1.73334 312.233 1.16667 312.698 0.700004C313.164 0.233337 313.73 0 314.395 0H322.676C323.342 0 323.907 0.233337 324.373 0.700004C324.838 1.16667 325.071 1.73334 325.071 2.4V68.6C325.071 69.2667 324.838 69.8333 324.373 70.3C323.907 70.7667 323.342 71 322.676 71H314.395ZM347.687 90C347.154 90 346.689 89.8 346.29 89.4C345.891 89 345.691 88.5333 345.691 88C345.691 87.7333 345.691 87.4667 345.691 87.2C345.758 87 345.891 86.7333 346.09 86.4L353.873 67.9L334.715 22.6C334.449 21.9333 334.316 21.4667 334.316 21.2C334.383 20.6 334.615 20.1 335.015 19.7C335.414 19.2333 335.913 19 336.511 19H344.593C345.392 19 345.99 19.2 346.389 19.6C346.789 20 347.088 20.4333 347.288 20.9L360.558 53.6L374.228 20.9C374.428 20.3667 374.727 19.9333 375.126 19.6C375.525 19.2 376.124 19 376.922 19H384.905C385.437 19 385.902 19.2 386.302 19.6C386.767 20 387 20.4667 387 21C387 21.4 386.867 21.9333 386.601 22.6L358.363 88.1C358.097 88.6333 357.764 89.0667 357.365 89.4C356.966 89.8 356.368 90 355.569 90H347.687Z" fill="#1D1D1D"/>
</svg>
